<?xml version="1.0" encoding="UTF-8" standalone="no"?>
<svg
   xmlns:dc="http://purl.org/dc/elements/1.1/"
   xmlns:cc="http://creativecommons.org/ns#"
   xmlns:rdf="http://www.w3.org/1999/02/22-rdf-syntax-ns#"
   xmlns:svg="http://www.w3.org/2000/svg"
   xmlns="http://www.w3.org/2000/svg"
   viewBox="0 0 1280 720"
   height="720"
   width="1280"
   xml:space="preserve"
   id="svg2"
   version="1.1"><metadata
     id="metadata8"><rdf:RDF><cc:Work
         rdf:about=""><dc:format>image/svg+xml</dc:format><dc:type
           rdf:resource="http://purl.org/dc/dcmitype/StillImage" /></cc:Work></rdf:RDF></metadata><defs
     id="defs6"><clipPath
       id="clipPath18"
       clipPathUnits="userSpaceOnUse"><path
         style="clip-rule:evenodd"
         id="path16"
         d="M 0,1.2207e-4 H 960 V 540.00012 H 0 Z" /></clipPath></defs><g
     transform="matrix(1.3333333,0,0,-1.3333333,0,720)"
     id="g10"><g
       id="g12"><g
         clip-path="url(#clipPath18)"
         id="g14"><path
           id="path20"
           style="fill:none;fill-opacity:1;fill-rule:evenodd;stroke:none"
           d="M 0,6.1035e-5 H 960 V 540.00006 H 0 Z" /></g></g><path
       id="오정동"
       style="fill:#fea196;fill-opacity:1;fill-rule:evenodd;stroke:none"
       d="m 447.84,202.61 0.6,-4.15 -1.14,-0.1 -2.41,-3.36 -0.1,-0.18 -0.22,-0.33 -0.35,-0.83 -0.63,-1.33 -0.2,-0.2 -0.13,-0.09 -1.67,-0.65 -1.34,0.16 -2.22,0.08 -0.99,-0.08 -2.77,-0.37 -2.13,-3.54 2.69,-1.99 0.88,-0.65 0.47,-0.34 -1.66,0.21 -1.08,0.15 -1.49,0.02 h -0.2 l -0.82,-0.01 -1.14,-0.13 -0.38,-0.08 -4.96,-1.04 -0.24,-0.04 -0.45,-0.12 -1.06,-0.26 -0.81,1.9 -0.26,0.45 -0.77,1.33 -0.09,0.11 -1.29,1.62 -0.53,0.46 -1.34,1.1 -1.97,1.18 -0.65,0.25 -1.17,0.43 -4.05,1.07 -0.57,0.15 -1.71,0.42 -1.56,0.39 0.6,2.38 0.01,1.31 0.01,1.84 0.01,1.9 -0.14,2.29 -0.05,0.81 -0.54,1.78 -4.19,6.1 0.3,0.14 3.14,0.8 7.3,0.42 2.55,-0.02 2.08,-0.02 2.71,0.01 3.35,0.14 0.05,0.03 0.49,0.34 0.05,0.06 0.27,0.46 0.05,0.05 0.77,0.63 0.08,0.03 10.22,1.02 -0.38,-0.86 -0.07,-0.43 -0.06,-0.25 -0.07,-0.29 -0.43,-1.41 -1.24,-1.92 -0.11,-0.17 -1.75,-2.53 -0.04,-0.06 2.57,-1.96 8.79,-4.17 0.87,-0.02 2.11,-0.07 z" /><path
       id="오정동"
       style="fill:none;stroke:#44546a;stroke-width:0.23999999;stroke-linecap:round;stroke-linejoin:round;stroke-miterlimit:10;stroke-dasharray:none;stroke-opacity:0.8"
       d="m 447.84,202.61 0.6,-4.15 -1.14,-0.1 -2.41,-3.36 -0.1,-0.18 -0.22,-0.33 -0.35,-0.83 -0.63,-1.33 -0.2,-0.2 -0.13,-0.09 -1.67,-0.65 -1.34,0.16 -2.22,0.08 -0.99,-0.08 -2.77,-0.37 -2.13,-3.54 2.69,-1.99 0.88,-0.65 0.47,-0.34 -1.66,0.21 -1.08,0.15 -1.49,0.02 h -0.2 l -0.82,-0.01 -1.14,-0.13 -0.38,-0.08 -4.96,-1.04 -0.24,-0.04 -0.45,-0.12 -1.06,-0.26 -0.81,1.9 -0.26,0.45 -0.77,1.33 -0.09,0.11 -1.29,1.62 -0.53,0.46 -1.34,1.1 -1.97,1.18 -0.65,0.25 -1.17,0.43 -4.05,1.07 -0.57,0.15 -1.71,0.42 -1.56,0.39 0.6,2.38 0.01,1.31 0.01,1.84 0.01,1.9 -0.14,2.29 -0.05,0.81 -0.54,1.78 -4.19,6.1 0.3,0.14 3.14,0.8 7.3,0.42 2.55,-0.02 2.08,-0.02 2.71,0.01 3.35,0.14 0.05,0.03 0.49,0.34 0.05,0.06 0.27,0.46 0.05,0.05 0.77,0.63 0.08,0.03 10.22,1.02 -0.38,-0.86 -0.07,-0.43 -0.06,-0.25 -0.07,-0.29 -0.43,-1.41 -1.24,-1.92 -0.11,-0.17 -1.75,-2.53 -0.04,-0.06 2.57,-1.96 8.79,-4.17 0.87,-0.02 2.11,-0.07 z" /><path
       id="대화동"
       style="fill:#fea196;fill-opacity:1;fill-rule:evenodd;stroke:none"
       d="m 436.97,225.22 1.15,-0.84 -0.58,-2.01 -0.05,-2.42 -1.12,-2.33 -1.3,-0.89 -10.23,-1.01 -0.08,-0.04 -0.77,-0.63 -0.04,-0.05 -0.28,-0.46 -0.05,-0.06 -0.49,-0.34 -0.04,-0.03 -3.35,-0.14 -2.72,-0.01 -2.09,0.02 -2.54,0.02 -7.31,-0.41 -3.15,-0.81 -0.3,-0.14 -3.63,3.06 -3.63,3.51 -0.81,0.05 -1.37,-0.03 -0.14,1.56 -0.13,10.64 0.58,1.17 9.75,3.89 4.03,1.29 2.5,0.38 1.19,0.4 0.96,0.51 0.2,0.1 3.76,2.15 1.72,1.17 0.3,0.42 0.07,0.09 5.27,-4.83 2.29,0.29 0.62,-0.22 0.63,-0.23 0.25,-0.29 1.76,-2.09 0.36,-1.8 0.56,-1.13 0.05,-0.1 6.74,-6.54 z" /><path
       id="대화동"
       style="fill:none;stroke:#44546a;stroke-width:0.23999999;stroke-linecap:round;stroke-linejoin:round;stroke-miterlimit:10;stroke-dasharray:none;stroke-opacity:0.8"
       d="m 436.97,225.22 1.15,-0.84 -0.58,-2.01 -0.05,-2.42 -1.12,-2.33 -1.3,-0.89 -10.23,-1.01 -0.08,-0.04 -0.77,-0.63 -0.04,-0.05 -0.28,-0.46 -0.05,-0.06 -0.49,-0.34 -0.04,-0.03 -3.35,-0.14 -2.72,-0.01 -2.09,0.02 -2.54,0.02 -7.31,-0.41 -3.15,-0.81 -0.3,-0.14 -3.63,3.06 -3.63,3.51 -0.81,0.05 -1.37,-0.03 -0.14,1.56 -0.13,10.64 0.58,1.17 9.75,3.89 4.03,1.29 2.5,0.38 1.19,0.4 0.96,0.51 0.2,0.1 3.76,2.15 1.72,1.17 0.3,0.42 0.07,0.09 5.27,-4.83 2.29,0.29 0.62,-0.22 0.63,-0.23 0.25,-0.29 1.76,-2.09 0.36,-1.8 0.56,-1.13 0.05,-0.1 6.74,-6.54 z" /><path
       id="회덕동"
       style="fill:#fea196;fill-opacity:1;fill-rule:evenodd;stroke:none"
       d="m 502.32,285.78 -1.92,-0.85 -1.93,-0.84 -1.45,-2.57 -2.11,-3.96 -1.82,-5.56 -0.45,-9.84 2.16,-2.3 -0.91,-2.93 -2.63,-5.79 -1.37,-1.79 -1.36,-1.8 -0.37,-0.94 -8.93,2.67 -4.05,1.15 -3.31,0.88 -2.78,0.64 -2.9,-5.44 -3.01,-3.45 -4.26,-2.69 -8.1,-2.06 -3.08,-0.08 -0.04,0.15 -0.96,-0.03 -4.49,-1.15 -0.08,-0.7 -0.12,-0.88 -0.19,-1.22 -0.24,-1.36 -0.7,-1.85 -1.02,-0.78 -1.24,-0.5 -1.42,-2.62 -0.28,-2.05 -1.45,0.84 -6.73,6.53 -0.05,0.1 -0.56,1.14 -0.36,1.8 -1.76,2.08 -0.25,0.29 -0.62,0.23 -0.62,0.22 -2.3,-0.29 -5.26,4.83 0.73,1.01 1.1,1.55 0.65,1.41 0.42,0.91 0.14,1.25 0.06,2.44 -0.22,1.85 -0.23,1.85 -0.41,4.26 v 2.29 l 1.11,8.86 1.37,3.5 0.16,0.2 1.25,1.56 0.63,2.1 0.84,3.32 0.34,5.91 1.37,7.18 0.19,2.22 1.81,2.55 2.46,2.03 1.52,1.55 0.4,1.72 -0.19,2.64 -0.31,0.76 -0.74,1.49 -0.74,1.49 6.82,1.56 0.62,0.35 1.23,0.41 5.28,-3.11 2.42,-1.66 7.94,-5.79 0.32,-2.19 0.08,-0.52 0.16,0.21 1.4,1.83 3.48,7.34 -0.1,0.52 -0.97,1.95 5.69,7.32 1,1.05 2.58,0.47 2.73,4.75 3.34,0.89 10.47,1.21 4.25,0.31 2.12,0.15 4.57,-0.74 4.44,-4.37 -0.56,-1.67 -1.69,-5.01 -1.65,-1.67 -1.65,-1.66 -1.03,-1.56 -1.78,-2.7 -0.67,-1.63 -1.56,-3.84 0.98,-2.64 2.13,-3.02 2.45,-3.1 1.22,-1.55 1.11,-1.41 z" /><path
       id="회덕동"
       style="fill:none;stroke:#44546a;stroke-width:0.23999999;stroke-linecap:round;stroke-linejoin:round;stroke-miterlimit:10;stroke-dasharray:none;stroke-opacity:0.8"
       d="m 502.32,285.78 -1.92,-0.85 -1.93,-0.84 -1.45,-2.57 -2.11,-3.96 -1.82,-5.56 -0.45,-9.84 2.16,-2.3 -0.91,-2.93 -2.63,-5.79 -1.37,-1.79 -1.36,-1.8 -0.37,-0.94 -8.93,2.67 -4.05,1.15 -3.31,0.88 -2.78,0.64 -2.9,-5.44 -3.01,-3.45 -4.26,-2.69 -8.1,-2.06 -3.08,-0.08 -0.04,0.15 -0.96,-0.03 -4.49,-1.15 -0.08,-0.7 -0.12,-0.88 -0.19,-1.22 -0.24,-1.36 -0.7,-1.85 -1.02,-0.78 -1.24,-0.5 -1.42,-2.62 -0.28,-2.05 -1.45,0.84 -6.73,6.53 -0.05,0.1 -0.56,1.14 -0.36,1.8 -1.76,2.08 -0.25,0.29 -0.62,0.23 -0.62,0.22 -2.3,-0.29 -5.26,4.83 0.73,1.01 1.1,1.55 0.65,1.41 0.42,0.91 0.14,1.25 0.06,2.44 -0.22,1.85 -0.23,1.85 -0.41,4.26 v 2.29 l 1.11,8.86 1.37,3.5 0.16,0.2 1.25,1.56 0.63,2.1 0.84,3.32 0.34,5.91 1.37,7.18 0.19,2.22 1.81,2.55 2.46,2.03 1.52,1.55 0.4,1.72 -0.19,2.64 -0.31,0.76 -0.74,1.49 -0.74,1.49 6.82,1.56 0.62,0.35 1.23,0.41 5.28,-3.11 2.42,-1.66 7.94,-5.79 0.32,-2.19 0.08,-0.52 0.16,0.21 1.4,1.83 3.48,7.34 -0.1,0.52 -0.97,1.95 5.69,7.32 1,1.05 2.58,0.47 2.73,4.75 3.34,0.89 10.47,1.21 4.25,0.31 2.12,0.15 4.57,-0.74 4.44,-4.37 -0.56,-1.67 -1.69,-5.01 -1.65,-1.67 -1.65,-1.66 -1.03,-1.56 -1.78,-2.7 -0.67,-1.63 -1.56,-3.84 0.98,-2.64 2.13,-3.02 2.45,-3.1 1.22,-1.55 1.11,-1.41 z" /><path
       id="비래동"
       style="fill:#fea196;fill-opacity:1;fill-rule:evenodd;stroke:none"
       d="m 509.55,195.36 -1.86,0.73 -7.23,3.06 -0.93,0.06 -1.42,0.1 -1.87,-0.25 -1.83,0.22 -1.83,0.35 -0.14,0.04 0.55,0.94 0.02,0.05 0.53,0.9 0.07,0.11 -12.74,-0.8 -1.86,-0.66 -0.33,-0.66 -0.33,-1.72 0.14,-0.04 0.29,0.13 0.26,0.1 0.25,0.07 -0.91,-1.61 -0.12,-0.22 -0.5,-0.85 -4.2,1.64 -0.28,0.16 5.51,9.85 3.54,3.78 0.95,0.94 2.65,2.89 v 0.98 l -1.81,2.26 -1.3,1.04 -1.13,1.67 -0.82,1.51 0.8,1.08 0.97,1.39 0.19,0.33 0.81,2.41 0.14,0.64 1.78,1.87 -6.61,8 -0.41,0.43 1.33,1.62 1.6,1.63 0.36,-0.11 2.98,1.53 1.63,1.3 1.75,2.35 2.42,-5.07 2.84,-3.49 4.79,-6.02 4.1,-5.63 4.46,-7.9 2.45,-5.21 1.93,-0.54 1.76,-0.86 0.42,-1.96 -0.14,-2.1 -0.01,-0.08 -0.02,-0.04 -0.72,-0.99 -0.5,-1.35 -0.95,-2.56 -0.06,-1.73 -0.06,-1.74 0.68,-1.41 0.04,-1.22 z" /><path
       id="비래동"
       style="fill:none;stroke:#44546a;stroke-width:0.23999999;stroke-linecap:round;stroke-linejoin:round;stroke-miterlimit:10;stroke-dasharray:none;stroke-opacity:0.8"
       d="m 509.55,195.36 -1.86,0.73 -7.23,3.06 -0.93,0.06 -1.42,0.1 -1.87,-0.25 -1.83,0.22 -1.83,0.35 -0.14,0.04 0.55,0.94 0.02,0.05 0.53,0.9 0.07,0.11 -12.74,-0.8 -1.86,-0.66 -0.33,-0.66 -0.33,-1.72 0.14,-0.04 0.29,0.13 0.26,0.1 0.25,0.07 -0.91,-1.61 -0.12,-0.22 -0.5,-0.85 -4.2,1.64 -0.28,0.16 5.51,9.85 3.54,3.78 0.95,0.94 2.65,2.89 v 0.98 l -1.81,2.26 -1.3,1.04 -1.13,1.67 -0.82,1.51 0.8,1.08 0.97,1.39 0.19,0.33 0.81,2.41 0.14,0.64 1.78,1.87 -6.61,8 -0.41,0.43 1.33,1.62 1.6,1.63 0.36,-0.11 2.98,1.53 1.63,1.3 1.75,2.35 2.42,-5.07 2.84,-3.49 4.79,-6.02 4.1,-5.63 4.46,-7.9 2.45,-5.21 1.93,-0.54 1.76,-0.86 0.42,-1.96 -0.14,-2.1 -0.01,-0.08 -0.02,-0.04 -0.72,-0.99 -0.5,-1.35 -0.95,-2.56 -0.06,-1.73 -0.06,-1.74 0.68,-1.41 0.04,-1.22 z" /><path
       id="중리동"
       style="fill:#fea196;fill-opacity:1;fill-rule:evenodd;stroke:none"
       d="m 451.82,223.52 1.37,-4.82 0.09,0.01 0.91,0.17 8.47,1.62 1.74,-6.12 -1.4,-0.1 -0.81,-0.05 -0.42,-0.04 -0.09,-0.01 -0.46,-1.23 -0.15,-0.53 0.13,-0.1 -4.9,-2.87 h -0.19 -0.29 l -2.68,-0.01 -2.72,-3.91 -2.57,-2.94 -2.6,-0.03 -2.1,0.07 -0.88,0.02 -8.78,4.18 -2.57,1.97 0.04,0.06 1.75,2.53 0.11,0.17 1.24,1.92 0.43,1.42 0.07,0.29 0.06,0.25 0.07,0.43 0.38,0.87 1.3,0.88 1.11,2.34 0.06,2.42 0.57,2.02 2.4,-2.39 z" /><path
       id="중리동"
       style="fill:none;stroke:#44546a;stroke-width:0.23999999;stroke-linecap:round;stroke-linejoin:round;stroke-miterlimit:10;stroke-dasharray:none;stroke-opacity:0.8"
       d="m 451.82,223.52 1.37,-4.82 0.09,0.01 0.91,0.17 8.47,1.62 1.74,-6.12 -1.4,-0.1 -0.81,-0.05 -0.42,-0.04 -0.09,-0.01 -0.46,-1.23 -0.15,-0.53 0.13,-0.1 -4.9,-2.87 h -0.19 -0.29 l -2.68,-0.01 -2.72,-3.91 -2.57,-2.94 -2.6,-0.03 -2.1,0.07 -0.88,0.02 -8.78,4.18 -2.57,1.97 0.04,0.06 1.75,2.53 0.11,0.17 1.24,1.92 0.43,1.42 0.07,0.29 0.06,0.25 0.07,0.43 0.38,0.87 1.3,0.88 1.11,2.34 0.06,2.42 0.57,2.02 2.4,-2.39 z" /><path
       id="법1동"
       style="fill:#fea196;fill-opacity:1;fill-rule:evenodd;stroke:none"
       d="m 447.71,238.17 1.25,-4.67 1.47,-4.98 1.37,-5.02 -11.33,-1.5 -2.4,2.38 -1.15,0.83 0.27,2.05 1.43,2.61 1.24,0.49 1.02,0.78 0.7,1.85 0.24,1.36 0.19,1.21 0.12,0.88 0.08,0.71 4.49,1.14 0.97,0.03 z" /><path
       id="법1동"
       style="fill:none;stroke:#44546a;stroke-width:0.23999999;stroke-linecap:round;stroke-linejoin:round;stroke-miterlimit:10;stroke-dasharray:none;stroke-opacity:0.8"
       d="m 447.71,238.17 1.25,-4.67 1.47,-4.98 1.37,-5.02 -11.33,-1.5 -2.4,2.38 -1.15,0.83 0.27,2.05 1.43,2.61 1.24,0.49 1.02,0.78 0.7,1.85 0.24,1.36 0.19,1.21 0.12,0.88 0.08,0.71 4.49,1.14 0.97,0.03 z" /><path
       id="법2동"
       style="fill:#fea196;fill-opacity:1;fill-rule:evenodd;stroke:none"
       d="m 488.16,246.54 -1.75,-2.35 -1.63,-1.3 -2.99,-1.52 -0.36,0.1 -1.6,-1.62 -1.33,-1.63 -4.31,-3.4 -7.66,-7.09 -0.13,0.02 -1.9,0.33 -0.52,0.09 -2.91,-0.06 1.15,-5.86 0.17,-0.74 0.1,-0.44 0.06,-0.21 0.04,-0.16 0.04,-0.15 0.02,-0.11 -8.47,-1.61 -0.91,-0.18 -0.09,-0.01 -1.37,4.81 -1.37,5.03 -1.46,5 -1.26,4.67 3.08,0.08 8.1,2.07 4.27,2.69 3.01,3.45 2.9,5.44 2.79,-0.64 3.31,-0.88 4.05,-1.15 z" /><path
       id="법2동"
       style="fill:none;stroke:#44546a;stroke-width:0.23999999;stroke-linecap:round;stroke-linejoin:round;stroke-miterlimit:10;stroke-dasharray:none;stroke-opacity:0.8"
       d="m 488.16,246.54 -1.75,-2.35 -1.63,-1.3 -2.99,-1.52 -0.36,0.1 -1.6,-1.62 -1.33,-1.63 -4.31,-3.4 -7.66,-7.09 -0.13,0.02 -1.9,0.33 -0.52,0.09 -2.91,-0.06 1.15,-5.86 0.17,-0.74 0.1,-0.44 0.06,-0.21 0.04,-0.16 0.04,-0.15 0.02,-0.11 -8.47,-1.61 -0.91,-0.18 -0.09,-0.01 -1.37,4.81 -1.37,5.03 -1.46,5 -1.26,4.67 3.08,0.08 8.1,2.07 4.27,2.69 3.01,3.45 2.9,5.44 2.79,-0.64 3.31,-0.88 4.05,-1.15 z" /><path
       id="신탄진동"
       style="fill:#fea196;fill-opacity:1;fill-rule:evenodd;stroke:none"
       d="m 552.54,334.54 -2.5,0.19 -2.49,0.2 -1.9,0.47 -1.91,0.48 -2.52,-3.39 -1.26,-1.69 -1.04,-2.04 0.22,-2.49 -1,-1.58 -4.97,-7.88 -8.48,-11.09 -1.09,-1.31 -6.51,-7.83 -3.21,-3.32 -2.41,-1.21 -3.29,-1.81 -1.05,-1.07 -2.31,-2.35 -2.51,-1.1 -4.44,5.62 -1.11,1.41 -1.23,1.55 -2.45,3.1 -2.13,3.02 -0.98,2.64 1.56,3.85 0.67,1.63 1.78,2.7 1.03,1.56 1.65,1.66 1.66,1.67 1.69,5.01 0.56,1.67 -4.45,4.38 -4.57,0.74 -2.12,-0.16 -4.25,-0.3 -10.49,-1.22 -3.34,-0.88 -2.73,-4.76 -2.58,-0.46 0.66,0.31 0.81,0.41 0.44,0.24 0.59,1.16 0.21,2.1 0.2,2.1 -0.26,0.68 1.33,3.09 5.56,0.17 -0.02,4.52 -0.6,3.47 -2.69,4.67 -1.06,0.81 -2.48,0.15 -1.24,-0.01 -2.29,-0.02 -0.88,-0.01 -1.42,-0.34 -0.9,0.27 -1.77,0.68 -6.96,3.28 -1.36,1.71 -0.35,0.25 -2.33,1.45 0.31,0.8 0.64,1.84 0.13,0.62 0.08,0.44 0.09,0.55 v 0.1 l -0.02,0.86 -0.15,1.03 -0.9,3.63 -2.79,10.66 -0.39,1.19 -0.17,0.67 -0.5,2.02 5.51,0.46 0.37,0.03 3.45,0.14 2.42,-0.09 5.25,-1 2.12,-1.51 1.54,-1.24 3.04,-2.63 0.51,-0.56 0.49,-0.53 0.25,-0.32 0.39,-0.48 0.31,-0.66 0.06,-0.13 0.51,-0.7 0.76,-0.75 0.86,-0.54 1.24,-0.44 0.89,-0.27 2.41,-0.52 2.88,-0.5 2.74,-0.15 1.78,-0.01 3.04,0.22 1.28,0.25 1.71,0.33 1.57,0.52 1.64,0.61 1.37,0.7 0.13,0.07 0.08,0.04 5.86,3.04 1.76,1.05 0.58,0.41 1.29,0.92 1.89,1.47 2.09,2.17 0.11,0.34 0.34,1.07 -0.02,1.26 -0.05,0.48 -0.18,0.54 -0.21,0.58 -0.2,1.07 -0.1,1.22 0.03,1.24 0.04,1.9 0.17,1.28 0.19,1.28 1.17,3.89 0.62,1.58 0.6,1.47 1.37,2.45 0.9,1.26 1.62,2.03 1.03,1.1 1.23,1.12 1.28,1.08 0.98,0.82 0.21,0.16 0.71,0.54 0.87,0.65 0.46,0.34 12.73,4.75 2.38,0.52 1.83,0.24 2.52,-0.07 0.44,-0.11 0.57,-0.15 0.64,-0.17 0.66,-3.98 -0.72,-2.04 -0.72,-2.05 -1.12,-3.17 -0.56,-1.59 -5.49,-16.05 -0.29,-0.81 0.06,-1.96 0.04,-1.95 3.37,-2.11 1.69,-1.06 8.25,-2.23 7.08,-0.17 2.36,-0.06 3.51,0.66 2.34,0.43 2.34,0.44 2.34,0.44 4,-0.59 1.53,-1.44 0.82,-0.86 0.24,-0.58 0.4,-1.02 0.2,-1.91 -0.04,-1.52 -0.34,-1.66 -0.49,-1.26 -0.99,-1.53 -1.12,-1.35 -1.14,-1.1 -0.95,-0.76 -1.61,-0.92 -1.14,-0.42 -1.14,-0.58 -0.7,-0.53 -2.87,-2.19 -0.39,-0.32 -1.33,-1.08 -1.11,-0.96 -2.38,-2.34 -0.84,-0.99 -0.62,-1.05 -0.56,-1.14 -0.29,-0.63 -0.17,-0.39 -2.61,-5.91 -0.48,-1.19 -0.33,-1 -0.05,-0.87 z" /><path
       id="신탄진동"
       style="fill:none;stroke:#44546a;stroke-width:0.23999999;stroke-linecap:round;stroke-linejoin:round;stroke-miterlimit:10;stroke-dasharray:none;stroke-opacity:0.8"
       d="m 552.54,334.54 -2.5,0.19 -2.49,0.2 -1.9,0.47 -1.91,0.48 -2.52,-3.39 -1.26,-1.69 -1.04,-2.04 0.22,-2.49 -1,-1.58 -4.97,-7.88 -8.48,-11.09 -1.09,-1.31 -6.51,-7.83 -3.21,-3.32 -2.41,-1.21 -3.29,-1.81 -1.05,-1.07 -2.31,-2.35 -2.51,-1.1 -4.44,5.62 -1.11,1.41 -1.23,1.55 -2.45,3.1 -2.13,3.02 -0.98,2.64 1.56,3.85 0.67,1.63 1.78,2.7 1.03,1.56 1.65,1.66 1.66,1.67 1.69,5.01 0.56,1.67 -4.45,4.38 -4.57,0.74 -2.12,-0.16 -4.25,-0.3 -10.49,-1.22 -3.34,-0.88 -2.73,-4.76 -2.58,-0.46 0.66,0.31 0.81,0.41 0.44,0.24 0.59,1.16 0.21,2.1 0.2,2.1 -0.26,0.68 1.33,3.09 5.56,0.17 -0.02,4.52 -0.6,3.47 -2.69,4.67 -1.06,0.81 -2.48,0.15 -1.24,-0.01 -2.29,-0.02 -0.88,-0.01 -1.42,-0.34 -0.9,0.27 -1.77,0.68 -6.96,3.28 -1.36,1.71 -0.35,0.25 -2.33,1.45 0.31,0.8 0.64,1.84 0.13,0.62 0.08,0.44 0.09,0.55 v 0.1 l -0.02,0.86 -0.15,1.03 -0.9,3.63 -2.79,10.66 -0.39,1.19 -0.17,0.67 -0.5,2.02 5.51,0.46 0.37,0.03 3.45,0.14 2.42,-0.09 5.25,-1 2.12,-1.51 1.54,-1.24 3.04,-2.63 0.51,-0.56 0.49,-0.53 0.25,-0.32 0.39,-0.48 0.31,-0.66 0.06,-0.13 0.51,-0.7 0.76,-0.75 0.86,-0.54 1.24,-0.44 0.89,-0.27 2.41,-0.52 2.88,-0.5 2.74,-0.15 1.78,-0.01 3.04,0.22 1.28,0.25 1.71,0.33 1.57,0.52 1.64,0.61 1.37,0.7 0.13,0.07 0.08,0.04 5.86,3.04 1.76,1.05 0.58,0.41 1.29,0.92 1.89,1.47 2.09,2.17 0.11,0.34 0.34,1.07 -0.02,1.26 -0.05,0.48 -0.18,0.54 -0.21,0.58 -0.2,1.07 -0.1,1.22 0.03,1.24 0.04,1.9 0.17,1.28 0.19,1.28 1.17,3.89 0.62,1.58 0.6,1.47 1.37,2.45 0.9,1.26 1.62,2.03 1.03,1.1 1.23,1.12 1.28,1.08 0.98,0.82 0.21,0.16 0.71,0.54 0.87,0.65 0.46,0.34 12.73,4.75 2.38,0.52 1.83,0.24 2.52,-0.07 0.44,-0.11 0.57,-0.15 0.64,-0.17 0.66,-3.98 -0.72,-2.04 -0.72,-2.05 -1.12,-3.17 -0.56,-1.59 -5.49,-16.05 -0.29,-0.81 0.06,-1.96 0.04,-1.95 3.37,-2.11 1.69,-1.06 8.25,-2.23 7.08,-0.17 2.36,-0.06 3.51,0.66 2.34,0.43 2.34,0.44 2.34,0.44 4,-0.59 1.53,-1.44 0.82,-0.86 0.24,-0.58 0.4,-1.02 0.2,-1.91 -0.04,-1.52 -0.34,-1.66 -0.49,-1.26 -0.99,-1.53 -1.12,-1.35 -1.14,-1.1 -0.95,-0.76 -1.61,-0.92 -1.14,-0.42 -1.14,-0.58 -0.7,-0.53 -2.87,-2.19 -0.39,-0.32 -1.33,-1.08 -1.11,-0.96 -2.38,-2.34 -0.84,-0.99 -0.62,-1.05 -0.56,-1.14 -0.29,-0.63 -0.17,-0.39 -2.61,-5.91 -0.48,-1.19 -0.33,-1 -0.05,-0.87 z" /><path
       id="석봉동"
       style="fill:#fea196;fill-opacity:1;fill-rule:evenodd;stroke:none"
       d="m 446.24,373.04 0.39,-1.19 2.78,-10.64 0.9,-3.62 0.14,-1.03 0.02,-0.86 0.01,-0.1 -0.09,-0.54 -0.08,-0.45 -0.13,-0.61 -0.64,-1.84 -0.31,-0.8 -1.71,1.21 -1.31,0.92 -0.63,0.26 -0.96,0.18 -0.06,0.02 -1.38,0.71 -3.3,1.98 -0.94,0.77 -0.37,0.31 -0.42,0.75 -0.19,0.32 -0.29,0.5 -1.15,0.78 -0.2,0.11 -1.56,0.74 -1.09,0.43 -3.47,3.31 -0.11,0.14 -3.25,5.64 -0.96,1.8 7.52,0.66 7.4,1.35 2.06,0.63 -0.02,-2.14 z" /><path
       id="석봉동"
       style="fill:none;stroke:#44546a;stroke-width:0.23999999;stroke-linecap:round;stroke-linejoin:round;stroke-miterlimit:10;stroke-dasharray:none;stroke-opacity:0.8"
       d="m 446.24,373.04 0.39,-1.19 2.78,-10.64 0.9,-3.62 0.14,-1.03 0.02,-0.86 0.01,-0.1 -0.09,-0.54 -0.08,-0.45 -0.13,-0.61 -0.64,-1.84 -0.31,-0.8 -1.71,1.21 -1.31,0.92 -0.63,0.26 -0.96,0.18 -0.06,0.02 -1.38,0.71 -3.3,1.98 -0.94,0.77 -0.37,0.31 -0.42,0.75 -0.19,0.32 -0.29,0.5 -1.15,0.78 -0.2,0.11 -1.56,0.74 -1.09,0.43 -3.47,3.31 -0.11,0.14 -3.25,5.64 -0.96,1.8 7.52,0.66 7.4,1.35 2.06,0.63 -0.02,-2.14 z" /><path
       id="덕암동"
       style="fill:#fea196;fill-opacity:1;fill-rule:evenodd;stroke:none"
       d="m 433.67,361.37 1.09,-0.42 1.57,-0.74 0.2,-0.12 1.15,-0.77 0.3,-0.51 0.18,-0.32 0.43,-0.74 0.37,-0.32 0.94,-0.78 3.32,-1.98 1.39,-0.71 0.06,-0.02 0.96,-0.18 0.64,-0.26 1.31,-0.92 1.72,-1.21 2.33,-1.45 0.35,-0.25 1.36,-1.71 6.98,-3.28 1.76,-0.68 0.9,-0.27 1.43,0.34 0.88,0.01 2.29,0.02 1.24,0.01 2.49,-0.15 1.05,-0.81 2.7,-4.67 0.6,-3.47 0.02,-4.51 -5.56,-0.18 -1.34,-3.08 0.27,-0.69 -0.21,-2.1 -0.2,-2.1 -0.6,-1.15 -0.44,-0.24 -0.81,-0.41 -0.66,-0.32 -1.01,-1.06 -5.7,-7.31 0.97,-1.96 0.1,-0.51 -3.48,-7.35 -1.41,-1.84 -0.15,-0.2 -0.08,0.52 -0.33,2.19 -7.95,5.8 -2.43,1.66 -5.3,3.1 -1.23,-0.4 -0.62,-0.36 -6.83,-1.55 -0.49,1 -0.57,0.94 -2.69,2.53 -0.14,0.11 -1.12,0.83 -1.33,0.48 -0.5,0.06 0.05,7.09 0.74,2.87 0.51,2.34 -0.45,0.33 -0.79,0.98 0.01,0.11 0.05,3.27 0.35,0.54 1.3,0.58 0.95,0.36 0.97,0.03 2.02,1.55 0.44,1.98 -0.02,0.11 -0.11,0.63 -0.3,1.42 -0.37,1.18 -1.44,0.8 -0.82,0.88 -0.38,1.04 2.15,4.99 0.38,0.5 0.33,5.61 -0.39,2.22 0.11,0.73 0.76,1.21 1.73,1.8 0.16,0.1 0.49,-0.07 0.52,-0.08 0.38,-0.56 z" /><path
       id="덕암동"
       style="fill:none;stroke:#44546a;stroke-width:0.23999999;stroke-linecap:round;stroke-linejoin:round;stroke-miterlimit:10;stroke-dasharray:none;stroke-opacity:0.8"
       d="m 433.67,361.37 1.09,-0.42 1.57,-0.74 0.2,-0.12 1.15,-0.77 0.3,-0.51 0.18,-0.32 0.43,-0.74 0.37,-0.32 0.94,-0.78 3.32,-1.98 1.39,-0.71 0.06,-0.02 0.96,-0.18 0.64,-0.26 1.31,-0.92 1.72,-1.21 2.33,-1.45 0.35,-0.25 1.36,-1.71 6.98,-3.28 1.76,-0.68 0.9,-0.27 1.43,0.34 0.88,0.01 2.29,0.02 1.24,0.01 2.49,-0.15 1.05,-0.81 2.7,-4.67 0.6,-3.47 0.02,-4.51 -5.56,-0.18 -1.34,-3.08 0.27,-0.69 -0.21,-2.1 -0.2,-2.1 -0.6,-1.15 -0.44,-0.24 -0.81,-0.41 -0.66,-0.32 -1.01,-1.06 -5.7,-7.31 0.97,-1.96 0.1,-0.51 -3.48,-7.35 -1.41,-1.84 -0.15,-0.2 -0.08,0.52 -0.33,2.19 -7.95,5.8 -2.43,1.66 -5.3,3.1 -1.23,-0.4 -0.62,-0.36 -6.83,-1.55 -0.49,1 -0.57,0.94 -2.69,2.53 -0.14,0.11 -1.12,0.83 -1.33,0.48 -0.5,0.06 0.05,7.09 0.74,2.87 0.51,2.34 -0.45,0.33 -0.79,0.98 0.01,0.11 0.05,3.27 0.35,0.54 1.3,0.58 0.95,0.36 0.97,0.03 2.02,1.55 0.44,1.98 -0.02,0.11 -0.11,0.63 -0.3,1.42 -0.37,1.18 -1.44,0.8 -0.82,0.88 -0.38,1.04 2.15,4.99 0.38,0.5 0.33,5.61 -0.39,2.22 0.11,0.73 0.76,1.21 1.73,1.8 0.16,0.1 0.49,-0.07 0.52,-0.08 0.38,-0.56 z" /><path
       id="목상동"
       style="fill:#fea196;fill-opacity:1;fill-rule:evenodd;stroke:none"
       d="m 425.86,372.29 0.96,-1.81 3.26,-5.65 0.11,-0.14 3.49,-3.32 -0.5,0.08 -0.38,0.56 -0.52,0.07 -0.48,0.08 -0.16,-0.1 -1.74,-1.8 -0.76,-1.21 -0.1,-0.73 0.38,-2.22 -0.33,-5.61 -0.37,-0.51 -2.15,-4.98 0.38,-1.04 0.82,-0.88 1.43,-0.8 0.37,-1.18 0.31,-1.42 0.1,-0.62 0.02,-0.12 -0.43,-1.98 -2.03,-1.55 -0.96,-0.03 -0.95,-0.35 -1.3,-0.59 -0.35,-0.54 -0.05,-3.26 -0.01,-0.11 0.79,-0.98 0.45,-0.33 -0.51,-2.35 -0.74,-2.86 -0.05,-7.09 -1.99,0.24 -1.64,1.41 -0.54,0.57 -0.78,0.85 -1.2,1.58 -8.6,7.32 -0.52,0.37 -1.51,1.05 -1.51,1.06 -8.48,7.02 -2.57,2.32 -2.95,3.32 -1.52,1.34 -1.47,1.48 -0.56,0.56 -1.05,1.25 -0.39,0.45 -0.59,1.13 -0.13,0.93 -0.66,7.07 0.28,0.81 1.74,3.73 0.93,0.91 1.78,1.29 3.4,0.63 2.57,0.15 0.6,-0.01 1.81,0.2 7,2.73 0.24,1.52 0.24,1.52 -0.34,1.96 1.09,-0.51 1.87,-0.46 2.37,-0.31 3.72,-0.25 8.12,-0.04 z" /><path
       id="목상동"
       style="fill:none;stroke:#44546a;stroke-width:0.23999999;stroke-linecap:round;stroke-linejoin:round;stroke-miterlimit:10;stroke-dasharray:none;stroke-opacity:0.8"
       d="m 425.86,372.29 0.96,-1.81 3.26,-5.65 0.11,-0.14 3.49,-3.32 -0.5,0.08 -0.38,0.56 -0.52,0.07 -0.48,0.08 -0.16,-0.1 -1.74,-1.8 -0.76,-1.21 -0.1,-0.73 0.38,-2.22 -0.33,-5.61 -0.37,-0.51 -2.15,-4.98 0.38,-1.04 0.82,-0.88 1.43,-0.8 0.37,-1.18 0.31,-1.42 0.1,-0.62 0.02,-0.12 -0.43,-1.98 -2.03,-1.55 -0.96,-0.03 -0.95,-0.35 -1.3,-0.59 -0.35,-0.54 -0.05,-3.26 -0.01,-0.11 0.79,-0.98 0.45,-0.33 -0.51,-2.35 -0.74,-2.86 -0.05,-7.09 -1.99,0.24 -1.64,1.41 -0.54,0.57 -0.78,0.85 -1.2,1.58 -8.6,7.32 -0.52,0.37 -1.51,1.05 -1.51,1.06 -8.48,7.02 -2.57,2.32 -2.95,3.32 -1.52,1.34 -1.47,1.48 -0.56,0.56 -1.05,1.25 -0.39,0.45 -0.59,1.13 -0.13,0.93 -0.66,7.07 0.28,0.81 1.74,3.73 0.93,0.91 1.78,1.29 3.4,0.63 2.57,0.15 0.6,-0.01 1.81,0.2 7,2.73 0.24,1.52 0.24,1.52 -0.34,1.96 1.09,-0.51 1.87,-0.46 2.37,-0.31 3.72,-0.25 8.12,-0.04 z" /><path
       id="송촌동"
       style="fill:#fea196;fill-opacity:1;fill-rule:evenodd;stroke:none"
       d="m 473.2,197.16 -1.9,0.88 0.14,2.03 -1.05,0.88 -0.91,0.75 -1.13,0.93 0.06,2.68 -0.73,3.31 -0.97,1.96 -0.53,0.4 -1.52,0.48 -0.34,0.03 -0.89,-0.04 -2.26,0.86 -0.13,0.1 0.15,0.53 0.46,1.22 0.09,0.01 0.42,0.04 0.81,0.06 1.4,0.1 -1.74,6.12 -0.03,0.11 -0.04,0.15 -0.04,0.16 -0.06,0.21 -0.1,0.44 -0.16,0.74 -1.15,5.88 2.9,0.06 0.52,-0.09 1.9,-0.33 0.14,-0.02 7.66,7.11 4.31,3.41 0.4,-0.43 6.62,-8.02 -1.78,-1.87 -0.14,-0.64 -0.81,-2.41 -0.19,-0.33 -0.97,-1.4 -0.81,-1.08 0.82,-1.52 1.14,-1.67 1.3,-1.05 1.82,-2.26 -0.01,-0.98 -2.65,-2.9 -0.96,-0.94 -3.54,-3.79 z" /><path
       id="송촌동"
       style="fill:none;stroke:#44546a;stroke-width:0.23999999;stroke-linecap:round;stroke-linejoin:round;stroke-miterlimit:10;stroke-dasharray:none;stroke-opacity:0.8"
       d="m 473.2,197.16 -1.9,0.88 0.14,2.03 -1.05,0.88 -0.91,0.75 -1.13,0.93 0.06,2.68 -0.73,3.31 -0.97,1.96 -0.53,0.4 -1.52,0.48 -0.34,0.03 -0.89,-0.04 -2.26,0.86 -0.13,0.1 0.15,0.53 0.46,1.22 0.09,0.01 0.42,0.04 0.81,0.06 1.4,0.1 -1.74,6.12 -0.03,0.11 -0.04,0.15 -0.04,0.16 -0.06,0.21 -0.1,0.44 -0.16,0.74 -1.15,5.88 2.9,0.06 0.52,-0.09 1.9,-0.33 0.14,-0.02 7.66,7.11 4.31,3.41 0.4,-0.43 6.62,-8.02 -1.78,-1.87 -0.14,-0.64 -0.81,-2.41 -0.19,-0.33 -0.97,-1.4 -0.81,-1.08 0.82,-1.52 1.14,-1.67 1.3,-1.05 1.82,-2.26 -0.01,-0.98 -2.65,-2.9 -0.96,-0.94 -3.54,-3.79 z" /></g></svg>