<?xml version="1.0" ?><!DOCTYPE svg  PUBLIC '-//W3C//DTD SVG 1.1//EN'  'http://www.w3.org/Graphics/SVG/1.1/DTD/svg11.dtd'><svg xmlns="http://www.w3.org/2000/svg" xmlns:xlink="http://www.w3.org/1999/xlink" width="1170.00" height="1355.00" viewBox="0.00 0.00 1170.00 1355.00">
<g stroke-linecap="round" id="대전_행정구역2">

<path d="M221.90,978.17 C224.62,974.55 228.24,971.83 228.24,971.83 C228.24,971.83 232.76,969.12 235.48,966.41 C238.19,963.69 239.09,964.60 244.52,960.98 C249.95,957.36 254.48,955.55 254.48,955.55 C254.48,955.55 260.81,951.93 260.81,951.93 C260.81,951.93 268.95,952.83 268.95,952.83 C268.95,952.83 274.38,954.64 274.38,954.64 C274.38,954.64 268.05,932.93 268.05,932.93 C271.67,931.12 268.05,934.74 271.67,931.12 C275.29,927.50 275.29,925.69 277.10,922.97 C278.91,920.26 278.91,919.35 281.62,913.92 C284.34,908.49 286.15,907.59 287.05,904.87 C287.96,902.16 287.05,907.59 287.96,902.16 C288.86,896.73 296.10,897.63 296.10,897.63 C296.10,897.63 298.81,900.35 301.53,896.73 C304.24,893.11 301.53,897.64 304.24,893.11 C306.96,888.59 306.05,887.68 306.96,883.16 C307.86,878.64 306.96,876.83 307.86,873.20 C308.77,869.59 306.96,867.78 308.77,864.16 C310.58,860.54 311.48,856.01 313.29,853.30 C315.10,850.59 316.00,846.97 317.81,844.25 C319.62,841.54 328.67,838.82 328.67,838.82 C328.67,838.82 337.72,836.11 337.72,836.11 C337.72,836.11 344.06,835.20 344.06,835.20 C344.06,835.20 348.58,835.20 348.58,835.20 C348.58,835.20 347.67,807.15 347.67,807.15 C347.67,807.15 351.29,800.82 351.29,800.82 C351.29,800.82 362.15,786.34 362.15,786.34 C362.15,786.34 367.58,787.24 367.58,787.24 C367.58,787.24 369.39,768.24 369.39,768.24 C369.39,768.24 363.96,765.53 363.96,765.53 C363.96,765.53 356.72,731.14 356.72,731.14 C356.72,731.14 357.63,716.66 357.63,716.66 C357.63,716.66 363.96,715.76 363.96,715.76 C363.96,715.76 365.77,708.52 365.77,708.52 C365.77,708.52 413.73,708.52 413.73,708.52 C413.73,708.52 419.16,706.71 419.16,706.71 C419.16,706.71 419.16,704.90 420.06,701.28 C420.97,697.66 419.16,692.23 419.16,692.23 C419.16,692.23 417.35,683.18 417.35,683.18 C417.35,683.18 408.30,662.37 408.30,662.37 C408.30,662.37 405.59,650.61 405.59,650.61 C405.59,650.61 402.87,642.47 402.87,642.47 C402.87,642.47 403.78,627.08 403.78,627.08 C403.78,627.08 408.30,621.65 408.30,621.65 C408.30,621.65 413.73,620.75 417.35,618.03 C420.97,615.32 424.59,613.51 426.40,610.79 C428.21,608.08 430.02,605.37 431.82,602.65 C433.64,599.94 437.25,593.60 437.25,593.60 C437.25,593.60 445.40,583.65 445.40,583.65 C445.40,583.65 450.83,579.13 453.54,578.22 C456.26,577.32 460.78,576.41 460.78,576.41 C460.78,576.41 465.30,570.08 467.11,567.36 C468.92,564.65 477.07,557.41 477.07,557.41 C477.07,557.41 487.93,551.07 487.93,551.07 C487.93,551.07 493.35,549.26 493.35,549.26 C493.35,549.26 503.31,550.17 506.93,550.17 C510.55,550.17 522.31,549.27 522.31,549.26 C522.31,549.26 537.69,550.17 537.69,550.17 C537.69,550.17 543.75,549.64 543.75,549.64 C543.38,548.77 542.95,546.97 544.93,545.65 C547.65,543.84 542.22,545.65 547.65,543.84 C553.07,542.03 558.50,542.03 558.50,542.02 C558.50,542.02 569.36,537.50 569.36,537.50 C569.36,537.50 577.50,531.17 577.50,531.17 C585.65,526.64 584.74,530.26 584.75,530.26 C584.75,530.26 591.08,528.45 591.08,528.45 C591.08,528.45 592.89,527.55 595.60,524.83 C598.32,522.12 598.32,522.12 598.32,522.12 C598.32,522.12 603.75,516.69 604.65,513.98 C605.56,511.26 606.46,508.55 606.46,504.93 C606.46,501.31 605.56,489.55 605.56,489.54 C605.56,489.54 603.75,461.50 603.75,461.50 C603.75,461.50 605.56,448.83 605.56,448.83 C610.08,442.49 609.17,447.92 610.08,442.49 C610.98,437.07 610.98,433.45 610.99,430.73 C610.98,428.02 612.80,422.59 612.80,422.59 C612.80,422.59 617.32,416.25 617.32,416.25 C617.32,416.25 620.94,411.73 620.94,411.73 C620.94,411.73 624.56,407.21 624.56,407.21 C624.56,407.21 626.37,399.06 626.37,399.06 C626.37,399.06 626.37,396.35 628.18,393.63 C629.99,390.92 626.37,396.35 629.99,390.92 C633.61,385.49 634.51,380.06 634.51,380.06 C634.51,380.06 630.89,371.92 629.99,369.20 C629.08,366.49 625.47,361.06 624.56,358.34 C623.65,355.63 620.94,352.01 620.94,352.01 C620.94,352.01 617.32,345.68 617.32,345.68 C617.32,345.68 613.70,340.25 613.70,340.25 C613.70,340.25 607.37,333.91 607.37,333.91 C607.37,333.91 593.79,328.48 593.79,328.48 C593.79,328.48 588.37,325.77 585.65,323.06 C582.94,320.34 575.70,317.63 574.79,314.91 C573.89,312.20 570.27,308.58 570.27,308.58 C570.27,308.58 561.22,300.43 561.22,300.43 C561.22,300.43 554.89,295.00 554.89,295.00 C554.89,295.00 549.46,288.67 549.46,288.67 C549.46,288.67 547.65,284.15 547.65,284.15 C547.65,284.15 544.03,280.53 544.03,280.53 C544.03,280.53 540.41,280.53 539.50,277.81 C538.60,275.10 534.07,271.48 534.07,271.48 C534.07,271.48 532.27,266.05 532.26,263.34 C532.27,260.62 531.36,254.29 531.36,254.29 C531.36,254.29 532.26,249.76 533.17,247.05 C534.08,244.34 535.88,241.62 536.79,238.91 C537.70,236.19 541.31,231.67 541.31,231.67 C541.31,231.67 544.03,228.05 547.65,227.14 C551.27,226.24 556.70,222.62 556.70,222.62 C556.70,222.62 564.84,219.00 564.84,219.00 C564.84,219.00 567.56,214.48 569.37,211.76 C570.28,210.40 571.64,208.35 572.78,206.64 C571.94,204.36 571.11,203.27 570.27,199.09 C569.37,194.57 569.37,190.95 569.37,188.23 C569.37,185.52 569.37,182.80 569.37,178.28 C569.37,173.76 567.56,170.14 568.46,166.52 C569.37,162.90 571.18,157.47 571.18,154.75 C571.18,152.04 572.08,144.80 572.08,144.80 C572.08,144.80 573.89,139.37 574.79,134.85 C575.70,130.32 579.32,123.99 579.32,123.99 C579.32,123.99 581.13,121.27 580.22,115.84 C579.32,110.42 577.51,102.27 577.51,102.27 C577.51,102.27 576.61,94.13 576.61,94.13 C576.61,94.13 563.94,75.13 562.13,72.41 C560.32,69.70 553.08,63.36 553.08,63.36 C553.08,63.36 550.37,59.74 546.75,57.03 C543.13,54.32 542.22,51.60 539.51,49.79 C536.79,47.98 532.27,44.36 530.46,41.65 C528.65,38.93 528.65,37.12 525.03,35.31 C521.41,33.50 518.70,31.69 515.08,30.79 C511.46,29.89 505.12,28.08 504.22,30.79 C503.31,33.50 499.69,35.31 499.69,35.31 C499.69,35.31 496.98,38.03 494.26,41.65 C491.55,45.27 487.93,52.50 487.93,52.50 C487.93,52.50 486.12,53.41 484.31,56.12 C482.50,58.84 477.07,63.36 477.07,63.36 C477.07,63.36 470.74,69.70 470.74,69.70 C470.74,69.70 468.02,67.89 465.31,69.70 C462.60,71.51 456.26,67.89 456.26,67.89 C456.26,67.89 448.12,64.27 448.12,64.27 C448.12,64.27 439.97,60.65 439.97,60.65 C439.97,60.65 436.35,67.89 436.35,67.89 C436.35,67.89 433.64,70.60 432.73,73.32 C431.83,76.03 430.93,79.65 429.11,85.98 C427.30,92.32 426.40,93.22 426.40,95.94 C426.40,98.65 422.78,99.56 426.40,103.18 C430.02,106.80 431.83,104.99 435.45,111.32 C439.07,117.65 437.26,113.13 439.97,121.27 C442.69,129.42 442.69,120.37 442.69,129.42 C442.69,138.47 442.69,140.28 441.78,142.99 C440.88,145.70 439.97,149.32 437.26,151.13 C435.79,152.11 434.59,153.61 433.80,154.79 C433.94,155.30 433.95,156.80 433.64,160.18 C432.73,170.14 432.73,170.14 432.73,170.14 C432.73,170.14 424.59,172.85 424.59,172.85 C424.59,172.85 419.16,175.57 421.88,179.18 C424.59,182.80 425.50,185.52 425.50,188.23 C425.50,190.95 427.30,194.57 427.30,199.09 C427.30,203.62 429.11,202.71 428.21,209.04 C427.30,215.38 430.92,209.95 427.30,215.38 C423.69,220.81 423.69,220.81 423.69,225.33 C423.69,229.86 426.40,231.67 422.78,233.48 C419.16,235.29 419.16,238.91 416.45,239.81 C413.73,240.71 410.11,246.14 410.11,246.14 C410.11,246.14 408.30,242.52 404.68,241.62 C401.06,240.71 405.59,239.81 401.06,240.71 C396.54,241.62 396.54,245.24 393.83,247.05 C391.11,248.86 392.92,249.76 388.40,253.38 C383.87,257.00 385.68,253.38 383.87,261.52 C382.06,269.67 381.16,268.76 379.35,274.19 C377.54,279.62 377.54,279.62 377.54,279.62 C377.54,279.62 379.95,276.00 379.95,276.00 C379.95,276.00 377.54,279.62 377.54,279.62 C372.11,287.77 372.11,285.05 372.11,292.29 C372.11,299.53 373.01,301.34 373.01,304.05 C373.01,306.77 373.92,310.39 373.92,310.39 C373.92,310.39 326.87,347.48 326.87,347.48 C326.87,347.48 318.72,344.77 318.72,344.77 C318.72,344.77 311.48,342.96 311.48,342.96 C311.48,342.96 305.15,343.87 305.15,343.87 C305.15,343.87 294.29,349.29 294.29,349.29 C290.67,351.11 279.82,339.34 279.81,339.34 C279.81,339.34 269.86,335.72 269.86,335.72 C269.86,335.72 268.05,333.91 264.43,334.82 C260.81,335.72 255.38,338.44 255.38,338.44 C255.38,338.44 249.05,336.63 247.24,340.25 C245.43,343.87 243.62,348.39 243.62,348.39 C243.62,348.39 234.57,346.58 231.86,345.68 C229.14,344.77 225.52,343.87 225.52,343.87 C225.52,343.87 221.90,349.29 221.90,349.29 C221.90,349.29 221.90,351.10 221.90,353.82 C221.90,356.53 221.90,356.53 221.90,356.53 C221.90,356.53 213.76,362.87 213.76,362.87 C210.14,369.20 209.24,373.72 209.24,373.72 C209.24,373.72 194.76,372.82 194.76,372.82 C194.76,372.82 181.19,376.78 181.19,376.78 C181.19,376.78 180.17,395.44 180.17,395.44 C180.17,395.44 180.17,401.55 179.83,402.90 C179.49,404.26 178.81,408.33 178.81,412.75 C178.81,417.16 178.47,421.91 177.11,423.94 C175.76,425.98 173.72,430.05 173.04,431.41 C172.36,432.76 172.36,433.10 171.34,436.50 C170.33,439.89 169.99,444.30 169.99,446.00 C169.99,447.69 169.99,450.41 169.65,453.80 C169.31,457.20 169.65,458.55 169.65,463.98 C169.65,469.41 168.97,474.50 169.31,475.52 C169.65,476.54 170.33,478.57 168.63,481.63 C166.93,484.68 167.95,483.32 167.27,487.05 C166.59,490.79 166.93,490.11 167.61,493.50 C168.29,496.90 169.99,498.59 170.32,501.65 C170.66,504.70 171.68,511.15 171.68,511.15 C171.68,511.15 174.06,516.58 174.74,518.27 C175.41,519.97 175.75,521.33 176.43,524.04 C177.11,526.76 177.45,530.49 177.45,532.18 C177.45,533.88 177.11,534.56 176.77,537.95 C176.43,541.35 177.45,541.69 176.09,545.42 C174.74,549.15 175.07,550.51 174.06,554.24 C173.04,557.97 173.04,561.03 172.02,564.42 C171.00,567.81 168.29,572.56 167.95,573.58 C167.61,574.60 164.89,577.99 164.89,577.99 C164.89,577.99 164.56,578.33 162.18,579.35 C159.81,580.37 157.43,581.73 155.73,582.40 C154.04,583.08 149.63,587.15 149.63,587.15 C149.63,587.15 148.27,587.49 147.59,590.55 C146.91,593.60 146.91,595.98 146.23,598.01 C145.56,600.05 144.20,601.40 145.22,604.12 C146.23,606.84 145.89,607.85 147.25,611.25 C148.61,614.64 150.65,615.66 151.32,618.37 C152.00,621.09 150.98,619.73 153.02,622.78 C155.06,625.84 156.07,627.19 157.77,629.23 C159.47,631.27 160.15,631.27 162.18,633.98 C164.22,636.70 165.91,637.37 166.25,639.41 C166.59,641.44 167.61,642.46 167.61,644.84 C167.61,647.21 169.31,650.61 168.97,651.96 C168.63,653.32 169.99,655.70 170.32,657.05 C170.66,658.41 173.04,659.43 171.00,659.77 C168.97,660.11 165.57,663.50 165.57,663.50 C165.57,663.50 161.50,665.54 159.81,665.20 C158.11,664.86 156.07,665.20 155.06,664.52 C154.04,663.84 153.02,662.48 152.00,663.16 C150.98,663.84 151.66,665.54 149.97,668.25 C148.27,670.96 148.61,671.64 147.25,672.32 C145.89,673.00 145.22,673.00 143.18,675.04 C141.14,677.07 142.50,674.36 139.11,677.41 C135.72,680.47 136.05,677.75 133.34,681.48 C130.62,685.22 128.93,688.27 128.59,689.29 C128.25,690.31 128.25,696.07 128.25,696.07 C128.25,696.07 128.93,700.15 128.93,700.15 C128.93,700.15 129.61,704.22 129.61,704.22 C129.61,704.22 130.29,705.58 130.96,707.61 C130.96,707.61 131.01,707.75 131.01,707.75 C131.14,708.13 131.16,708.22 131.16,708.22 C131.26,708.51 131.41,708.95 131.64,709.65 C133.00,713.72 133.68,709.65 133.00,713.72 C132.32,717.79 135.71,715.08 135.71,715.08 C135.71,715.08 133.68,721.18 133.68,721.18 C133.68,721.18 129.61,725.26 129.61,725.26 C129.61,725.26 122.82,727.29 122.82,727.29 C122.82,727.29 111.96,729.33 111.96,729.33 C111.96,729.33 105.85,730.68 105.85,730.68 C105.85,730.68 109.25,738.15 109.25,738.15 C109.25,738.15 110.60,750.37 110.60,750.37 C110.60,750.37 111.28,754.44 110.60,756.47 C109.93,758.51 109.25,762.58 109.25,762.58 C109.25,762.58 105.85,768.01 105.85,768.01 C105.18,774.79 104.50,778.87 104.50,781.58 C104.50,784.30 105.18,782.94 104.50,789.05 C103.82,795.15 105.18,793.80 104.50,799.22 C103.82,804.65 103.82,809.41 103.82,812.80 C103.82,816.19 105.18,817.55 104.50,819.58 C103.82,821.62 103.82,821.62 104.50,824.33 C105.18,827.05 107.21,829.76 107.21,829.76 C107.21,829.76 110.60,833.84 110.60,833.84 C110.60,833.84 112.64,833.84 111.28,837.91 C109.93,841.98 108.57,846.73 108.57,846.73 C108.57,846.73 108.57,852.84 108.57,852.84 C108.57,852.84 108.57,852.16 105.85,853.52 C103.14,854.87 103.82,856.23 100.42,856.23 C97.03,856.23 97.03,855.55 94.32,856.91 C91.60,858.27 91.60,856.23 88.21,859.62 C84.82,863.02 87.53,860.30 81.42,865.05 C75.32,869.80 75.99,869.12 73.28,872.52 C70.56,875.91 72.60,873.20 70.56,875.91 C68.53,878.63 67.17,877.95 69.21,882.02 C71.24,886.09 70.56,886.09 73.28,890.84 C75.99,895.59 75.99,896.95 78.03,898.31 C80.07,899.66 79.39,901.02 82.10,904.41 C84.82,907.81 87.53,909.16 88.21,911.20 C88.89,913.24 88.89,913.24 88.89,913.24 C88.89,913.24 92.96,922.06 92.96,922.06 C92.96,922.06 90.92,924.77 94.32,926.13 C97.71,927.48 97.71,927.48 100.42,930.20 C103.14,932.92 104.50,935.63 106.53,936.99 C108.57,938.34 109.25,939.70 111.96,941.06 C114.68,942.41 114.68,940.38 119.42,943.09 C124.18,945.81 123.50,945.81 126.89,946.49 C130.28,947.17 124.85,943.77 130.28,947.17 C135.71,950.56 137.75,953.95 140.46,955.31 C143.18,956.67 142.50,958.03 147.25,960.74 C152.00,963.45 153.36,965.49 156.07,966.85 C158.79,968.20 160.82,970.24 163.54,970.92 C166.25,971.60 175.07,980.42 175.07,980.42 C175.07,980.42 182.54,985.17 182.54,985.17 C182.54,985.17 213.08,983.81 213.08,983.81 C213.08,983.81 213.86,985.18 213.86,985.18 C213.86,985.18 217.38,983.59 217.38,983.59 C217.38,983.59 219.19,981.79 221.90,978.17 Z" fill="white" fill-opacity="1" stroke="rgb(137, 137, 137)" stroke-width="5.00" stroke-opacity="1.00" stroke-linejoin="miter" id="유성구"/>
<path d="M650.80,1202.12 C650.80,1202.12 653.07,1198.95 654.42,1198.05 C655.78,1197.14 653.52,1191.71 653.52,1191.71 C653.52,1191.71 650.80,1188.09 650.80,1188.09 C650.80,1188.09 648.54,1185.38 648.54,1185.38 C648.54,1185.38 648.54,1183.12 650.80,1180.40 C653.07,1177.69 653.07,1175.42 654.42,1174.07 C655.78,1172.71 658.04,1169.09 658.04,1169.09 C658.04,1169.09 656.23,1157.78 656.23,1157.78 C656.23,1157.78 656.23,1150.09 655.78,1148.28 C655.32,1146.47 655.78,1143.30 655.32,1141.95 C654.87,1140.59 652.16,1137.87 652.16,1137.87 C652.16,1137.87 649.90,1138.33 649.90,1138.33 C649.90,1138.33 647.63,1133.80 647.63,1133.80 C647.63,1133.80 647.63,1129.28 649.44,1128.37 C651.25,1127.47 653.51,1127.01 655.32,1126.11 C657.14,1125.20 657.14,1126.56 659.85,1126.11 C662.56,1125.66 667.09,1130.63 667.09,1130.63 C667.09,1130.63 670.71,1133.80 672.07,1134.25 C673.42,1134.71 677.04,1133.80 678.40,1133.35 C679.76,1132.90 679.30,1132.90 681.11,1129.73 C682.92,1126.56 685.19,1125.66 686.09,1123.39 C687.00,1121.13 690.62,1116.16 690.62,1116.16 C690.62,1116.16 693.33,1112.54 693.33,1112.54 C693.33,1112.54 693.33,1096.25 693.33,1096.25 C693.33,1096.25 698.76,1092.63 700.12,1092.18 C701.47,1091.73 707.81,1089.46 707.81,1089.46 C707.81,1089.46 710.52,1088.11 710.52,1088.11 C710.52,1088.11 707.81,1084.04 707.81,1084.04 C707.81,1084.04 707.35,1062.32 707.35,1062.32 C707.35,1062.32 700.57,1061.87 700.57,1061.87 C700.57,1061.87 696.95,1056.44 696.95,1056.44 C696.95,1056.44 692.88,1051.46 691.97,1049.65 C691.07,1047.84 686.54,1041.96 686.54,1041.96 C686.54,1041.96 685.64,1032.01 685.64,1032.01 C685.64,1032.01 683.38,1027.03 683.38,1027.03 C683.38,1027.03 678.85,1025.22 678.85,1025.22 C678.85,1025.22 663.47,1023.86 663.47,1023.86 C663.47,1023.86 660.75,1021.60 660.75,1021.60 C661.21,1019.79 662.11,1019.79 663.47,1017.08 C664.83,1014.36 666.64,1013.46 666.64,1012.10 C666.64,1010.74 667.54,1009.84 667.09,1006.67 C666.64,1003.50 667.54,1000.79 667.09,998.98 C666.64,997.17 664.83,998.53 665.73,995.36 C666.64,992.20 667.09,992.20 668.44,992.65 C669.80,993.10 671.61,992.20 672.52,990.84 C673.42,989.48 696.50,963.69 696.50,963.69 C696.50,963.69 698.31,959.17 698.31,959.17 C698.31,959.17 691.97,948.76 691.97,947.40 C691.97,946.05 686.54,938.81 686.54,938.81 C686.54,938.81 682.92,937.00 682.92,937.00 C682.92,937.00 681.57,939.26 680.66,937.00 C679.76,934.74 677.04,933.83 676.14,931.12 C675.23,928.40 675.23,924.33 675.23,924.33 C675.23,924.33 676.59,922.97 677.04,921.16 C677.50,919.35 678.40,919.81 678.40,917.09 C678.40,914.38 676.59,908.95 676.59,908.95 C676.59,908.95 674.78,905.33 674.78,905.33 C674.78,905.33 668.45,893.11 667.09,891.76 C665.73,890.40 660.76,887.68 660.76,887.68 C660.76,887.68 659.40,887.23 658.94,885.87 C658.49,884.52 658.49,872.30 658.49,872.30 C658.49,872.30 669.35,873.66 669.35,873.66 C669.35,873.66 676.59,875.01 676.59,875.01 C676.59,875.01 679.76,875.02 681.11,874.11 C682.47,873.21 722.28,851.04 722.28,851.04 C722.28,851.04 723.19,855.11 723.19,856.47 C723.19,857.82 722.28,861.44 723.19,863.25 C724.09,865.06 729.07,872.75 729.07,872.75 C729.07,872.75 731.79,868.23 731.79,868.23 C731.79,868.23 735.40,863.25 735.40,863.25 C735.40,863.25 738.57,863.25 739.93,863.25 C741.29,863.25 747.62,865.97 747.62,865.97 C747.62,865.97 751.24,866.42 751.24,866.42 C751.24,866.42 753.73,868.91 755.08,868.91 C756.44,868.91 759.61,868.91 760.74,868.68 C761.87,868.45 756.89,858.95 756.67,858.27 C756.44,857.60 754.86,849.00 754.86,849.00 C754.86,849.00 753.50,840.18 753.50,840.18 C753.50,840.18 751.24,834.75 751.24,834.75 C751.24,834.75 746.71,831.13 746.71,831.13 C746.71,831.13 740.38,826.72 739.70,825.70 C739.02,824.68 737.33,821.97 736.31,820.61 C735.29,819.25 733.25,817.90 732.91,815.86 C732.58,813.83 730.54,809.75 730.54,809.75 C729.86,808.40 727.49,802.63 727.49,802.63 C727.49,802.63 725.11,798.89 725.11,798.89 C725.11,798.89 721.72,796.18 720.70,795.84 C719.68,795.50 713.57,794.82 711.88,793.80 C710.18,792.79 705.43,792.45 705.43,792.45 C705.43,792.45 700.68,788.72 700.68,788.72 C700.68,788.72 698.98,786.00 698.64,784.64 C698.30,783.29 696.27,775.82 695.93,774.80 C695.59,773.79 691.86,764.63 691.86,764.62 C691.86,764.62 687.78,756.14 687.78,756.14 C687.78,756.14 677.04,738.38 677.04,738.38 C677.04,738.38 674.78,734.31 673.42,732.95 C672.07,731.60 661.66,716.67 661.66,716.67 C661.66,716.67 654.42,709.88 654.42,709.88 C654.42,709.88 647.64,703.55 647.18,702.19 C646.73,700.83 640.85,694.50 640.85,694.50 C640.85,694.50 636.32,688.17 636.32,688.17 C636.32,688.17 633.16,683.19 633.16,683.19 C633.16,683.19 630.44,679.12 628.18,679.12 C625.92,679.12 624.11,678.21 622.75,677.31 C621.40,676.40 620.04,675.50 618.68,674.14 C617.32,672.78 614.61,668.71 614.61,668.71 C614.61,668.71 613.92,667.00 612.84,665.36 C612.84,665.36 612.84,665.36 612.84,665.36 C612.84,665.36 612.34,664.64 612.34,664.64 C610.99,662.83 610.08,660.57 609.18,658.76 C608.27,656.95 605.10,653.33 604.65,651.97 C604.20,650.61 598.77,644.28 598.77,644.28 C598.77,644.28 592.89,642.02 591.53,641.57 C590.18,641.12 587.92,641.11 586.10,640.66 C584.29,640.21 581.13,639.76 581.13,639.76 C581.58,642.48 580.22,642.02 579.32,644.28 C578.41,646.54 578.87,646.09 577.05,650.16 C575.25,654.24 577.51,652.43 577.96,655.59 C578.41,658.76 577.51,659.21 577.50,661.48 C577.51,663.74 579.32,665.55 580.22,666.90 C581.13,668.26 578.87,673.69 578.87,673.69 C578.87,673.69 578.87,677.76 578.87,677.76 C578.87,677.76 576.15,682.74 576.15,682.74 C576.15,682.74 569.82,689.07 569.82,689.07 C569.82,689.07 561.67,698.57 561.67,698.57 C561.67,698.57 555.34,703.10 555.34,703.10 C555.34,703.10 548.10,709.43 546.74,709.88 C545.39,710.34 539.50,721.65 539.50,721.65 C539.50,721.65 531.81,731.15 531.81,731.15 C531.81,731.15 531.36,733.86 531.36,733.86 C531.36,733.86 531.36,740.65 530.91,743.36 C530.46,746.08 529.10,747.89 529.10,747.89 C529.10,747.89 522.31,749.70 522.31,749.70 C522.31,749.70 520.05,754.67 520.05,754.67 C520.05,754.67 518.24,760.10 516.43,763.72 C514.62,767.34 516.88,768.70 517.33,770.06 C517.79,771.41 520.05,777.30 520.05,777.29 C520.05,777.29 526.83,788.60 526.83,788.60 C526.83,788.60 525.93,791.32 525.93,791.32 C525.93,791.32 521.41,796.75 519.14,799.92 C516.88,803.09 516.43,803.08 516.43,804.44 C516.43,805.80 516.88,807.61 516.88,807.61 C516.88,807.61 514.17,811.23 511.00,813.49 C507.83,815.75 508.29,813.94 505.57,817.11 C502.86,820.28 504.67,819.82 504.67,821.63 C504.67,823.44 506.48,827.06 506.93,828.87 C507.38,830.68 508.74,832.49 509.64,835.20 C510.55,837.92 511.00,842.44 511.00,843.80 C511.00,845.16 510.55,847.42 509.19,850.59 C507.83,853.75 505.57,857.83 505.12,859.18 C504.67,860.54 497.88,867.78 495.17,868.23 C492.45,868.68 489.74,866.88 486.12,866.88 C482.50,866.88 482.04,867.33 482.04,867.33 C482.04,867.33 480.69,869.14 479.78,870.50 C478.88,871.85 479.33,874.57 474.35,877.28 C469.38,880.00 469.38,880.00 469.38,882.26 C469.38,884.52 469.38,882.26 469.83,883.62 C470.28,884.97 470.74,885.88 470.74,885.88 C470.74,885.88 471.19,889.04 470.74,892.21 C470.28,895.38 470.74,894.02 469.83,895.38 C468.93,896.74 468.02,895.38 466.21,896.74 C464.40,898.09 463.04,897.64 461.23,898.54 C459.43,899.45 461.24,901.26 462.14,902.62 C463.04,903.97 464.85,904.88 464.85,906.24 C464.85,907.59 467.12,910.76 468.02,914.38 C468.93,918.00 470.28,920.71 470.28,920.71 C470.28,920.71 471.19,924.79 471.64,926.14 C472.09,927.50 474.35,931.12 474.81,933.38 C475.26,935.65 477.97,939.72 477.97,939.72 C477.97,939.72 479.23,953.25 479.23,953.25 C479.97,954.05 482.00,955.77 486.12,956.45 C491.55,957.36 496.98,958.27 496.97,958.26 C496.97,958.26 501.50,961.88 501.50,961.88 C501.50,961.88 506.93,969.12 506.93,969.12 C506.93,969.12 516.88,976.36 516.88,976.36 C516.88,976.36 527.74,982.69 527.74,982.69 C534.07,989.03 534.98,993.55 534.98,993.55 C534.98,993.55 534.98,1017.08 534.98,1017.08 C531.36,1024.32 531.36,1024.32 531.36,1024.32 C532.05,1023.10 532.48,1022.36 532.72,1021.94 C532.72,1021.94 532.86,1021.69 532.86,1021.69 C532.86,1021.69 532.86,1021.69 532.86,1021.69 C532.86,1021.69 532.72,1021.94 532.72,1021.94 C532.26,1022.73 531.36,1024.32 531.36,1024.32 C527.74,1030.65 526.83,1035.17 526.83,1035.17 C526.84,1051.46 526.83,1055.99 526.83,1055.99 C534.98,1067.75 538.60,1071.37 538.60,1071.37 C539.50,1076.80 535.88,1082.23 535.88,1082.23 C532.26,1091.28 530.45,1094.89 530.45,1094.89 C531.36,1103.04 531.36,1103.04 531.36,1103.04 C544.03,1110.28 535.88,1111.18 535.88,1111.18 C548.55,1114.80 556.69,1115.71 556.69,1115.71 C567.55,1111.18 572.98,1108.47 572.98,1108.47 C572.98,1108.47 572.08,1121.14 572.08,1121.14 C576.60,1135.62 578.41,1140.14 578.41,1140.14 C582.93,1152.81 582.93,1152.81 582.93,1152.81 C591.08,1158.24 597.41,1162.76 597.41,1162.76 C602.84,1170.00 602.84,1175.43 602.84,1175.43 C599.22,1186.28 598.32,1192.62 598.32,1192.62 C598.32,1196.24 620.94,1209.81 620.94,1209.81 C632.70,1214.34 637.23,1214.34 637.23,1214.34 C639.10,1213.00 640.73,1212.70 642.11,1212.93 C642.95,1210.86 643.56,1209.36 643.56,1209.36 C643.56,1209.36 650.80,1202.12 650.80,1202.12 Z" fill="white" fill-opacity="1" stroke="rgb(137, 137, 137)" stroke-width="5.00" stroke-opacity="1.00" stroke-linejoin="miter" id="중구"/>
<path d="M1083.09,434.81 C1083.09,434.81 1078.68,433.45 1078.68,433.45 C1078.68,433.45 1074.95,432.77 1073.93,431.75 C1072.91,430.74 1069.18,427.34 1068.84,425.99 C1068.50,424.63 1065.45,420.56 1065.45,419.20 C1065.45,417.84 1063.75,410.04 1063.75,410.04 C1063.75,410.04 1061.72,406.31 1060.70,405.63 C1059.68,404.95 1057.30,402.57 1055.94,401.90 C1054.59,401.22 1052.89,399.86 1051.88,399.52 C1050.86,399.18 1048.14,398.50 1046.44,397.14 C1044.75,395.79 1043.05,395.11 1041.36,393.41 C1039.66,391.72 1037.96,390.02 1036.94,387.98 C1035.93,385.95 1033.89,383.23 1033.55,382.22 C1033.21,381.20 1032.53,374.41 1032.53,374.41 C1032.53,374.41 1032.19,372.04 1032.19,372.04 C1032.19,372.04 1032.87,357.11 1032.87,357.11 C1032.87,357.11 1033.21,353.03 1032.19,353.03 C1031.17,353.03 1025.75,352.02 1024.73,351.34 C1023.71,350.66 1021.00,351.00 1019.98,350.32 C1018.96,349.64 1016.92,348.62 1014.55,350.32 C1012.17,352.02 1005.73,354.05 1004.71,354.05 C1003.69,354.05 996.56,355.41 995.55,355.07 C994.53,354.73 990.12,353.37 989.44,352.36 C988.76,351.34 986.73,350.32 985.37,349.64 C984.01,348.96 980.62,345.57 980.62,345.57 C980.62,345.57 971.80,344.21 971.80,344.21 C971.80,344.21 965.01,342.51 963.65,342.85 C962.29,343.19 960.94,342.85 958.56,342.52 C956.19,342.18 948.04,343.19 947.02,342.85 C946.01,342.52 940.92,342.52 940.92,342.52 C940.92,342.52 938.54,349.98 938.54,349.98 C938.54,349.98 937.52,353.37 937.52,356.09 C937.52,358.80 935.15,371.70 934.81,372.71 C934.47,373.73 933.11,376.79 933.11,377.81 C933.11,378.82 930.74,384.59 930.40,387.31 C930.06,390.02 928.36,393.41 928.36,393.41 C928.36,393.41 924.63,400.54 924.29,399.52 C923.95,398.50 920.22,400.20 920.22,400.20 C920.22,400.20 912.75,400.42 912.75,400.42 C912.75,400.42 905.97,399.07 905.97,399.07 C905.97,399.07 899.18,399.07 899.18,399.07 C899.18,399.07 896.92,394.09 896.01,392.73 C895.11,391.38 893.30,386.85 893.30,386.85 C893.30,386.85 887.87,376.00 887.87,376.00 C887.87,376.00 884.70,370.56 884.70,370.56 C884.70,370.56 882.89,364.68 883.35,361.52 C883.80,358.35 882.89,351.11 882.89,351.11 C882.89,351.11 880.63,341.16 879.73,339.80 C878.82,338.44 873.39,329.85 872.94,328.49 C872.49,327.13 869.77,323.51 869.32,322.16 C868.87,320.80 865.25,313.56 864.80,312.20 C864.35,310.84 862.99,307.68 862.99,306.32 C862.99,304.96 860.27,295.91 860.27,295.91 C860.27,295.91 861.18,288.68 862.99,285.51 C864.80,282.34 866.61,277.82 867.51,276.01 C867.84,275.35 868.58,274.16 869.47,272.82 C869.47,272.82 863.21,271.26 863.21,271.26 C863.21,271.26 854.39,276.69 854.39,276.69 C854.39,276.69 849.64,284.15 849.64,284.15 C849.64,284.15 842.86,294.33 841.50,296.37 C840.14,298.40 833.35,305.87 833.35,305.87 C833.35,305.87 831.32,314.01 830.64,316.73 C829.96,319.44 828.60,322.83 827.24,324.87 C825.89,326.91 824.53,333.69 824.53,333.69 C824.53,333.69 821.82,339.80 821.14,342.51 C820.46,345.23 817.74,349.30 817.74,349.30 C817.74,349.30 815.71,354.73 815.71,354.73 C815.71,354.73 808.92,354.05 808.92,354.05 C808.92,354.05 806.88,358.12 806.21,360.16 C805.53,362.19 804.17,371.69 804.17,371.69 C804.17,371.69 798.74,379.16 798.74,379.16 C798.74,379.16 791.28,387.98 791.28,387.98 C791.28,387.98 787.20,394.77 787.20,394.77 C787.20,394.77 783.81,398.84 783.81,398.84 C783.81,398.84 776.34,404.95 776.34,404.95 C776.34,404.95 766.84,411.06 766.84,411.06 C766.84,411.06 758.02,418.07 758.02,418.07 C758.02,418.07 754.86,423.05 754.86,423.05 C754.86,423.05 749.43,428.02 748.07,429.38 C746.71,430.74 747.62,434.36 747.16,435.71 C746.71,437.07 746.71,441.14 745.81,442.50 C744.90,443.86 744.45,449.29 743.55,452.45 C742.64,455.62 746.26,475.98 746.26,475.98 C746.26,475.98 748.52,482.31 748.52,482.31 C748.52,482.31 744.90,495.88 744.90,495.88 C744.90,495.88 739.02,506.74 737.66,508.10 C736.31,509.46 734.50,511.27 734.50,511.27 C734.50,511.27 737.21,515.34 737.21,515.34 C737.21,515.34 738.12,520.77 738.12,520.77 C738.12,520.77 744.45,526.20 744.45,526.20 C744.45,526.20 747.62,537.06 747.62,537.06 C747.62,537.06 758.93,556.96 758.93,556.96 C758.93,556.96 760.74,558.77 760.74,558.77 C760.74,558.77 764.36,562.85 764.36,562.85 C764.36,562.85 774.31,584.11 774.31,585.47 C774.31,586.82 776.12,587.27 776.57,588.63 C777.03,589.99 780.19,590.89 780.19,590.89 C780.19,590.89 785.17,591.80 785.17,593.61 C785.17,595.42 785.62,600.39 784.72,604.47 C783.82,608.54 783.81,610.80 783.36,614.42 C782.91,618.04 781.10,624.83 781.10,626.18 C781.10,627.54 777.48,633.42 777.48,633.42 C777.48,633.42 774.76,632.52 774.76,632.52 C774.76,632.52 771.15,631.16 769.79,630.25 C768.43,629.35 764.36,628.44 764.36,628.44 C764.36,628.44 759.83,626.18 759.83,626.18 C759.83,626.18 745.36,623.02 745.36,623.02 C745.36,623.02 745.81,620.30 745.81,620.30 C745.81,620.30 719.12,620.75 719.12,620.75 C719.12,620.75 717.76,626.63 717.76,626.63 C717.76,626.63 715.50,632.97 715.50,632.97 C715.50,632.97 703.73,629.35 703.73,629.35 C703.73,629.35 703.73,625.73 704.19,623.47 C704.64,621.20 703.73,620.30 702.83,618.49 C701.92,616.68 701.02,613.97 699.66,610.80 C698.31,607.63 697.85,608.08 697.40,605.37 C696.95,602.66 694.23,599.94 694.23,599.94 C694.23,599.94 688.80,592.70 687.00,591.80 C685.19,590.89 684.28,591.80 682.92,592.25 C681.57,592.70 675.23,599.49 675.23,599.49 C675.23,599.49 673.42,599.49 671.16,599.49 C668.90,599.49 666.64,599.94 666.64,599.94 C666.64,599.94 664.37,604.01 663.02,605.37 C661.66,606.73 661.21,611.70 661.21,611.70 C661.21,611.70 658.94,614.42 658.94,614.42 C658.94,614.42 658.94,621.20 658.94,621.20 C658.94,621.20 659.85,623.92 658.04,627.54 C656.23,631.16 658.04,627.54 656.23,629.35 C654.42,631.16 653.51,630.25 651.25,632.06 C648.99,633.87 648.09,634.32 644.92,636.13 C641.75,637.94 641.30,638.39 639.94,638.85 C638.58,639.30 635.42,641.56 633.16,642.92 C630.89,644.28 631.35,645.18 629.99,646.54 C628.63,647.89 629.09,649.25 629.08,650.61 C629.09,651.97 629.09,652.42 630.44,653.32 C631.80,654.23 632.25,655.14 633.61,656.04 C634.97,656.94 635.42,657.40 637.23,657.85 C639.04,658.30 639.49,660.11 640.85,662.38 C640.85,662.38 641.04,662.66 641.04,662.66 C642.18,663.18 643.11,663.73 643.11,663.73 C643.11,663.73 642.29,664.51 641.04,662.66 C640.40,662.37 639.69,662.09 639.03,661.92 C637.23,661.47 636.32,661.02 634.51,660.11 C632.70,659.21 630.89,658.30 629.08,657.40 C627.27,656.49 626.82,658.30 625.01,657.85 C623.20,657.40 620.49,658.75 618.68,658.75 C616.87,658.75 616.87,659.66 614.61,660.57 C612.34,661.47 613.25,662.83 613.25,662.83 C613.25,662.83 612.85,665.35 612.85,665.35 C613.92,666.99 614.61,668.71 614.61,668.71 C614.61,668.71 617.32,672.78 618.68,674.14 C620.04,675.49 621.40,676.40 622.75,677.30 C624.11,678.21 625.92,679.11 628.18,679.11 C630.44,679.11 633.16,683.18 633.16,683.18 C633.16,683.18 636.32,688.16 636.32,688.16 C636.32,688.16 640.85,694.50 640.85,694.50 C640.85,694.50 646.73,700.83 647.18,702.19 C647.64,703.54 654.42,709.88 654.42,709.88 C654.42,709.88 661.66,716.66 661.66,716.66 C661.66,716.66 672.07,731.59 673.42,732.95 C674.78,734.31 677.04,738.38 677.04,738.38 C677.04,738.38 687.79,756.14 687.79,756.14 C687.79,756.14 691.86,764.62 691.86,764.62 C691.86,764.62 695.59,773.78 695.93,774.80 C696.27,775.82 698.31,783.28 698.64,784.64 C698.98,786.00 700.68,788.71 700.68,788.71 C700.68,788.71 705.43,792.44 705.43,792.44 C705.43,792.44 710.18,792.78 711.88,793.80 C713.57,794.82 719.68,795.50 720.70,795.84 C721.72,796.18 725.11,798.89 725.11,798.89 C725.11,798.89 727.49,802.62 727.49,802.62 C727.49,802.62 729.86,808.39 730.54,809.75 C730.54,809.75 732.58,813.82 732.91,815.86 C733.25,817.89 735.29,819.25 736.31,820.61 C737.33,821.96 739.02,824.68 739.70,825.70 C740.38,826.71 746.71,831.12 746.71,831.12 C746.71,831.12 751.24,834.75 751.24,834.75 C751.24,834.75 753.50,840.17 753.50,840.17 C753.50,840.17 754.86,849.00 754.86,849.00 C754.86,849.00 756.44,857.59 756.67,858.27 C756.90,858.95 761.87,868.45 760.74,868.68 C759.61,868.90 756.44,868.90 755.08,868.90 C753.73,868.90 751.24,866.41 751.24,866.41 C751.24,866.41 747.62,865.96 747.62,865.96 C747.62,865.96 741.29,863.25 739.93,863.25 C738.57,863.25 735.41,863.25 735.41,863.25 C735.41,863.25 731.79,868.22 731.79,868.22 C731.79,868.22 729.07,872.75 729.07,872.75 C729.07,872.75 724.09,865.06 723.19,863.25 C722.29,861.44 723.19,857.82 723.19,856.46 C723.19,855.10 722.28,851.03 722.28,851.03 C722.28,851.03 682.47,873.20 681.12,874.10 C679.76,875.01 676.59,875.01 676.59,875.01 C676.59,875.01 669.35,873.65 669.35,873.65 C669.35,873.65 658.50,872.29 658.50,872.29 C658.50,872.29 658.50,884.51 658.95,885.87 C659.40,887.22 660.76,887.68 660.76,887.68 C660.76,887.68 665.73,890.39 667.09,891.75 C668.45,893.11 674.78,905.32 674.78,905.32 C674.78,905.32 676.59,908.94 676.59,908.94 C676.59,908.94 678.40,914.37 678.40,917.08 C678.40,919.80 677.50,919.35 677.04,921.16 C676.59,922.96 675.23,924.32 675.23,924.32 C675.23,924.32 675.23,928.40 676.14,931.11 C677.04,933.83 679.76,934.73 680.66,936.99 C681.57,939.25 682.93,936.99 682.92,936.99 C682.92,936.99 686.54,938.80 686.54,938.80 C686.54,938.80 691.97,946.04 691.97,947.40 C691.97,948.75 698.31,959.16 698.31,959.16 C698.31,959.16 696.50,963.69 696.50,963.69 C696.50,963.69 673.42,989.47 672.52,990.83 C671.61,992.19 669.80,993.09 668.45,992.64 C667.09,992.19 666.64,992.19 665.73,995.36 C664.83,998.52 666.64,997.17 667.09,998.98 C667.54,1000.79 666.64,1003.50 667.09,1006.67 C667.54,1009.83 666.64,1010.74 666.64,1012.09 C666.64,1013.45 664.83,1014.36 663.47,1017.07 C662.11,1019.79 661.21,1019.79 660.76,1021.60 C660.76,1021.60 663.47,1023.86 663.47,1023.86 C663.47,1023.86 678.85,1025.22 678.85,1025.22 C678.85,1025.22 683.38,1027.03 683.38,1027.03 C683.38,1027.03 685.64,1032.00 685.64,1032.00 C685.64,1032.00 686.54,1041.96 686.54,1041.96 C686.54,1041.96 691.07,1047.84 691.97,1049.65 C692.88,1051.46 696.95,1056.43 696.95,1056.43 C696.95,1056.43 700.57,1061.86 700.57,1061.86 C700.57,1061.86 707.35,1062.32 707.35,1062.32 C707.35,1062.32 707.81,1084.03 707.81,1084.03 C707.81,1084.03 710.52,1088.10 710.52,1088.10 C710.52,1088.10 707.81,1089.46 707.81,1089.46 C707.81,1089.46 701.47,1091.72 700.12,1092.17 C698.76,1092.63 693.33,1096.25 693.33,1096.25 C693.33,1096.25 693.33,1112.53 693.33,1112.53 C693.33,1112.53 690.62,1116.15 690.62,1116.15 C690.62,1116.15 687.00,1121.13 686.09,1123.39 C685.19,1125.65 682.92,1126.56 681.11,1129.72 C679.30,1132.89 679.76,1132.89 678.40,1133.34 C677.04,1133.80 673.42,1134.70 672.07,1134.25 C670.71,1133.80 667.09,1130.63 667.09,1130.63 C667.09,1130.63 662.56,1125.65 659.85,1126.11 C657.13,1126.56 657.13,1125.20 655.32,1126.11 C653.51,1127.01 651.25,1127.46 649.45,1128.37 C647.63,1129.27 647.63,1133.80 647.63,1133.80 C647.63,1133.80 649.90,1138.32 649.90,1138.32 C649.90,1138.32 652.16,1137.87 652.16,1137.87 C652.16,1137.87 654.87,1140.58 655.32,1141.94 C655.78,1143.30 655.32,1146.46 655.78,1148.27 C656.23,1150.09 656.23,1157.78 656.23,1157.78 C656.23,1157.78 658.04,1169.09 658.04,1169.09 C658.04,1169.09 655.78,1172.71 654.42,1174.06 C653.07,1175.42 653.07,1177.68 650.80,1180.40 C648.54,1183.11 648.54,1185.37 648.54,1185.37 C648.54,1185.37 650.80,1188.09 650.80,1188.09 C650.80,1188.09 653.52,1191.71 653.52,1191.71 C653.52,1191.71 655.78,1197.14 654.42,1198.04 C653.07,1198.94 650.80,1202.11 650.80,1202.11 C650.80,1202.11 643.56,1209.35 643.56,1209.35 C643.56,1209.35 642.96,1210.85 642.12,1212.93 C645.39,1213.47 647.18,1217.04 647.18,1217.04 C650.80,1221.57 655.33,1223.38 655.33,1223.38 C668.90,1226.09 671.62,1229.71 671.62,1229.71 C677.95,1239.67 678.85,1245.09 678.86,1245.10 C678.86,1245.10 704.19,1264.10 704.19,1264.10 C713.24,1267.71 733.14,1255.95 735.86,1253.24 C738.57,1250.52 734.05,1254.14 738.57,1250.52 C743.10,1246.90 738.57,1253.24 743.10,1246.90 C747.62,1240.57 744.91,1243.28 747.62,1240.57 C750.34,1237.86 750.34,1234.24 750.34,1230.62 C750.34,1227.00 750.34,1220.66 750.34,1220.66 C750.34,1220.66 750.34,1216.14 750.34,1216.14 C750.34,1216.14 761.19,1209.81 761.19,1209.81 C761.19,1209.81 765.72,1204.38 765.72,1204.38 C765.72,1204.38 766.62,1195.33 767.53,1192.62 C768.43,1189.90 763.91,1192.61 768.43,1189.90 C772.96,1187.18 782.91,1185.38 782.91,1185.38 C782.91,1185.38 785.63,1186.28 788.34,1185.38 C791.06,1184.47 793.77,1185.38 795.58,1181.76 C797.39,1178.14 798.29,1181.75 797.39,1178.14 C796.48,1174.52 791.06,1171.80 791.06,1171.80 C791.06,1162.75 791.06,1153.70 791.06,1153.70 C791.06,1153.70 791.06,1150.09 791.06,1150.09 C791.06,1150.09 803.72,1146.47 806.44,1145.56 C809.15,1144.66 814.58,1141.04 817.29,1140.13 C820.01,1139.23 824.53,1138.32 824.53,1135.61 C824.53,1132.89 822.72,1139.23 824.53,1132.89 C826.34,1126.56 826.34,1126.56 826.34,1126.56 C826.34,1126.56 830.87,1119.32 833.58,1118.42 C836.30,1117.51 842.63,1114.80 846.25,1113.89 C849.87,1112.99 853.49,1111.18 853.49,1111.18 C856.20,1112.99 851.68,1113.89 856.20,1112.99 C860.73,1112.08 863.44,1110.27 863.44,1107.56 C863.44,1104.84 865.25,1104.85 864.35,1101.23 C863.44,1097.60 862.54,1093.99 862.54,1093.99 C862.54,1093.99 862.54,1091.27 866.16,1090.37 C869.77,1089.46 869.77,1089.46 869.77,1089.46 C869.77,1089.46 872.49,1082.22 872.49,1082.22 C872.49,1082.22 873.39,1069.56 873.39,1066.84 C873.39,1064.13 867.96,1059.60 867.96,1059.60 C867.96,1059.60 864.35,1062.32 862.54,1055.98 C860.73,1049.65 858.92,1039.70 858.92,1039.70 C858.92,1039.70 856.20,1034.27 858.01,1030.65 C859.82,1027.03 863.44,1022.50 863.44,1022.50 C863.44,1022.50 865.25,1017.98 864.34,1015.27 C863.44,1012.55 865.25,1005.31 862.54,1005.31 C859.82,1005.31 855.30,1003.50 855.30,1003.50 C851.68,998.98 852.58,993.55 852.58,993.55 C852.58,993.55 856.20,989.93 856.20,987.21 C856.20,984.50 855.30,983.59 856.20,979.98 C857.11,976.36 853.49,981.79 857.11,976.36 C860.73,970.93 858.01,975.45 860.72,970.93 C863.44,966.40 862.54,971.83 863.44,966.40 C864.34,960.97 861.63,954.64 861.63,951.02 C861.63,947.40 871.58,935.64 871.58,935.64 C871.58,935.64 880.63,927.50 880.63,927.50 C880.63,927.50 886.06,922.07 886.06,922.07 C886.06,922.07 890.58,915.73 890.58,915.73 C890.58,915.73 889.68,906.68 889.68,906.68 C889.68,906.68 884.25,886.78 884.25,886.78 C884.25,886.78 878.82,875.01 878.82,875.01 C878.82,875.01 874.30,863.25 873.39,859.63 C872.49,856.01 868.87,851.49 868.87,851.49 C868.87,851.49 869.77,841.53 869.77,841.53 C869.77,841.53 878.82,839.72 878.82,839.72 C878.82,839.72 883.34,838.82 883.34,838.82 C883.34,838.82 884.25,838.82 886.96,834.30 C889.68,829.77 890.59,827.96 891.49,825.25 C892.39,822.53 892.39,818.01 892.39,818.01 C892.39,818.01 892.39,810.77 892.39,810.77 C892.39,810.77 882.44,797.20 882.44,797.20 C882.44,797.20 877.01,794.48 878.82,790.86 C880.63,787.24 875.20,790.86 880.63,787.24 C886.06,783.62 887.87,780.00 887.87,780.00 C887.87,780.00 890.36,776.84 890.36,776.84 C890.36,776.84 889.68,766.66 889.68,766.66 C889.68,766.66 890.36,760.55 890.36,760.55 C890.36,760.55 897.14,750.37 897.14,750.37 C897.14,750.37 900.54,743.58 902.57,740.87 C904.61,738.15 908.00,733.40 908.00,733.40 C908.00,733.40 903.25,725.94 903.25,725.94 C903.25,725.94 901.89,723.90 901.89,718.47 C901.89,713.04 901.22,705.58 900.54,703.54 C899.86,701.51 899.18,692.68 899.18,690.65 C899.18,688.61 898.50,681.15 899.18,679.11 C899.86,677.08 907.32,670.97 907.32,670.97 C907.32,670.97 910.04,668.93 912.75,666.90 C915.47,664.86 919.54,664.86 920.22,661.47 C920.90,658.07 923.61,654.68 922.93,652.65 C922.26,650.61 922.25,650.61 922.25,650.61 C922.25,650.61 928.36,650.61 932.43,648.57 C936.51,646.54 937.87,645.86 939.90,645.86 C941.94,645.86 946.01,643.14 950.76,639.07 C955.51,635.00 950.76,639.07 955.51,635.00 C960.26,630.93 964.33,624.82 964.33,624.82 C964.33,624.82 969.76,611.93 969.76,611.93 C969.76,611.93 971.80,598.35 971.80,598.35 C971.80,598.35 973.83,592.25 974.51,588.17 C975.19,584.10 976.55,582.07 976.55,578.67 C976.55,575.28 975.19,571.21 975.19,571.21 C975.19,571.21 975.19,567.81 975.19,567.81 C975.19,567.81 981.98,561.03 981.98,561.03 C981.98,561.03 984.01,556.28 983.33,553.56 C982.65,550.85 980.62,543.38 980.62,543.38 C980.62,543.38 978.58,537.28 977.90,535.24 C977.22,533.20 975.87,530.49 975.87,530.49 C975.87,530.49 975.87,528.45 977.22,526.42 C978.58,524.38 978.58,524.38 978.58,524.38 C978.58,524.38 977.90,514.88 977.90,511.49 C977.90,508.10 977.90,493.17 977.90,493.17 C977.90,493.17 977.90,482.99 977.90,482.99 C977.90,482.99 984.69,480.95 987.40,478.24 C990.12,475.52 986.05,481.63 990.12,475.52 C994.19,469.41 994.19,469.41 994.19,469.41 C994.19,469.41 998.26,471.45 998.26,471.45 C1000.97,470.77 1018.62,449.73 1020.65,449.06 C1022.69,448.38 1025.40,444.98 1025.40,444.98 C1025.40,444.98 1030.16,445.66 1032.19,447.02 C1034.23,448.38 1036.94,448.38 1039.65,449.06 C1042.37,449.73 1052.55,448.38 1052.55,448.38 C1052.55,448.38 1059.00,450.75 1060.01,450.41 C1061.03,450.07 1064.77,451.09 1066.12,452.11 C1067.48,453.13 1068.84,452.79 1069.52,453.81 C1070.19,454.82 1078.68,450.07 1079.70,449.06 C1080.71,448.04 1085.47,442.61 1086.48,441.93 C1087.50,441.25 1087.50,439.89 1087.84,438.54 C1088.18,437.18 1083.09,434.81 1083.09,434.81 Z" fill="white" fill-opacity="1" stroke="rgb(137, 137, 137)" stroke-width="5.00" stroke-opacity="1.00" stroke-linejoin="miter" id="동구"/>
<path d="M564.84,219.00 C564.84,219.00 556.70,222.62 556.70,222.62 C556.70,222.62 551.27,226.24 547.65,227.15 C544.03,228.05 541.31,231.67 541.31,231.67 C541.31,231.67 537.70,236.19 536.79,238.91 C535.89,241.62 534.08,244.34 533.17,247.05 C532.26,249.77 531.36,254.29 531.36,254.29 C531.36,254.29 532.27,260.62 532.26,263.34 C532.27,266.05 534.07,271.48 534.07,271.48 C534.07,271.48 538.60,275.10 539.50,277.82 C540.41,280.53 544.03,280.53 544.03,280.53 C544.03,280.53 547.65,284.15 547.65,284.15 C547.65,284.15 549.46,288.68 549.46,288.68 C549.46,288.68 554.89,295.01 554.89,295.01 C554.89,295.01 561.22,300.44 561.22,300.44 C561.22,300.44 570.27,308.58 570.27,308.58 C570.27,308.58 573.89,312.20 574.79,314.92 C575.70,317.63 582.94,320.34 585.65,323.06 C588.36,325.78 593.79,328.49 593.79,328.49 C593.79,328.49 607.37,333.92 607.37,333.92 C607.37,333.92 613.70,340.25 613.70,340.25 C613.70,340.25 617.32,345.68 617.32,345.68 C617.32,345.68 620.94,352.01 620.94,352.01 C620.94,352.01 623.65,355.63 624.56,358.35 C625.46,361.06 629.08,366.49 629.99,369.21 C630.89,371.92 634.51,380.06 634.51,380.06 C634.51,380.06 633.61,385.49 629.99,390.92 C626.37,396.35 629.99,390.92 628.18,393.64 C626.37,396.35 626.37,399.07 626.37,399.07 C626.37,399.07 624.56,407.21 624.56,407.21 C624.56,407.21 620.94,411.73 620.94,411.73 C620.94,411.73 617.32,416.26 617.32,416.26 C617.32,416.26 612.80,422.59 612.80,422.59 C612.80,422.59 610.98,428.02 610.99,430.73 C610.98,433.45 610.98,437.07 610.08,442.50 C609.17,447.93 610.08,442.50 605.56,448.83 C605.56,448.83 603.75,461.50 603.75,461.50 C603.75,461.50 605.56,489.55 605.56,489.55 C605.56,489.55 606.46,501.31 606.46,504.93 C606.46,508.55 605.56,511.27 604.65,513.98 C603.75,516.69 598.32,522.12 598.32,522.12 C598.32,522.12 598.32,522.12 595.60,524.84 C592.89,527.55 591.08,528.46 591.08,528.46 C591.08,528.46 584.75,530.27 584.75,530.27 C584.75,530.27 585.65,526.65 577.50,531.17 C577.50,531.17 569.36,537.50 569.36,537.50 C569.36,537.50 558.50,542.03 558.50,542.03 C558.50,542.03 553.07,542.03 547.65,543.84 C542.22,545.65 547.65,543.84 544.93,545.65 C542.95,546.97 543.38,548.77 543.75,549.65 C543.75,549.65 543.75,549.65 543.75,549.65 C543.89,549.97 544.03,550.17 544.03,550.17 C544.03,550.17 547.65,552.89 547.65,552.89 C547.65,552.89 550.36,559.22 553.07,561.03 C555.79,562.84 557.60,569.18 557.60,569.18 C557.60,569.18 557.60,569.18 556.69,571.89 C555.79,574.61 562.12,579.13 562.12,579.13 C562.12,579.13 562.12,579.13 563.93,581.84 C565.74,584.56 567.55,587.27 567.55,587.27 C567.55,587.27 572.08,590.89 572.08,590.89 C572.08,590.89 572.98,594.51 573.89,598.13 C574.79,601.75 575.70,603.56 576.60,606.27 C577.50,608.99 577.50,613.51 577.50,613.51 C577.50,613.51 577.50,613.51 577.50,616.23 C577.50,618.94 579.32,621.66 579.32,621.66 C579.32,621.66 580.67,632.97 580.67,632.97 C580.67,632.97 580.67,637.04 581.13,639.76 C581.13,639.76 584.29,640.21 586.10,640.66 C587.91,641.11 590.17,641.11 591.53,641.56 C592.89,642.02 598.77,644.28 598.77,644.28 C598.77,644.28 604.20,650.61 604.65,651.97 C605.10,653.33 608.27,656.95 609.18,658.75 C610.08,660.57 610.99,662.83 612.34,664.64 C612.34,664.64 612.68,665.11 612.84,665.35 C612.84,665.35 613.25,662.83 613.25,662.83 C613.25,662.83 612.34,661.47 614.60,660.57 C616.87,659.66 616.87,658.76 618.67,658.76 C620.49,658.76 623.20,657.40 625.01,657.85 C626.82,658.31 627.27,656.49 629.08,657.40 C630.89,658.30 632.70,659.21 634.51,660.11 C636.32,661.02 637.22,661.47 639.03,661.92 C639.69,662.09 640.40,662.37 641.04,662.66 C641.04,662.66 640.84,662.38 640.84,662.38 C639.49,660.11 639.03,658.31 637.23,657.85 C635.42,657.40 634.96,656.95 633.61,656.04 C632.25,655.14 631.79,654.23 630.44,653.33 C629.08,652.42 629.08,651.97 629.08,650.61 C629.08,649.26 628.63,647.90 629.99,646.54 C631.34,645.18 630.89,644.28 633.15,642.92 C635.42,641.56 638.58,639.30 639.94,638.85 C641.30,638.40 641.75,637.95 644.92,636.13 C648.08,634.32 648.99,633.87 651.25,632.06 C653.51,630.25 654.42,631.16 656.23,629.35 C658.04,627.54 656.23,631.16 658.04,627.54 C659.85,623.92 658.94,621.21 658.94,621.21 C658.94,621.21 658.94,614.42 658.94,614.42 C658.94,614.42 661.20,611.71 661.20,611.71 C661.20,611.71 661.66,606.73 663.02,605.37 C664.37,604.01 666.63,599.94 666.63,599.94 C666.63,599.94 668.90,599.49 671.16,599.49 C673.42,599.49 675.23,599.49 675.23,599.49 C675.23,599.49 681.56,592.70 682.92,592.25 C684.28,591.80 685.18,590.90 686.99,591.80 C688.80,592.70 694.23,599.94 694.23,599.94 C694.23,599.94 696.94,602.66 697.40,605.37 C697.85,608.09 698.30,607.64 699.66,610.80 C701.02,613.97 701.92,616.68 702.83,618.49 C703.73,620.30 704.64,621.21 704.18,623.47 C703.73,625.73 703.73,629.35 703.73,629.35 C703.73,629.35 715.50,632.97 715.50,632.97 C715.50,632.97 717.76,626.64 717.76,626.64 C717.76,626.64 719.11,620.75 719.11,620.75 C719.11,620.75 745.81,620.30 745.81,620.30 C745.81,620.30 745.36,623.02 745.36,623.02 C745.36,623.02 759.83,626.18 759.83,626.18 C759.83,626.18 764.36,628.45 764.36,628.45 C764.36,628.45 768.43,629.35 769.79,630.26 C771.14,631.16 774.76,632.52 774.76,632.52 C774.76,632.52 777.48,633.42 777.48,633.42 C777.48,633.42 781.10,627.54 781.10,626.18 C781.10,624.83 782.91,618.04 783.36,614.42 C783.81,610.80 783.81,608.54 784.72,604.47 C785.62,600.40 785.17,595.42 785.17,593.61 C785.17,591.80 780.19,590.90 780.19,590.90 C780.19,590.90 777.03,589.99 776.57,588.63 C776.12,587.28 774.31,586.83 774.31,585.47 C774.31,584.11 764.36,562.85 764.36,562.85 C764.36,562.85 760.74,558.77 760.74,558.77 C760.74,558.77 758.93,556.96 758.93,556.96 C758.93,556.96 747.62,537.06 747.62,537.06 C747.62,537.06 744.45,526.20 744.45,526.20 C744.45,526.20 738.12,520.77 738.12,520.77 C738.12,520.77 737.21,515.34 737.21,515.34 C737.21,515.34 734.50,511.27 734.50,511.27 C734.50,511.27 736.31,509.46 737.66,508.10 C739.02,506.75 744.90,495.89 744.90,495.89 C744.90,495.89 748.52,482.31 748.52,482.31 C748.52,482.31 746.26,475.98 746.26,475.98 C746.26,475.98 742.64,455.62 743.54,452.45 C744.45,449.29 744.90,443.86 745.81,442.50 C746.71,441.15 746.71,437.07 747.16,435.71 C747.61,434.36 746.71,430.74 748.07,429.38 C749.42,428.02 754.85,423.05 754.85,423.05 C754.85,423.05 758.02,418.07 758.02,418.07 C758.02,418.07 766.84,411.06 766.84,411.06 C766.84,411.06 776.34,404.95 776.34,404.95 C776.34,404.95 783.81,398.84 783.81,398.84 C783.81,398.84 787.20,394.77 787.20,394.77 C787.20,394.77 791.27,387.98 791.27,387.98 C791.27,387.98 798.74,379.16 798.74,379.16 C798.74,379.16 804.17,371.70 804.17,371.70 C804.17,371.70 805.53,362.20 806.20,360.16 C806.88,358.12 808.92,354.05 808.92,354.05 C808.92,354.05 815.70,354.73 815.70,354.73 C815.70,354.73 817.74,349.30 817.74,349.30 C817.74,349.30 820.46,345.23 821.13,342.52 C821.81,339.80 824.53,333.69 824.53,333.69 C824.53,333.69 825.89,326.91 827.24,324.87 C828.60,322.84 829.96,319.44 830.64,316.73 C831.31,314.01 833.35,305.87 833.35,305.87 C833.35,305.87 840.14,298.41 841.50,296.37 C842.85,294.33 849.64,284.15 849.64,284.15 C849.64,284.15 854.39,276.69 854.39,276.69 C854.39,276.69 863.21,271.26 863.21,271.26 C863.21,271.26 869.46,272.82 869.46,272.82 C871.01,270.47 872.98,267.66 873.84,266.51 C875.20,264.70 881.08,255.20 881.08,255.20 C881.08,255.20 885.61,250.68 887.87,248.41 C890.13,246.15 888.77,247.51 892.39,244.79 C896.01,242.08 898.27,240.72 900.54,238.91 C902.80,237.10 904.61,235.75 906.42,233.03 C908.23,230.32 907.32,225.34 907.77,223.98 C908.23,222.62 906.87,219.46 906.42,217.65 C905.97,215.84 903.25,209.96 903.25,209.96 C903.25,209.96 894.20,209.05 894.20,209.05 C894.20,209.05 886.06,209.96 886.06,209.96 C886.06,209.96 877.91,210.86 877.91,210.86 C877.91,210.86 870.68,214.48 870.68,214.48 C870.68,214.48 863.89,218.55 863.89,218.55 C863.89,218.55 857.10,219.00 857.10,219.00 C857.10,219.00 846.24,219.01 844.89,219.00 C843.53,219.01 837.65,216.74 836.29,215.38 C834.94,214.03 834.03,213.12 832.22,211.31 C830.41,209.50 827.24,209.05 826.34,206.34 C825.43,203.62 821.36,201.36 820.91,199.55 C820.46,197.74 818.19,193.67 819.10,191.41 C820.00,189.14 819.10,186.43 820.46,184.17 C821.81,181.91 821.81,179.64 823.17,177.38 C824.53,175.12 825.43,172.86 826.79,170.59 C828.15,168.33 828.60,168.33 830.86,164.26 C833.12,160.19 834.93,157.93 835.84,156.12 C836.74,154.31 837.19,152.50 838.10,149.33 C839.00,146.16 843.53,133.04 843.53,133.04 C843.53,133.04 843.53,128.52 842.17,127.61 C840.81,126.71 839.46,124.90 837.19,124.00 C834.93,123.09 831.76,119.92 829.96,119.47 C828.15,119.02 827.24,117.66 824.08,119.02 C820.91,120.38 818.19,123.09 815.93,124.00 C813.67,124.90 808.69,128.07 806.88,129.42 C805.07,130.78 800.10,134.85 800.10,134.85 C800.10,134.85 799.19,133.04 795.57,136.66 C791.95,140.28 789.24,143.45 787.88,146.16 C786.53,148.88 783.81,152.05 782.45,154.31 C781.09,156.57 779.28,160.64 777.48,163.81 C775.66,166.98 773.40,175.57 772.95,178.29 C772.50,181.00 772.50,200.45 772.50,200.45 C772.50,200.45 770.69,206.34 769.33,207.24 C767.97,208.15 766.62,210.86 764.81,212.22 C763.00,213.58 759.83,218.55 758.02,219.46 C756.21,220.36 753.50,222.62 749.88,224.43 C746.26,226.24 744.00,228.51 742.19,229.41 C740.38,230.31 741.73,229.86 737.66,231.22 C733.59,232.58 736.31,231.67 730.42,232.58 C724.54,233.48 722.28,233.48 720.92,233.03 C719.57,232.58 716.85,233.48 715.50,232.58 C714.14,231.67 706.90,228.51 706.90,228.50 C706.90,228.50 700.11,220.81 700.11,220.81 C700.11,220.81 694.23,216.74 693.33,214.93 C692.42,213.12 689.71,212.22 688.80,210.86 C687.90,209.50 688.35,208.15 686.09,207.69 C683.82,207.24 681.56,205.43 680.21,205.43 C678.85,205.43 678.39,204.53 675.23,204.53 C672.06,204.53 656.23,205.88 656.23,205.88 C656.23,205.88 641.75,209.96 641.75,209.96 C641.75,209.96 634.06,212.67 634.06,212.67 C634.06,212.67 620.03,213.57 620.03,213.57 C620.03,213.57 610.08,213.57 610.08,213.57 C610.08,213.57 601.03,209.96 601.03,209.96 C601.03,209.96 596.51,209.96 591.99,209.96 C587.46,209.96 584.75,209.96 582.03,209.96 C579.31,209.96 573.89,209.96 572.98,207.24 C572.98,207.24 572.77,206.65 572.77,206.65 C571.64,208.35 570.27,210.40 569.36,211.77 C567.56,214.48 564.84,219.00 564.84,219.00 Z" fill="white" fill-opacity="1" stroke="rgb(137, 137, 137)" stroke-width="5.00" stroke-opacity="1.00" stroke-linejoin="miter" id="대덕구"/>
<path d="M473.81,933.38 C473.36,931.12 471.10,927.50 470.64,926.14 C470.19,924.78 469.29,920.71 469.29,920.71 C469.29,920.71 467.93,918.00 467.02,914.38 C466.12,910.76 463.86,907.59 463.86,906.23 C463.86,904.88 462.05,903.97 461.14,902.61 C460.24,901.26 458.43,899.45 460.24,898.54 C462.05,897.64 463.41,898.09 465.21,896.73 C467.03,895.38 467.93,896.73 468.83,895.38 C469.74,894.02 469.29,895.38 469.74,892.21 C470.19,889.04 469.74,885.88 469.74,885.88 C469.74,885.88 469.29,884.97 468.83,883.61 C468.38,882.26 468.38,884.52 468.38,882.25 C468.38,879.99 468.38,879.99 473.36,877.28 C478.33,874.57 477.88,871.85 478.79,870.49 C479.69,869.14 481.05,867.32 481.05,867.32 C481.05,867.32 481.50,866.87 485.12,866.87 C488.74,866.87 491.46,868.68 494.17,868.23 C496.89,867.78 503.67,860.54 504.12,859.18 C504.58,857.82 506.84,853.75 508.19,850.58 C509.55,847.42 510.00,845.16 510.00,843.80 C510.00,842.44 509.55,837.92 508.65,835.20 C507.74,832.49 506.39,830.68 505.93,828.87 C505.48,827.06 503.67,823.44 503.67,821.63 C503.67,819.82 501.86,820.27 504.57,817.11 C507.29,813.94 506.84,815.75 510.00,813.49 C513.17,811.23 515.88,807.61 515.88,807.61 C515.88,807.61 515.43,805.80 515.43,804.44 C515.43,803.08 515.89,803.08 518.15,799.91 C520.41,796.75 524.93,791.32 524.93,791.32 C524.93,791.32 525.84,788.60 525.84,788.60 C525.84,788.60 519.05,777.29 519.05,777.29 C519.05,777.29 516.79,771.41 516.34,770.05 C515.88,768.70 513.62,767.34 515.43,763.72 C517.24,760.10 519.05,754.67 519.05,754.67 C519.05,754.67 521.31,749.69 521.31,749.69 C521.31,749.69 528.10,747.88 528.10,747.88 C528.10,747.88 529.46,746.08 529.91,743.36 C530.36,740.65 530.36,733.86 530.36,733.86 C530.36,733.86 530.81,731.15 530.81,731.15 C530.81,731.15 538.51,721.64 538.51,721.64 C538.51,721.64 544.39,710.33 545.75,709.88 C547.10,709.43 554.34,703.10 554.34,703.09 C554.34,703.09 560.67,698.57 560.67,698.57 C560.67,698.57 568.82,689.07 568.82,689.07 C568.82,689.07 575.15,682.74 575.15,682.74 C575.15,682.74 577.87,677.76 577.87,677.76 C577.87,677.76 577.87,673.69 577.87,673.69 C577.87,673.69 580.13,668.26 579.23,666.90 C578.32,665.55 576.51,663.74 576.51,661.47 C576.51,659.21 577.41,658.76 576.96,655.59 C576.51,652.42 574.25,654.23 576.06,650.16 C577.87,646.09 577.41,646.54 578.32,644.28 C579.22,642.02 580.58,642.47 580.13,639.76 C580.13,639.76 580.13,639.76 580.13,639.76 C579.68,637.04 579.68,632.97 579.68,632.97 C579.68,632.97 578.32,621.66 578.32,621.66 C578.32,621.66 576.51,618.94 576.51,616.23 C576.51,613.51 576.51,613.51 576.51,613.51 C576.51,613.51 576.51,608.99 575.61,606.28 C574.70,603.56 573.79,601.75 572.89,598.13 C571.99,594.51 571.08,590.89 571.08,590.89 C571.08,590.89 566.56,587.27 566.56,587.27 C566.56,587.27 564.75,584.56 562.94,581.85 C561.13,579.13 561.13,579.13 561.13,579.13 C561.13,579.13 554.79,574.61 555.70,571.89 C556.60,569.18 556.60,569.18 556.60,569.18 C556.60,569.18 554.79,562.84 552.08,561.03 C549.36,559.22 546.65,552.89 546.65,552.89 C546.65,552.89 543.03,550.17 543.03,550.17 C543.03,550.17 542.90,549.97 542.76,549.65 C542.76,549.65 536.70,550.17 536.70,550.17 C536.70,550.17 521.31,549.27 521.31,549.27 C521.31,549.27 509.55,550.17 505.93,550.17 C502.31,550.17 492.36,549.27 492.36,549.27 C492.36,549.27 486.93,551.08 486.93,551.08 C486.93,551.08 476.07,557.41 476.07,557.41 C476.07,557.41 467.93,564.65 466.12,567.37 C464.31,570.08 459.78,576.42 459.78,576.42 C459.78,576.42 455.26,577.32 452.54,578.23 C449.83,579.13 444.40,583.65 444.40,583.65 C444.40,583.65 436.26,593.61 436.26,593.61 C436.26,593.61 432.64,599.94 430.83,602.66 C429.02,605.37 427.21,608.08 425.40,610.80 C423.59,613.51 419.97,615.32 416.35,618.04 C412.73,620.75 407.30,621.66 407.30,621.66 C407.30,621.66 402.78,627.09 402.78,627.09 C402.78,627.09 401.88,642.47 401.88,642.47 C401.88,642.47 404.59,650.62 404.59,650.62 C404.59,650.62 407.30,662.38 407.30,662.38 C407.30,662.38 416.35,683.19 416.35,683.19 C416.35,683.19 418.16,692.24 418.16,692.24 C418.16,692.24 419.97,697.67 419.07,701.29 C418.16,704.90 418.16,706.72 418.16,706.72 C418.16,706.72 412.73,708.53 412.73,708.53 C412.73,708.53 364.78,708.53 364.78,708.53 C364.78,708.53 362.97,715.76 362.97,715.76 C362.97,715.76 356.63,716.67 356.63,716.67 C356.63,716.67 355.73,731.15 355.73,731.15 C355.73,731.15 362.97,765.53 362.97,765.53 C362.97,765.53 368.39,768.25 368.39,768.25 C368.39,768.25 366.58,787.25 366.58,787.25 C366.58,787.25 361.16,786.34 361.16,786.34 C361.16,786.34 350.30,800.82 350.30,800.82 C350.30,800.82 346.68,807.16 346.68,807.16 C346.68,807.16 347.58,835.21 347.58,835.21 C347.58,835.21 343.06,835.21 343.06,835.21 C343.06,835.21 336.73,836.11 336.73,836.11 C336.73,836.11 327.68,838.83 327.68,838.83 C327.68,838.83 318.63,841.54 316.82,844.26 C315.01,846.97 314.10,850.59 312.29,853.30 C310.49,856.02 309.58,860.54 307.77,864.16 C305.96,867.78 307.77,869.59 306.87,873.21 C305.96,876.83 306.87,878.64 305.96,883.16 C305.06,887.69 305.96,888.59 303.25,893.12 C300.53,897.64 303.25,893.12 300.53,896.74 C297.82,900.35 295.10,897.64 295.10,897.64 C295.10,897.64 287.87,896.73 286.96,902.16 C286.06,907.59 286.96,902.16 286.06,904.88 C285.15,907.59 283.34,908.50 280.63,913.93 C277.91,919.36 277.91,920.26 276.10,922.98 C274.29,925.69 274.29,927.50 270.67,931.12 C267.05,934.74 270.67,931.12 267.05,932.93 C267.05,932.93 273.39,954.65 273.39,954.65 C273.39,954.65 267.96,952.84 267.96,952.84 C267.96,952.84 259.81,951.93 259.81,951.93 C259.81,951.93 253.48,955.55 253.48,955.55 C253.48,955.55 248.96,957.36 243.53,960.98 C238.10,964.60 237.20,963.70 234.48,966.41 C231.77,969.12 227.24,971.84 227.24,971.84 C227.24,971.84 223.62,974.55 220.91,978.17 C218.19,981.79 216.38,983.60 216.38,983.60 C216.38,983.60 212.87,985.20 212.87,985.20 C212.87,985.20 214.80,988.58 214.80,988.58 C214.80,988.58 209.37,994.01 209.37,994.01 C209.37,994.01 197.83,1000.12 197.83,1000.12 C197.83,1000.12 190.37,1004.87 190.37,1004.87 C190.37,1004.87 186.30,1007.58 184.26,1010.30 C182.23,1013.01 182.23,1013.01 182.23,1013.01 C182.23,1013.01 182.00,1021.61 182.00,1021.61 C176.57,1026.13 178.38,1020.70 176.57,1026.13 C174.76,1031.56 174.76,1034.28 174.76,1038.80 C174.76,1043.32 173.86,1044.23 174.76,1049.66 C175.67,1055.09 176.57,1055.09 176.57,1058.71 C176.57,1062.33 176.57,1065.94 176.57,1065.94 C174.76,1070.47 174.76,1070.47 174.76,1070.47 C174.76,1070.47 181.09,1077.71 181.09,1077.71 C181.09,1077.71 185.62,1080.42 184.71,1083.14 C183.81,1085.85 186.52,1085.85 184.71,1089.47 C182.90,1093.09 184.71,1093.99 182.90,1096.71 C181.10,1099.42 181.09,1099.42 181.09,1099.42 C181.09,1099.42 181.10,1103.04 184.71,1103.95 C188.33,1104.85 191.05,1104.85 193.76,1107.57 C196.48,1110.28 200.10,1111.19 200.10,1111.19 C200.10,1111.19 202.81,1114.81 207.33,1117.52 C211.86,1120.24 213.67,1124.76 216.38,1126.57 C219.10,1128.38 220.00,1131.09 219.10,1134.71 C218.19,1138.33 217.29,1138.33 218.19,1141.95 C219.10,1145.57 219.10,1146.47 220.91,1149.19 C222.72,1151.90 224.53,1150.09 226.34,1152.81 C228.15,1155.52 229.96,1158.24 233.57,1158.24 C237.19,1158.24 245.34,1159.14 245.34,1159.14 C245.34,1159.14 248.96,1160.05 250.77,1157.33 C252.58,1154.62 254.39,1150.10 254.39,1150.10 C254.39,1150.10 254.39,1142.86 253.48,1138.33 C252.58,1133.81 253.48,1128.38 253.48,1128.38 C253.48,1128.38 258.01,1128.38 258.01,1128.38 C258.01,1128.38 256.20,1132.00 258.91,1133.81 C261.63,1135.62 260.72,1136.52 264.34,1139.24 C267.96,1141.95 269.77,1142.86 272.48,1146.47 C275.20,1150.09 273.39,1147.38 278.82,1151.90 C284.25,1156.43 283.34,1154.62 287.87,1159.14 C292.39,1163.67 295.10,1163.67 296.91,1166.38 C298.72,1169.10 303.25,1177.24 303.25,1177.24 C303.25,1177.24 306.87,1183.57 306.87,1183.57 C306.87,1183.57 309.58,1184.48 310.49,1187.19 C311.39,1189.91 313.20,1192.62 311.39,1195.34 C309.58,1198.05 310.49,1192.62 309.58,1198.05 C308.68,1203.48 307.77,1203.48 308.68,1208.00 C309.58,1212.53 309.58,1209.81 312.29,1217.05 C315.01,1224.29 312.30,1217.96 315.01,1224.29 C320.44,1232.43 320.44,1232.43 320.44,1232.43 C320.44,1232.43 327.68,1229.72 331.30,1230.63 C334.92,1231.53 331.30,1228.82 334.92,1231.53 C338.54,1234.24 332.20,1229.72 338.54,1234.24 C344.87,1238.77 339.44,1235.15 344.87,1238.77 C350.30,1242.39 351.20,1246.01 351.20,1246.01 C351.20,1246.01 339.44,1269.53 339.44,1269.53 C339.44,1269.53 343.96,1274.06 343.96,1274.06 C344.87,1278.58 344.87,1277.68 344.87,1282.20 C344.87,1286.72 344.87,1285.82 345.77,1293.96 C346.68,1302.11 346.68,1306.63 346.68,1306.63 C346.68,1306.63 348.49,1311.16 348.49,1311.16 C348.49,1311.16 353.92,1312.97 356.63,1312.97 C359.35,1312.97 353.92,1318.40 359.35,1312.97 C364.78,1307.54 370.20,1297.58 370.20,1297.58 C370.20,1297.58 378.35,1280.39 378.35,1280.39 C378.35,1280.39 379.25,1280.39 381.06,1274.06 C382.87,1267.72 385.59,1264.10 385.59,1264.10 C385.59,1264.10 386.49,1259.58 386.49,1259.58 C386.49,1259.58 397.35,1257.77 397.35,1257.77 C397.35,1257.77 400.07,1252.34 400.06,1249.63 C400.07,1246.91 399.16,1246.01 399.16,1243.29 C399.16,1240.58 397.35,1235.15 397.35,1235.15 C397.35,1235.15 395.54,1228.82 395.54,1228.82 C395.54,1228.82 398.26,1223.39 401.87,1217.96 C405.49,1212.53 412.73,1199.86 412.73,1199.86 C412.73,1199.86 419.97,1195.33 422.69,1194.43 C425.40,1193.53 429.92,1190.81 429.92,1190.81 C429.92,1190.81 435.35,1189.91 435.35,1189.91 C435.35,1189.91 438.97,1179.95 438.97,1179.95 C438.97,1179.95 440.78,1170.00 440.78,1170.00 C440.78,1170.00 448.02,1169.10 448.02,1169.10 C448.02,1169.10 452.55,1166.38 452.55,1166.38 C452.55,1166.38 452.55,1160.95 452.55,1160.95 C452.55,1160.95 446.21,1143.76 446.21,1143.76 C446.21,1143.76 443.50,1136.52 443.50,1136.52 C443.50,1136.52 440.78,1131.09 442.59,1128.38 C444.40,1125.66 439.88,1133.81 444.40,1125.66 C448.93,1117.52 450.74,1111.18 450.74,1111.18 C450.74,1111.18 445.31,1106.66 445.31,1106.66 C445.31,1106.66 440.78,1102.14 440.78,1102.14 C440.78,1102.14 443.50,1093.99 445.31,1089.47 C447.12,1084.94 448.02,1078.61 448.02,1078.61 C448.02,1078.61 448.93,1076.80 449.83,1074.09 C450.74,1071.37 448.02,1075.90 450.74,1071.37 C453.45,1066.85 452.55,1057.80 452.55,1057.80 C452.55,1057.80 449.83,1040.61 449.83,1040.61 C449.83,1040.61 447.12,1032.46 447.12,1032.46 C447.12,1032.46 438.97,1027.03 438.97,1027.03 C438.97,1027.03 435.35,1022.51 435.35,1022.51 C435.35,1022.51 438.97,1017.99 438.97,1017.99 C438.97,1017.99 437.16,997.17 437.16,997.17 C437.16,997.17 438.07,988.13 438.07,988.13 C438.07,988.13 441.69,979.98 441.69,979.98 C441.69,979.98 446.21,967.31 446.21,967.31 C446.21,967.31 451.64,965.50 451.64,965.50 C451.64,965.50 459.78,967.31 459.78,967.31 C459.78,967.31 462.50,966.41 466.12,965.50 C469.74,964.60 469.74,964.60 469.74,964.60 C469.74,964.60 476.07,957.36 476.07,957.36 C476.07,957.36 477.88,952.84 477.88,952.84 C477.88,952.84 477.99,953.00 478.23,953.25 C478.23,953.25 476.98,939.72 476.98,939.72 C476.98,939.72 474.26,935.64 473.81,933.38 Z" fill="white" fill-opacity="1" stroke="rgb(137, 137, 137)" stroke-width="5.00" stroke-opacity="1.00" stroke-linejoin="miter" id="서구"/>



</g>
</svg>