<?xml version="1.0" encoding="UTF-8" standalone="no"?>
<svg
   xmlns:dc="http://purl.org/dc/elements/1.1/"
   xmlns:cc="http://creativecommons.org/ns#"
   xmlns:rdf="http://www.w3.org/1999/02/22-rdf-syntax-ns#"
   xmlns:svg="http://www.w3.org/2000/svg"
   xmlns="http://www.w3.org/2000/svg"
   viewBox="0 0 1280 720"
   height="720"
   width="1280"
   xml:space="preserve"
   id="svg2"
   version="1.1"><metadata
     id="metadata8"><rdf:RDF><cc:Work
         rdf:about=""><dc:format>image/svg+xml</dc:format><dc:type
           rdf:resource="http://purl.org/dc/dcmitype/StillImage" /></cc:Work></rdf:RDF></metadata><defs
     id="defs6"><clipPath
       id="clipPath18"
       clipPathUnits="userSpaceOnUse"><path
         style="clip-rule:evenodd"
         id="path16"
         d="M 0,1.2207e-4 H 960 V 540.00012 H 0 Z" /></clipPath></defs><g
     transform="matrix(1.3333333,0,0,-1.3333333,0,720)"
     id="g10"><g
       id="g12"><g
         clip-path="url(#clipPath18)"
         id="g14"><path
           id="path20"
           style="fill:none;fill-opacity:1;fill-rule:evenodd;stroke:none"
           d="M 0,6.1035e-5 H 960 V 540.00006 H 0 Z" /></g></g><path
       id="효동"
       style="fill:#c3b6c9;fill-opacity:1;fill-rule:evenodd;stroke:none"
       d="m 436.07,290.01 -0.26,-0.62 2.35,-1.98 1.83,-2.73 0.16,-0.39 -0.53,-2.1 -0.16,-0.36 -0.38,-0.77 -0.06,-0.28 -0.41,-1.9 -0.29,-1.66 1.49,-1.07 3.16,0.8 2.94,0.99 5.8,0.47 3.82,0.09 2.03,0.24 1.63,0.25 1.02,0.29 0.88,0.81 0.04,0.04 1.31,-0.69 1.86,-1.69 0.32,-0.53 0.02,-0.36 -2.73,-2.74 -1.37,-1.36 -2.74,-2.73 0.19,-3.19 0.19,-3.19 0.28,-4.77 -0.17,0.41 -0.22,0.45 -0.29,0.46 -0.4,0.43 -4.06,4.25 -1.82,-1.26 -3.1,-2.18 1.44,-1.41 -1.21,-1.55 -1.3,0.75 -5.68,4.85 -1.53,1.58 -4.09,5.11 -1.79,2.49 -0.06,0.08 -0.7,1.04 -0.21,0.31 -0.32,0.46 -0.84,0.63 -2.18,0.78 -3.05,-0.14 -4.84,2.92 -3.72,9.2 5.5,1.46 0.22,0.03 8.27,0.46 1.15,0.03 z" /><path
       id="효동"
       style="fill:none;stroke:#44546a;stroke-width:0.23999999;stroke-linecap:round;stroke-linejoin:round;stroke-miterlimit:10;stroke-dasharray:none;stroke-opacity:0.8"
       d="m 436.07,290.01 -0.26,-0.62 2.35,-1.98 1.83,-2.73 0.16,-0.39 -0.53,-2.1 -0.16,-0.36 -0.38,-0.77 -0.06,-0.28 -0.41,-1.9 -0.29,-1.66 1.49,-1.07 3.16,0.8 2.94,0.99 5.8,0.47 3.82,0.09 2.03,0.24 1.63,0.25 1.02,0.29 0.88,0.81 0.04,0.04 1.31,-0.69 1.86,-1.69 0.32,-0.53 0.02,-0.36 -2.73,-2.74 -1.37,-1.36 -2.74,-2.73 0.19,-3.19 0.19,-3.19 0.28,-4.77 -0.17,0.41 -0.22,0.45 -0.29,0.46 -0.4,0.43 -4.06,4.25 -1.82,-1.26 -3.1,-2.18 1.44,-1.41 -1.21,-1.55 -1.3,0.75 -5.68,4.85 -1.53,1.58 -4.09,5.11 -1.79,2.49 -0.06,0.08 -0.7,1.04 -0.21,0.31 -0.32,0.46 -0.84,0.63 -2.18,0.78 -3.05,-0.14 -4.84,2.92 -3.72,9.2 5.5,1.46 0.22,0.03 8.27,0.46 1.15,0.03 z" /><path
       id="판암1동"
       style="fill:#c3b6c9;fill-opacity:1;fill-rule:evenodd;stroke:none"
       d="m 491.32,258.05 -2.5,-1.77 -1.72,-0.07 h -0.91 -0.13 l -0.24,-0.01 -1.55,0.22 -1.49,0.37 -2.72,1.53 -2.27,1.25 -6.65,2.81 -0.9,0.13 -1.37,-0.24 -2.61,-0.56 -0.98,-0.69 -2,-2.45 -0.48,-0.15 -0.91,-0.08 -3.06,0.01 -0.34,0.44 -0.06,0.08 -0.28,4.78 -0.19,3.19 -0.18,3.19 2.72,2.74 1.37,1.37 2.73,2.74 -0.02,0.36 -0.32,0.53 -1.85,1.69 -1.32,0.69 -0.04,-0.04 -0.87,-0.81 -1.02,-0.29 -1.63,-0.25 -2.02,-0.24 -3.82,-0.1 -5.78,-0.46 -2.93,-1 -3.15,-0.8 -1.49,1.07 0.29,1.67 0.41,1.9 0.06,0.29 0.38,0.76 0.16,0.36 0.53,2.1 -0.16,0.4 -1.83,2.73 -2.34,1.98 0.25,0.63 1.13,0.06 4.78,-1.82 3.38,-1.55 0.89,-0.29 0.97,-0.18 2.12,-0.1 0.27,-0.02 0.1,1.22 0.03,0.29 0.05,0.41 0.07,0.4 0.2,0.67 0.33,1.01 0.06,0.09 0.12,0.22 0.26,0.36 0.44,0.47 0.06,0.07 6.47,2.17 2.38,0.43 0.07,0.03 1.51,0.52 1,0.14 1.18,-0.04 0.52,-0.43 1.43,-0.02 1.8,0.7 0.45,0.73 0.38,0.6 1.34,2.34 3.89,7.43 0.18,1.53 3.59,1.3 6.93,3.2 1.46,1 1.47,1 2.66,1.61 1.65,-2.69 -1,-1.9 -0.04,-0.98 0.98,-0.35 1.94,-0.53 2.39,-0.51 0.46,-0.22 -0.65,-3.53 -0.12,-0.53 -3.61,-6.64 -0.69,-0.5 -1.1,-0.79 -0.26,-0.93 -0.08,-1.05 0.05,-0.37 0.88,-0.94 1.59,-2.67 1.84,-6.21 -0.52,-1.65 -2.24,-9.11 -1.23,-10.77 -0.03,-1.74 0.95,-2.89 z" /><path
       id="판암1동"
       style="fill:none;stroke:#44546a;stroke-width:0.23999999;stroke-linecap:round;stroke-linejoin:round;stroke-miterlimit:10;stroke-dasharray:none;stroke-opacity:0.8"
       d="m 491.32,258.05 -2.5,-1.77 -1.72,-0.07 h -0.91 -0.13 l -0.24,-0.01 -1.55,0.22 -1.49,0.37 -2.72,1.53 -2.27,1.25 -6.65,2.81 -0.9,0.13 -1.37,-0.24 -2.61,-0.56 -0.98,-0.69 -2,-2.45 -0.48,-0.15 -0.91,-0.08 -3.06,0.01 -0.34,0.44 -0.06,0.08 -0.28,4.78 -0.19,3.19 -0.18,3.19 2.72,2.74 1.37,1.37 2.73,2.74 -0.02,0.36 -0.32,0.53 -1.85,1.69 -1.32,0.69 -0.04,-0.04 -0.87,-0.81 -1.02,-0.29 -1.63,-0.25 -2.02,-0.24 -3.82,-0.1 -5.78,-0.46 -2.93,-1 -3.15,-0.8 -1.49,1.07 0.29,1.67 0.41,1.9 0.06,0.29 0.38,0.76 0.16,0.36 0.53,2.1 -0.16,0.4 -1.83,2.73 -2.34,1.98 0.25,0.63 1.13,0.06 4.78,-1.82 3.38,-1.55 0.89,-0.29 0.97,-0.18 2.12,-0.1 0.27,-0.02 0.1,1.22 0.03,0.29 0.05,0.41 0.07,0.4 0.2,0.67 0.33,1.01 0.06,0.09 0.12,0.22 0.26,0.36 0.44,0.47 0.06,0.07 6.47,2.17 2.38,0.43 0.07,0.03 1.51,0.52 1,0.14 1.18,-0.04 0.52,-0.43 1.43,-0.02 1.8,0.7 0.45,0.73 0.38,0.6 1.34,2.34 3.89,7.43 0.18,1.53 3.59,1.3 6.93,3.2 1.46,1 1.47,1 2.66,1.61 1.65,-2.69 -1,-1.9 -0.04,-0.98 0.98,-0.35 1.94,-0.53 2.39,-0.51 0.46,-0.22 -0.65,-3.53 -0.12,-0.53 -3.61,-6.64 -0.69,-0.5 -1.1,-0.79 -0.26,-0.93 -0.08,-1.05 0.05,-0.37 0.88,-0.94 1.59,-2.67 1.84,-6.21 -0.52,-1.65 -2.24,-9.11 -1.23,-10.77 -0.03,-1.74 0.95,-2.89 z" /><path
       id="판암2동"
       style="fill:#c3b6c9;fill-opacity:1;fill-rule:evenodd;stroke:none"
       d="m 460.2,293.95 -2.38,-0.43 -6.47,-2.16 -0.06,-0.06 -0.44,-0.47 -0.26,-0.36 -0.12,-0.21 -0.05,-0.09 -0.34,-1.01 -0.2,-0.66 -0.07,-0.4 -0.05,-0.4 -0.03,-0.29 -0.1,-1.21 -0.26,0.01 -2.12,0.1 -0.97,0.19 -0.9,0.28 -3.38,1.54 -4.78,1.81 -1.59,0.77 -2.07,1.31 0.2,0.27 1.23,-0.45 0.1,-0.01 0.85,1.25 0.42,0.62 0.42,0.61 -1.95,2.16 -0.13,0.13 -1.13,1.06 0.62,0.47 3.82,0.54 0.57,0.65 1.99,0.82 0.34,0.03 2.55,-0.87 0.14,-0.04 3.32,-0.9 5.69,1.8 z" /><path
       id="판암2동"
       style="fill:none;stroke:#44546a;stroke-width:0.23999999;stroke-linecap:round;stroke-linejoin:round;stroke-miterlimit:10;stroke-dasharray:none;stroke-opacity:0.8"
       d="m 460.2,293.95 -2.38,-0.43 -6.47,-2.16 -0.06,-0.06 -0.44,-0.47 -0.26,-0.36 -0.12,-0.21 -0.05,-0.09 -0.34,-1.01 -0.2,-0.66 -0.07,-0.4 -0.05,-0.4 -0.03,-0.29 -0.1,-1.21 -0.26,0.01 -2.12,0.1 -0.97,0.19 -0.9,0.28 -3.38,1.54 -4.78,1.81 -1.59,0.77 -2.07,1.31 0.2,0.27 1.23,-0.45 0.1,-0.01 0.85,1.25 0.42,0.62 0.42,0.61 -1.95,2.16 -0.13,0.13 -1.13,1.06 0.62,0.47 3.82,0.54 0.57,0.65 1.99,0.82 0.34,0.03 2.55,-0.87 0.14,-0.04 3.32,-0.9 5.69,1.8 z" /><path
       id="용운동"
       style="fill:#c3b6c9;fill-opacity:1;fill-rule:evenodd;stroke:none"
       d="m 473.93,307.51 -0.18,-1.53 -3.89,-7.42 -1.34,-2.34 -0.38,-0.6 -0.45,-0.73 -1.8,-0.7 -1.43,0.02 -0.52,0.43 -1.19,0.04 -1,-0.14 -1.5,-0.51 -0.07,-0.03 -7.6,6.44 -5.69,-1.81 -3.33,0.91 -0.13,0.04 -2.55,0.87 -0.34,-0.03 -1.99,-0.83 -0.57,-0.65 -3.82,-0.55 1.14,0.83 0.5,0.37 0.69,0.52 4.95,8.24 0.9,2.3 0.08,0.39 -0.53,0.69 -0.54,0.66 2.78,2.48 0.72,0.81 2.45,5.6 2.07,6.16 1.18,4.52 8.18,1.92 5.1,0.32 1.8,-1.9 4.16,-5.44 5.25,-7.63 1.57,-3.27 0.15,-1.03 -0.5,-2.39 -0.49,-1.27 z" /><path
       id="용운동"
       style="fill:none;stroke:#44546a;stroke-width:0.23999999;stroke-linecap:round;stroke-linejoin:round;stroke-miterlimit:10;stroke-dasharray:none;stroke-opacity:0.8"
       d="m 473.93,307.51 -0.18,-1.53 -3.89,-7.42 -1.34,-2.34 -0.38,-0.6 -0.45,-0.73 -1.8,-0.7 -1.43,0.02 -0.52,0.43 -1.19,0.04 -1,-0.14 -1.5,-0.51 -0.07,-0.03 -7.6,6.44 -5.69,-1.81 -3.33,0.91 -0.13,0.04 -2.55,0.87 -0.34,-0.03 -1.99,-0.83 -0.57,-0.65 -3.82,-0.55 1.14,0.83 0.5,0.37 0.69,0.52 4.95,8.24 0.9,2.3 0.08,0.39 -0.53,0.69 -0.54,0.66 2.78,2.48 0.72,0.81 2.45,5.6 2.07,6.16 1.18,4.52 8.18,1.92 5.1,0.32 1.8,-1.9 4.16,-5.44 5.25,-7.63 1.57,-3.27 0.15,-1.03 -0.5,-2.39 -0.49,-1.27 z" /><path
       id="자양동"
       style="fill:#c3b6c9;fill-opacity:1;fill-rule:evenodd;stroke:none"
       d="m 450.6,331.86 -1.18,-4.49 -2.07,-6.13 -2.45,-5.57 -0.72,-0.8 -2.78,-2.48 -5.49,0.37 -1.15,0.73 -0.44,0.24 -2.96,1.2 -0.8,0.32 -1.07,-1.12 -0.25,-0.39 -0.18,-0.43 -0.12,-0.29 -0.21,-0.3 -0.36,-0.49 -0.84,-0.67 -0.35,-0.23 -0.41,-0.19 -0.33,-0.09 -3.44,-0.13 3.18,7.04 2.59,3.45 0.25,0.26 1.16,1.2 1.37,1.41 4.26,4.37 0.73,0.73 0.45,0.4 0.96,0.81 6.69,3.49 0.18,-0.22 z" /><path
       id="자양동"
       style="fill:none;stroke:#44546a;stroke-width:0.23999999;stroke-linecap:round;stroke-linejoin:round;stroke-miterlimit:10;stroke-dasharray:none;stroke-opacity:0.8"
       d="m 450.6,331.86 -1.18,-4.49 -2.07,-6.13 -2.45,-5.57 -0.72,-0.8 -2.78,-2.48 -5.49,0.37 -1.15,0.73 -0.44,0.24 -2.96,1.2 -0.8,0.32 -1.07,-1.12 -0.25,-0.39 -0.18,-0.43 -0.12,-0.29 -0.21,-0.3 -0.36,-0.49 -0.84,-0.67 -0.35,-0.23 -0.41,-0.19 -0.33,-0.09 -3.44,-0.13 3.18,7.04 2.59,3.45 0.25,0.26 1.16,1.2 1.37,1.41 4.26,4.37 0.73,0.73 0.45,0.4 0.96,0.81 6.69,3.49 0.18,-0.22 z" /><path
       id="가양1동"
       style="fill:#c3b6c9;fill-opacity:1;fill-rule:evenodd;stroke:none"
       d="m 435.72,328.65 -4.26,-4.4 -1.37,-1.42 -1.17,-1.21 -0.25,-0.26 -2.58,-3.48 -1.43,1.79 -0.45,0.25 -1.68,0.85 -1.25,0.51 -1.49,0.19 -1.45,-0.05 -0.79,1.09 1.51,1.01 0.19,0.18 0.06,0.08 0.9,2.88 -0.44,5.01 -2.29,9.67 6.62,2.15 1.33,0.43 0.72,-1.14 0.6,-0.95 0.46,-0.72 4.49,-6.91 z" /><path
       id="가양1동"
       style="fill:none;stroke:#44546a;stroke-width:0.23999999;stroke-linecap:round;stroke-linejoin:round;stroke-miterlimit:10;stroke-dasharray:none;stroke-opacity:0.8"
       d="m 435.72,328.65 -4.26,-4.4 -1.37,-1.42 -1.17,-1.21 -0.25,-0.26 -2.58,-3.48 -1.43,1.79 -0.45,0.25 -1.68,0.85 -1.25,0.51 -1.49,0.19 -1.45,-0.05 -0.79,1.09 1.51,1.01 0.19,0.18 0.06,0.08 0.9,2.88 -0.44,5.01 -2.29,9.67 6.62,2.15 1.33,0.43 0.72,-1.14 0.6,-0.95 0.46,-0.72 4.49,-6.91 z" /><path
       id="가양2동"
       style="fill:#c3b6c9;fill-opacity:1;fill-rule:evenodd;stroke:none"
       d="m 462.24,343.61 1.56,-9.46 -5.1,-0.32 -8.17,-1.92 -5.77,2.01 -0.18,0.22 -6.67,-3.5 -0.96,-0.82 -0.45,-0.41 -0.72,-0.73 -4.01,5.52 -4.48,6.89 -0.47,0.72 -0.6,0.95 -0.72,1.13 -1.32,-0.43 -0.1,2.88 1.9,-0.88 0.28,-0.16 4.2,-1.64 0.5,0.85 0.12,0.22 0.91,1.61 -0.25,-0.07 -0.26,-0.1 -0.3,-0.13 -0.13,0.04 0.33,1.71 0.33,0.67 1.86,0.65 12.73,0.81 -0.06,-0.11 -0.53,-0.91 -0.03,-0.04 -0.54,-0.94 0.14,-0.04 1.83,-0.35 1.83,-0.23 1.87,0.26 1.42,-0.1 0.92,-0.06 7.23,-3.06 z" /><path
       id="가양2동"
       style="fill:none;stroke:#44546a;stroke-width:0.23999999;stroke-linecap:round;stroke-linejoin:round;stroke-miterlimit:10;stroke-dasharray:none;stroke-opacity:0.8"
       d="m 462.24,343.61 1.56,-9.46 -5.1,-0.32 -8.17,-1.92 -5.77,2.01 -0.18,0.22 -6.67,-3.5 -0.96,-0.82 -0.45,-0.41 -0.72,-0.73 -4.01,5.52 -4.48,6.89 -0.47,0.72 -0.6,0.95 -0.72,1.13 -1.32,-0.43 -0.1,2.88 1.9,-0.88 0.28,-0.16 4.2,-1.64 0.5,0.85 0.12,0.22 0.91,1.61 -0.25,-0.07 -0.26,-0.1 -0.3,-0.13 -0.13,0.04 0.33,1.71 0.33,0.67 1.86,0.65 12.73,0.81 -0.06,-0.11 -0.53,-0.91 -0.03,-0.04 -0.54,-0.94 0.14,-0.04 1.83,-0.35 1.83,-0.23 1.87,0.26 1.42,-0.1 0.92,-0.06 7.23,-3.06 z" /><path
       id="용전동"
       style="fill:#c3b6c9;fill-opacity:1;fill-rule:evenodd;stroke:none"
       d="m 424.06,346.32 0.1,-2.88 -6.62,-2.15 -9.5,-3.37 0.15,1.3 0.28,2.41 -6.54,0.64 -0.77,4.42 -0.6,4.17 2.58,2.94 2.72,3.92 h 2.69 0.29 0.18 l 4.91,2.88 2.26,-0.86 0.89,0.04 0.34,-0.03 1.52,-0.48 0.53,-0.4 0.98,-1.96 0.72,-3.31 -0.06,-2.69 1.13,-0.93 0.91,-0.75 1.05,-0.88 z" /><path
       id="용전동"
       style="fill:none;stroke:#44546a;stroke-width:0.23999999;stroke-linecap:round;stroke-linejoin:round;stroke-miterlimit:10;stroke-dasharray:none;stroke-opacity:0.8"
       d="m 424.06,346.32 0.1,-2.88 -6.62,-2.15 -9.5,-3.37 0.15,1.3 0.28,2.41 -6.54,0.64 -0.77,4.42 -0.6,4.17 2.58,2.94 2.72,3.92 h 2.69 0.29 0.18 l 4.91,2.88 2.26,-0.86 0.89,0.04 0.34,-0.03 1.52,-0.48 0.53,-0.4 0.98,-1.96 0.72,-3.31 -0.06,-2.69 1.13,-0.93 0.91,-0.75 1.05,-0.88 z" /><path
       id="홍도동"
       style="fill:#c3b6c9;fill-opacity:1;fill-rule:evenodd;stroke:none"
       d="m 408.05,337.91 -1.08,-0.9 -2.41,-2.04 -2.43,-2.04 -1.59,-1.19 -0.19,-0.1 -0.3,-0.15 -0.08,-0.03 -3.49,-0.14 -3.33,0.19 -4.27,1.32 -0.47,0.35 -0.88,0.64 -2.69,2.01 2.14,3.55 2.77,0.36 0.99,0.09 2.23,-0.09 1.33,-0.15 1.68,0.64 0.12,0.1 0.21,0.2 0.63,1.33 0.36,0.83 0.21,0.34 0.1,0.18 2.42,3.36 1.14,0.11 0.76,-4.42 6.55,-0.64 -0.28,-2.41 z" /><path
       id="홍도동"
       style="fill:none;stroke:#44546a;stroke-width:0.23999999;stroke-linecap:round;stroke-linejoin:round;stroke-miterlimit:10;stroke-dasharray:none;stroke-opacity:0.8"
       d="m 408.05,337.91 -1.08,-0.9 -2.41,-2.04 -2.43,-2.04 -1.59,-1.19 -0.19,-0.1 -0.3,-0.15 -0.08,-0.03 -3.49,-0.14 -3.33,0.19 -4.27,1.32 -0.47,0.35 -0.88,0.64 -2.69,2.01 2.14,3.55 2.77,0.36 0.99,0.09 2.23,-0.09 1.33,-0.15 1.68,0.64 0.12,0.1 0.21,0.2 0.63,1.33 0.36,0.83 0.21,0.34 0.1,0.18 2.42,3.36 1.14,0.11 0.76,-4.42 6.55,-0.64 -0.28,-2.41 z" /><path
       id="대청동"
       style="fill:#c3b6c9;fill-opacity:1;fill-rule:evenodd;stroke:none"
       d="m 505.28,482.86 7,-11.02 0.96,-1.6 0.96,-1.59 3.77,-6.24 1.75,-2.92 0.24,-0.54 3.01,-6.64 1.33,-2.99 0.66,-1.5 0.66,-1.5 0.67,-1.51 0.66,-1.52 1.01,-2.07 1.02,-0.91 1.63,-1.02 2.15,-0.82 2.16,-0.81 2.16,-0.82 1.97,-0.74 1.63,-3.52 1.67,5.76 1,3.13 2.47,7.83 0.99,3.14 1.49,4.7 1.96,8.01 1.39,-0.2 1.79,-0.7 1.45,-1.49 1.83,-1.18 1.2,0.75 1.72,1.69 3.02,2 1.97,0.69 7.89,-4.45 0.93,-2.11 7.91,-0.94 2.49,0.37 4.38,1.98 2.92,0.93 2.25,0.03 2.25,0.02 1.66,-0.84 1.67,-0.84 -0.11,-0.23 -0.74,-1.75 -0.62,-1.46 -0.63,-1.47 0.31,-3.07 0.14,-1.53 0.15,-1.54 1.32,-2.5 0.63,-1.18 1.87,-1.43 1.87,-1.43 1.74,-1.31 1.73,-1.32 1.73,-1.31 3.71,-3.07 2.19,-2.95 0.85,-1.16 0.55,-1.65 1.09,-3.32 0.54,-1.66 1.41,-1.74 0.86,-0.47 1.31,-0.72 -1.47,-2.28 -3.74,-1.99 -4.62,0.89 -1.18,0.76 -4.5,1.8 -2.12,-0.56 -3.76,-0.45 -1.78,-0.1 -0.85,1.54 -3.21,0.31 h -3.51 l -5.98,-4.15 -1.77,-1.23 -0.84,-0.59 -0.68,-1.58 -0.67,-1.58 -0.43,-0.48 -0.51,-0.3 -1.67,-0.76 -8.63,-4.99 -1.66,-1.13 -0.86,-1.91 -0.07,-4.3 0.21,-12.65 0.55,-1.97 0.24,-0.84 0.81,-0.94 0.32,-0.61 0.27,-0.51 0.12,-1.72 0.11,-1.73 0.24,-3.44 -3.23,-9.35 -3.19,-10.45 -3,-7.55 -1.97,0.21 -2.87,0.29 -4.41,-0.84 -2.85,-2.51 -7.52,-1.84 -2.04,-3.96 -1.1,-4.04 0.4,-3.06 1.97,-1.42 -1.43,-1.74 -2.8,-2.44 -1.66,-0.58 -0.24,-0.02 -2.94,-0.11 -3.12,-0.79 -1.51,-1.79 -0.14,-2.25 0.08,-6.94 1.41,-7.01 1.14,-1.92 1.36,-2.28 0.02,-0.39 0.1,-1.21 -2.51,-4.29 -3.28,-4.59 -3.22,-2.69 1.72,-5.38 -0.06,-1.46 -4.81,-4.31 -0.95,-0.27 -0.25,-0.07 -1.63,-0.86 5.38,-7.59 2.08,-2.4 0.51,-0.89 -1.3,-2.11 -9.15,-6.83 -2.18,-0.31 -5.13,1.69 -3.16,-1.07 -4.71,-1.12 -3.68,0.46 -2.05,1.06 -0.1,0.05 -0.95,2.88 0.03,1.74 1.23,10.76 2.24,9.11 0.52,1.64 -1.84,6.2 -1.59,2.67 -0.89,0.94 -0.04,0.37 0.08,1.05 0.26,0.92 1.1,0.8 0.69,0.5 3.62,6.62 0.12,0.54 0.65,3.52 -0.46,0.22 -2.4,0.52 -1.94,0.53 -0.98,0.35 0.04,0.97 1,1.9 -1.65,2.69 -2.66,-1.61 -1.47,-1 -1.46,-1 -6.94,-3.2 -3.6,-1.3 1.85,3.76 0.49,1.27 0.5,2.39 -0.15,1.02 -1.57,3.28 -5.26,7.62 -4.16,5.44 -1.8,1.9 -1.56,9.46 2.09,1.34 -0.05,1.22 -0.68,1.41 0.06,1.74 0.06,1.73 0.95,2.56 0.5,1.35 0.72,0.99 0.03,0.04 0.01,0.08 0.13,2.1 -0.42,1.96 -1.76,0.86 -1.93,0.54 -2.45,5.21 -4.48,7.9 -4.1,5.63 -4.8,6.02 -2.84,3.49 -2.43,5.07 0.37,0.94 1.36,1.8 1.37,1.79 2.64,5.79 0.91,2.94 -2.16,2.3 0.44,9.85 1.82,5.56 2.12,3.96 1.45,2.57 1.93,0.85 1.92,0.84 2.51,1.1 2.31,2.35 1.05,1.07 3.28,1.81 2.42,1.22 3.21,3.31 6.51,7.84 1.08,1.3 8.48,11.1 4.97,7.88 1,1.58 -0.22,2.49 1.04,2.04 1.26,1.69 2.53,3.39 1.9,-0.48 1.91,-0.47 2.49,-0.19 z" /><path
       id="대청동"
       style="fill:none;stroke:#44546a;stroke-width:0.23999999;stroke-linecap:round;stroke-linejoin:round;stroke-miterlimit:10;stroke-dasharray:none;stroke-opacity:0.8"
       d="m 505.28,482.86 7,-11.02 0.96,-1.6 0.96,-1.59 3.77,-6.24 1.75,-2.92 0.24,-0.54 3.01,-6.64 1.33,-2.99 0.66,-1.5 0.66,-1.5 0.67,-1.51 0.66,-1.52 1.01,-2.07 1.02,-0.91 1.63,-1.02 2.15,-0.82 2.16,-0.81 2.16,-0.82 1.97,-0.74 1.63,-3.52 1.67,5.76 1,3.13 2.47,7.83 0.99,3.14 1.49,4.7 1.96,8.01 1.39,-0.2 1.79,-0.7 1.45,-1.49 1.83,-1.18 1.2,0.75 1.72,1.69 3.02,2 1.97,0.69 7.89,-4.45 0.93,-2.11 7.91,-0.94 2.49,0.37 4.38,1.98 2.92,0.93 2.25,0.03 2.25,0.02 1.66,-0.84 1.67,-0.84 -0.11,-0.23 -0.74,-1.75 -0.62,-1.46 -0.63,-1.47 0.31,-3.07 0.14,-1.53 0.15,-1.54 1.32,-2.5 0.63,-1.18 1.87,-1.43 1.87,-1.43 1.74,-1.31 1.73,-1.32 1.73,-1.31 3.71,-3.07 2.19,-2.95 0.85,-1.16 0.55,-1.65 1.09,-3.32 0.54,-1.66 1.41,-1.74 0.86,-0.47 1.31,-0.72 -1.47,-2.28 -3.74,-1.99 -4.62,0.89 -1.18,0.76 -4.5,1.8 -2.12,-0.56 -3.76,-0.45 -1.78,-0.1 -0.85,1.54 -3.21,0.31 h -3.51 l -5.98,-4.15 -1.77,-1.23 -0.84,-0.59 -0.68,-1.58 -0.67,-1.58 -0.43,-0.48 -0.51,-0.3 -1.67,-0.76 -8.63,-4.99 -1.66,-1.13 -0.86,-1.91 -0.07,-4.3 0.21,-12.65 0.55,-1.97 0.24,-0.84 0.81,-0.94 0.32,-0.61 0.27,-0.51 0.12,-1.72 0.11,-1.73 0.24,-3.44 -3.23,-9.35 -3.19,-10.45 -3,-7.55 -1.97,0.21 -2.87,0.29 -4.41,-0.84 -2.85,-2.51 -7.52,-1.84 -2.04,-3.96 -1.1,-4.04 0.4,-3.06 1.97,-1.42 -1.43,-1.74 -2.8,-2.44 -1.66,-0.58 -0.24,-0.02 -2.94,-0.11 -3.12,-0.79 -1.51,-1.79 -0.14,-2.25 0.08,-6.94 1.41,-7.01 1.14,-1.92 1.36,-2.28 0.02,-0.39 0.1,-1.21 -2.51,-4.29 -3.28,-4.59 -3.22,-2.69 1.72,-5.38 -0.06,-1.46 -4.81,-4.31 -0.95,-0.27 -0.25,-0.07 -1.63,-0.86 5.38,-7.59 2.08,-2.4 0.51,-0.89 -1.3,-2.11 -9.15,-6.83 -2.18,-0.31 -5.13,1.69 -3.16,-1.07 -4.71,-1.12 -3.68,0.46 -2.05,1.06 -0.1,0.05 -0.95,2.88 0.03,1.74 1.23,10.76 2.24,9.11 0.52,1.64 -1.84,6.2 -1.59,2.67 -0.89,0.94 -0.04,0.37 0.08,1.05 0.26,0.92 1.1,0.8 0.69,0.5 3.62,6.62 0.12,0.54 0.65,3.52 -0.46,0.22 -2.4,0.52 -1.94,0.53 -0.98,0.35 0.04,0.97 1,1.9 -1.65,2.69 -2.66,-1.61 -1.47,-1 -1.46,-1 -6.94,-3.2 -3.6,-1.3 1.85,3.76 0.49,1.27 0.5,2.39 -0.15,1.02 -1.57,3.28 -5.26,7.62 -4.16,5.44 -1.8,1.9 -1.56,9.46 2.09,1.34 -0.05,1.22 -0.68,1.41 0.06,1.74 0.06,1.73 0.95,2.56 0.5,1.35 0.72,0.99 0.03,0.04 0.01,0.08 0.13,2.1 -0.42,1.96 -1.76,0.86 -1.93,0.54 -2.45,5.21 -4.48,7.9 -4.1,5.63 -4.8,6.02 -2.84,3.49 -2.43,5.07 0.37,0.94 1.36,1.8 1.37,1.79 2.64,5.79 0.91,2.94 -2.16,2.3 0.44,9.85 1.82,5.56 2.12,3.96 1.45,2.57 1.93,0.85 1.92,0.84 2.51,1.1 2.31,2.35 1.05,1.07 3.28,1.81 2.42,1.22 3.21,3.31 6.51,7.84 1.08,1.3 8.48,11.1 4.97,7.88 1,1.58 -0.22,2.49 1.04,2.04 1.26,1.69 2.53,3.39 1.9,-0.48 1.91,-0.47 2.49,-0.19 z" /><path
       id="산내동"
       style="fill:#c3b6c9;fill-opacity:1;fill-rule:evenodd;stroke:none"
       d="m 458.41,258.96 0.06,-0.08 0.34,-0.44 3.07,-0.01 0.91,0.07 0.48,0.16 2,2.45 0.98,0.68 2.61,0.56 1.37,0.24 0.9,-0.13 6.66,-2.81 2.28,-1.24 2.73,-1.53 1.48,-0.37 1.56,-0.22 0.23,0.01 h 0.14 0.9 l 1.73,0.07 2.5,1.77 2.05,-1.06 3.68,-0.46 4.71,1.12 3.16,1.07 1.95,-1.05 1.97,-3.02 -0.5,-2.55 0.35,-0.62 9.33,-16.13 1,-0.69 1.64,-6.46 -0.33,-2.75 -2.39,-3.03 -0.7,-0.61 -1.76,-1.1 -1.63,-1.24 -9.65,-7.63 -0.1,-0.31 -0.1,-0.32 0.03,-0.12 0.21,-0.93 0.44,-1.74 0.86,-2.05 -1.3,-4.39 -1.6,-3.81 -2.39,-6.38 -0.17,-2.77 0.06,-0.98 2.27,-1.54 0.81,0.05 1.45,0.03 0.79,-0.24 0.85,-0.58 0.8,-6.72 -0.22,-0.94 -0.39,-0.76 -1.28,-0.14 -0.37,-0.09 -0.48,-0.12 -1.89,-2.09 0.21,-1.5 1.42,-5.55 1.33,-2.46 0.4,-0.65 0.16,-0.09 0.46,-0.22 0.6,-0.21 0.34,-0.12 1.21,0.08 0.6,0.06 0.68,0.06 0.42,-0.32 0.72,-0.62 1.3,-6.81 -0.03,-0.85 -0.61,-0.76 -0.17,-0.25 -0.31,-0.47 0.11,-2.1 -3.65,-0.68 -0.39,-0.18 -0.71,-0.37 -1.1,-2.3 0.06,-0.41 0.44,-0.68 0.1,-0.15 0.35,-1.02 0.12,-0.92 -0.01,-0.64 -2.67,-1.6 -8.11,-3.44 -4.54,-0.81 -3.07,-0.33 -1.82,-0.54 -0.38,-0.12 0.19,-1.67 0.19,-0.53 -0.29,-2.84 -0.7,-0.44 -1.05,-0.66 -4.16,-1.72 -1.05,-0.1 -3.29,0.12 -0.2,-0.05 -1.45,-0.3 -5.72,-2.84 -0.56,-0.8 -0.11,-0.59 0.3,-5.94 0.86,-3.13 0.95,-0.9 0.5,-0.24 0.64,-0.6 0.18,-0.48 0.14,-0.48 -0.03,-0.05 -0.7,-0.76 -0.42,-0.39 -0.25,-0.07 -0.09,-0.02 -0.08,-0.03 -7.82,-1.72 -5.82,-1.15 -0.27,-0.19 -0.26,-0.82 -0.13,-1.89 -1.35,-2.64 -2.67,-1.81 -0.67,-0.05 -3.1,-1.15 -3.49,-2.092 0.02,-0.621 0.06,-0.311 0.02,-0.126 0.31,-0.489 1.76,-1.156 1.45,-0.588 0.9,-0.529 0.61,-0.76 0.38,-0.562 -0.07,-1.262 -1,-3.179 -0.23,-0.436 h -0.19 -0.76 l -0.16,-0.013 -0.47,-0.053 -0.48,-0.199 -1.92,-0.905 -5.02,-2.419 -10.7,-6.45 -2.25,-1.54 -1.06,0.218 -1.89,0.476 -0.29,0.555 -0.28,1.943 -6.98,3.972 -5.34,1.54 -1.44,3.166 -2.68,4.639 -0.04,0.066 -0.23,0.383 -2.09,1.824 -0.69,0.384 -4.79,1.189 -0.25,-0.039 -0.62,-0.106 -0.84,0.026 -2.71,0.311 -0.32,0.172 -0.73,0.575 -0.32,0.429 -0.13,0.265 -0.07,0.138 -0.53,1.094 -0.44,0.96 0.81,1.08 2.5,1.94 1.7,0.97 0.85,0.63 0.43,0.67 -0.15,0.71 -1.04,1.95 0.13,3.64 1.02,2.2 -0.01,2.19 -0.33,9.21 -0.23,2.83 -0.67,0.56 -0.87,0.65 -1.16,0.37 -0.34,0.58 -0.24,0.73 -0.09,0.56 0.17,0.7 0.27,1.13 1.13,1.76 5.06,0.44 0.83,-0.26 1.56,-0.86 0.49,-0.52 0.47,-0.31 2.48,-1.24 1.07,-0.02 2.44,0.24 0.38,0.13 0.54,0.19 0.81,0.41 4.47,5.54 1.5,1.92 -0.02,0.54 -0.17,2.18 -0.18,2.47 0.22,2.15 1.28,0.67 1.29,0.46 2.45,0.79 4.07,1.69 -0.8,6.11 -0.16,0.62 -0.54,2.1 -1.79,1.26 -1.04,0.31 -0.94,0.5 -1.05,0.86 -0.36,0.38 -6.23,7.01 -0.87,1.7 -0.04,0.58 0.36,0.33 0.86,0.39 2.07,2.04 -5.41,1.95 -1.57,-0.01 -2.3,0.21 -4.61,0.43 -2.3,0.22 -0.1,0.01 1.3,1.16 1.31,1.16 1.3,1.17 1.31,1.16 -0.71,4.59 -0.23,1.52 8.4,6.8 6.87,5.31 0.42,1.59 0.42,1.59 -4.13,8.32 -2.51,0.54 -2.5,0.52 -2.73,5.76 1.77,1.41 1.76,1.42 1.77,1.41 -0.23,1.38 -1.11,0.08 -1.03,0.44 -1.89,0.82 -3.33,3.12 -0.31,9.03 0.72,2.42 2.77,-0.74 8.58,2.78 4.59,4 0.86,1.32 1.59,0.59 2.29,0.39 5.14,0.14 1.7,-0.96 2.4,-1.87 4.42,-1.65 2.15,-0.66 1.3,-0.22 4.92,-0.84 2.84,2 -0.54,0.18 -0.49,0.66 -1.79,7.58 -0.56,2.89 1.21,1.55 -1.44,1.41 3.1,2.18 1.82,1.26 4.05,-4.25 0.41,-0.44 0.29,-0.45 0.22,-0.45 z" /><path
       id="산내동"
       style="fill:none;stroke:#44546a;stroke-width:0.23999999;stroke-linecap:round;stroke-linejoin:round;stroke-miterlimit:10;stroke-dasharray:none;stroke-opacity:0.8"
       d="m 458.41,258.96 0.06,-0.08 0.34,-0.44 3.07,-0.01 0.91,0.07 0.48,0.16 2,2.45 0.98,0.68 2.61,0.56 1.37,0.24 0.9,-0.13 6.66,-2.81 2.28,-1.24 2.73,-1.53 1.48,-0.37 1.56,-0.22 0.23,0.01 h 0.14 0.9 l 1.73,0.07 2.5,1.77 2.05,-1.06 3.68,-0.46 4.71,1.12 3.16,1.07 1.95,-1.05 1.97,-3.02 -0.5,-2.55 0.35,-0.62 9.33,-16.13 1,-0.69 1.64,-6.46 -0.33,-2.75 -2.39,-3.03 -0.7,-0.61 -1.76,-1.1 -1.63,-1.24 -9.65,-7.63 -0.1,-0.31 -0.1,-0.32 0.03,-0.12 0.21,-0.93 0.44,-1.74 0.86,-2.05 -1.3,-4.39 -1.6,-3.81 -2.39,-6.38 -0.17,-2.77 0.06,-0.98 2.27,-1.54 0.81,0.05 1.45,0.03 0.79,-0.24 0.85,-0.58 0.8,-6.72 -0.22,-0.94 -0.39,-0.76 -1.28,-0.14 -0.37,-0.09 -0.48,-0.12 -1.89,-2.09 0.21,-1.5 1.42,-5.55 1.33,-2.46 0.4,-0.65 0.16,-0.09 0.46,-0.22 0.6,-0.21 0.34,-0.12 1.21,0.08 0.6,0.06 0.68,0.06 0.42,-0.32 0.72,-0.62 1.3,-6.81 -0.03,-0.85 -0.61,-0.76 -0.17,-0.25 -0.31,-0.47 0.11,-2.1 -3.65,-0.68 -0.39,-0.18 -0.71,-0.37 -1.1,-2.3 0.06,-0.41 0.44,-0.68 0.1,-0.15 0.35,-1.02 0.12,-0.92 -0.01,-0.64 -2.67,-1.6 -8.11,-3.44 -4.54,-0.81 -3.07,-0.33 -1.82,-0.54 -0.38,-0.12 0.19,-1.67 0.19,-0.53 -0.29,-2.84 -0.7,-0.44 -1.05,-0.66 -4.16,-1.72 -1.05,-0.1 -3.29,0.12 -0.2,-0.05 -1.45,-0.3 -5.72,-2.84 -0.56,-0.8 -0.11,-0.59 0.3,-5.94 0.86,-3.13 0.95,-0.9 0.5,-0.24 0.64,-0.6 0.18,-0.48 0.14,-0.48 -0.03,-0.05 -0.7,-0.76 -0.42,-0.39 -0.25,-0.07 -0.09,-0.02 -0.08,-0.03 -7.82,-1.72 -5.82,-1.15 -0.27,-0.19 -0.26,-0.82 -0.13,-1.89 -1.35,-2.64 -2.67,-1.81 -0.67,-0.05 -3.1,-1.15 -3.49,-2.092 0.02,-0.621 0.06,-0.311 0.02,-0.126 0.31,-0.489 1.76,-1.156 1.45,-0.588 0.9,-0.529 0.61,-0.76 0.38,-0.562 -0.07,-1.262 -1,-3.179 -0.23,-0.436 h -0.19 -0.76 l -0.16,-0.013 -0.47,-0.053 -0.48,-0.199 -1.92,-0.905 -5.02,-2.419 -10.7,-6.45 -2.25,-1.54 -1.06,0.218 -1.89,0.476 -0.29,0.555 -0.28,1.943 -6.98,3.972 -5.34,1.54 -1.44,3.166 -2.68,4.639 -0.04,0.066 -0.23,0.383 -2.09,1.824 -0.69,0.384 -4.79,1.189 -0.25,-0.039 -0.62,-0.106 -0.84,0.026 -2.71,0.311 -0.32,0.172 -0.73,0.575 -0.32,0.429 -0.13,0.265 -0.07,0.138 -0.53,1.094 -0.44,0.96 0.81,1.08 2.5,1.94 1.7,0.97 0.85,0.63 0.43,0.67 -0.15,0.71 -1.04,1.95 0.13,3.64 1.02,2.2 -0.01,2.19 -0.33,9.21 -0.23,2.83 -0.67,0.56 -0.87,0.65 -1.16,0.37 -0.34,0.58 -0.24,0.73 -0.09,0.56 0.17,0.7 0.27,1.13 1.13,1.76 5.06,0.44 0.83,-0.26 1.56,-0.86 0.49,-0.52 0.47,-0.31 2.48,-1.24 1.07,-0.02 2.44,0.24 0.38,0.13 0.54,0.19 0.81,0.41 4.47,5.54 1.5,1.92 -0.02,0.54 -0.17,2.18 -0.18,2.47 0.22,2.15 1.28,0.67 1.29,0.46 2.45,0.79 4.07,1.69 -0.8,6.11 -0.16,0.62 -0.54,2.1 -1.79,1.26 -1.04,0.31 -0.94,0.5 -1.05,0.86 -0.36,0.38 -6.23,7.01 -0.87,1.7 -0.04,0.58 0.36,0.33 0.86,0.39 2.07,2.04 -5.41,1.95 -1.57,-0.01 -2.3,0.21 -4.61,0.43 -2.3,0.22 -0.1,0.01 1.3,1.16 1.31,1.16 1.3,1.17 1.31,1.16 -0.71,4.59 -0.23,1.52 8.4,6.8 6.87,5.31 0.42,1.59 0.42,1.59 -4.13,8.32 -2.51,0.54 -2.5,0.52 -2.73,5.76 1.77,1.41 1.76,1.42 1.77,1.41 -0.23,1.38 -1.11,0.08 -1.03,0.44 -1.89,0.82 -3.33,3.12 -0.31,9.03 0.72,2.42 2.77,-0.74 8.58,2.78 4.59,4 0.86,1.32 1.59,0.59 2.29,0.39 5.14,0.14 1.7,-0.96 2.4,-1.87 4.42,-1.65 2.15,-0.66 1.3,-0.22 4.92,-0.84 2.84,2 -0.54,0.18 -0.49,0.66 -1.79,7.58 -0.56,2.89 1.21,1.55 -1.44,1.41 3.1,2.18 1.82,1.26 4.05,-4.25 0.41,-0.44 0.29,-0.45 0.22,-0.45 z" /><path
       id="중앙동"
       style="fill:#c3b6c9;fill-opacity:1;fill-rule:evenodd;stroke:none"
       d="m 426.12,317.92 -3.18,-7.05 0.02,-0.59 -0.94,-5.13 -3.25,-2.96 -0.07,-0.13 -0.33,-0.81 -0.07,-0.2 -0.11,-0.42 -0.01,-0.11 0.15,-0.58 -0.25,-0.09 -2.45,-0.91 -0.06,-0.02 -0.22,0.4 -0.02,0.04 -0.99,1.85 -0.87,1.65 -4.47,-1.69 -2.83,3.48 -2.74,3.42 -3.49,2.78 -2.98,2.26 2.67,1.45 6.92,4.04 0.79,0.44 0.17,0.07 1.13,0.43 0.95,0.1 0.96,-0.64 4.51,1.2 3.32,1.23 1.45,0.05 1.49,-0.19 1.25,-0.51 1.67,-0.84 0.45,-0.25 z" /><path
       id="중앙동"
       style="fill:none;stroke:#44546a;stroke-width:0.23999999;stroke-linecap:round;stroke-linejoin:round;stroke-miterlimit:10;stroke-dasharray:none;stroke-opacity:0.8"
       d="m 426.12,317.92 -3.18,-7.05 0.02,-0.59 -0.94,-5.13 -3.25,-2.96 -0.07,-0.13 -0.33,-0.81 -0.07,-0.2 -0.11,-0.42 -0.01,-0.11 0.15,-0.58 -0.25,-0.09 -2.45,-0.91 -0.06,-0.02 -0.22,0.4 -0.02,0.04 -0.99,1.85 -0.87,1.65 -4.47,-1.69 -2.83,3.48 -2.74,3.42 -3.49,2.78 -2.98,2.26 2.67,1.45 6.92,4.04 0.79,0.44 0.17,0.07 1.13,0.43 0.95,0.1 0.96,-0.64 4.51,1.2 3.32,1.23 1.45,0.05 1.49,-0.19 1.25,-0.51 1.67,-0.84 0.45,-0.25 z" /><path
       id="신인동"
       style="fill:#c3b6c9;fill-opacity:1;fill-rule:evenodd;stroke:none"
       d="m 418.15,300.53 4.85,1.82 6.54,-0.47 0.64,-1.18 0.79,-1.43 0.11,-0.19 1.46,-1.44 0.25,-0.23 0.65,0.48 0.06,0.03 1.13,-1.07 0.14,-0.13 1.94,-2.18 -0.42,-0.61 -0.42,-0.63 -0.85,-1.25 -0.1,0.01 -1.23,0.45 -0.2,-0.27 2.08,-1.32 1.59,-0.78 -1.13,-0.07 -2.61,0.51 -1.15,-0.03 -8.26,-0.46 -0.22,-0.03 -5.5,-1.46 -5.9,8.27 -1.91,2.44 -1.52,1.87 4.48,1.7 0.87,-1.66 0.99,-1.86 0.02,-0.04 0.22,-0.4 0.05,0.02 2.47,0.91 0.24,0.09 z" /><path
       id="신인동"
       style="fill:none;stroke:#44546a;stroke-width:0.23999999;stroke-linecap:round;stroke-linejoin:round;stroke-miterlimit:10;stroke-dasharray:none;stroke-opacity:0.8"
       d="m 418.15,300.53 4.85,1.82 6.54,-0.47 0.64,-1.18 0.79,-1.43 0.11,-0.19 1.46,-1.44 0.25,-0.23 0.65,0.48 0.06,0.03 1.13,-1.07 0.14,-0.13 1.94,-2.18 -0.42,-0.61 -0.42,-0.63 -0.85,-1.25 -0.1,0.01 -1.23,0.45 -0.2,-0.27 2.08,-1.32 1.59,-0.78 -1.13,-0.07 -2.61,0.51 -1.15,-0.03 -8.26,-0.46 -0.22,-0.03 -5.5,-1.46 -5.9,8.27 -1.91,2.44 -1.52,1.87 4.48,1.7 0.87,-1.66 0.99,-1.86 0.02,-0.04 0.22,-0.4 0.05,0.02 2.47,0.91 0.24,0.09 z" /><path
       id="대동"
       style="fill:#c3b6c9;fill-opacity:1;fill-rule:evenodd;stroke:none"
       d="m 441.37,312.36 0.54,-0.66 0.53,-0.69 -0.08,-0.38 -0.91,-2.31 -4.95,-8.25 -0.69,-0.52 -0.51,-0.37 -1.13,-0.83 -0.63,-0.47 -0.06,-0.04 -0.64,-0.48 -0.25,0.23 -1.47,1.45 -0.11,0.18 -0.79,1.43 -0.64,1.18 -6.54,0.47 -4.84,-1.82 0.01,0.11 0.11,0.43 0.07,0.2 0.33,0.8 0.07,0.14 3.25,2.98 0.95,5.15 -0.02,0.59 3.44,0.13 0.33,0.09 0.41,0.2 0.35,0.23 0.84,0.67 0.36,0.5 0.21,0.29 0.12,0.3 0.18,0.43 0.25,0.39 1.07,1.13 0.81,-0.32 2.95,-1.21 0.44,-0.24 1.15,-0.73 z" /><path
       id="대동"
       style="fill:none;stroke:#44546a;stroke-width:0.23999999;stroke-linecap:round;stroke-linejoin:round;stroke-miterlimit:10;stroke-dasharray:none;stroke-opacity:0.8"
       d="m 441.37,312.36 0.54,-0.66 0.53,-0.69 -0.08,-0.38 -0.91,-2.31 -4.95,-8.25 -0.69,-0.52 -0.51,-0.37 -1.13,-0.83 -0.63,-0.47 -0.06,-0.04 -0.64,-0.48 -0.25,0.23 -1.47,1.45 -0.11,0.18 -0.79,1.43 -0.64,1.18 -6.54,0.47 -4.84,-1.82 0.01,0.11 0.11,0.43 0.07,0.2 0.33,0.8 0.07,0.14 3.25,2.98 0.95,5.15 -0.02,0.59 3.44,0.13 0.33,0.09 0.41,0.2 0.35,0.23 0.84,0.67 0.36,0.5 0.21,0.29 0.12,0.3 0.18,0.43 0.25,0.39 1.07,1.13 0.81,-0.32 2.95,-1.21 0.44,-0.24 1.15,-0.73 z" /><path
       id="성남동"
       style="fill:#c3b6c9;fill-opacity:1;fill-rule:evenodd;stroke:none"
       d="m 417.58,322.56 -2.89,0.11 -11.34,3.99 -0.55,0.52 -1.92,1.49 -1.86,0.96 -0.07,0.04 -1.55,0.51 -0.67,0.23 -3.61,1.15 3.33,-0.19 3.48,0.14 0.08,0.03 0.31,0.15 0.18,0.1 1.59,1.18 2.43,2.03 2.41,2.03 1.08,0.9 9.5,3.35 2.29,-9.61 0.44,-4.99 -0.9,-2.85 -0.06,-0.09 -0.19,-0.17 z" /><path
       id="성남동"
       style="fill:none;stroke:#44546a;stroke-width:0.23999999;stroke-linecap:round;stroke-linejoin:round;stroke-miterlimit:10;stroke-dasharray:none;stroke-opacity:0.8"
       d="m 417.58,322.56 -2.89,0.11 -11.34,3.99 -0.55,0.52 -1.92,1.49 -1.86,0.96 -0.07,0.04 -1.55,0.51 -0.67,0.23 -3.61,1.15 3.33,-0.19 3.48,0.14 0.08,0.03 0.31,0.15 0.18,0.1 1.59,1.18 2.43,2.03 2.41,2.03 1.08,0.9 9.5,3.35 2.29,-9.61 0.44,-4.99 -0.9,-2.85 -0.06,-0.09 -0.19,-0.17 z" /><path
       id="삼성동"
       style="fill:#c3b6c9;fill-opacity:1;fill-rule:evenodd;stroke:none"
       d="m 388.87,332.85 4.26,-1.32 3.62,-1.15 0.68,-0.23 1.55,-0.51 0.07,-0.04 1.86,-0.96 1.92,-1.5 0.55,-0.52 11.37,-4 2.9,-0.11 0.79,-1.08 -3.33,-1.24 -4.52,-1.2 -0.96,0.63 -0.96,-0.09 -1.13,-0.43 -0.17,-0.07 -0.79,-0.44 -6.94,-4.06 -2.68,-1.45 -2.69,2.44 -2.63,3.18 -0.38,0.62 -0.22,0.21 -1.19,1.14 -1.78,0.96 -2.83,1.33 -1.8,0.61 -0.84,0.29 -1.69,0.65 -0.57,0.52 -0.89,0.8 -1.39,1.25 -0.79,0.72 -0.5,0.89 -0.65,1.15 -0.76,1.71 1.06,0.27 0.45,0.11 0.24,0.05 4.97,1.04 0.38,0.07 1.15,0.13 0.82,0.02 h 0.2 l 1.5,-0.03 1.08,-0.14 z" /><path
       id="삼성동"
       style="fill:none;stroke:#44546a;stroke-width:0.23999999;stroke-linecap:round;stroke-linejoin:round;stroke-miterlimit:10;stroke-dasharray:none;stroke-opacity:0.8"
       d="m 388.87,332.85 4.26,-1.32 3.62,-1.15 0.68,-0.23 1.55,-0.51 0.07,-0.04 1.86,-0.96 1.92,-1.5 0.55,-0.52 11.37,-4 2.9,-0.11 0.79,-1.08 -3.33,-1.24 -4.52,-1.2 -0.96,0.63 -0.96,-0.09 -1.13,-0.43 -0.17,-0.07 -0.79,-0.44 -6.94,-4.06 -2.68,-1.45 -2.69,2.44 -2.63,3.18 -0.38,0.62 -0.22,0.21 -1.19,1.14 -1.78,0.96 -2.83,1.33 -1.8,0.61 -0.84,0.29 -1.69,0.65 -0.57,0.52 -0.89,0.8 -1.39,1.25 -0.79,0.72 -0.5,0.89 -0.65,1.15 -0.76,1.71 1.06,0.27 0.45,0.11 0.24,0.05 4.97,1.04 0.38,0.07 1.15,0.13 0.82,0.02 h 0.2 l 1.5,-0.03 1.08,-0.14 z" /></g></svg>