<?xml version="1.0" encoding="UTF-8" standalone="no"?>
<svg
   xmlns:dc="http://purl.org/dc/elements/1.1/"
   xmlns:cc="http://creativecommons.org/ns#"
   xmlns:rdf="http://www.w3.org/1999/02/22-rdf-syntax-ns#"
   xmlns:svg="http://www.w3.org/2000/svg"
   xmlns="http://www.w3.org/2000/svg"
   viewBox="0 0 1280 720"
   height="720"
   width="1280"
   xml:space="preserve"
   id="svg2"
   version="1.1"><metadata
     id="metadata8"><rdf:RDF><cc:Work
         rdf:about=""><dc:format>image/svg+xml</dc:format><dc:type
           rdf:resource="http://purl.org/dc/dcmitype/StillImage" /></cc:Work></rdf:RDF></metadata><defs
     id="defs6"><clipPath
       id="clipPath18"
       clipPathUnits="userSpaceOnUse"><path
         style="clip-rule:evenodd"
         id="path16"
         d="M 0,1.2207e-4 H 960 V 540.00012 H 0 Z" /></clipPath></defs><g
     transform="matrix(1.3333333,0,0,-1.3333333,0,720)"
     id="g10"><g
       id="g12"><g
         clip-path="url(#clipPath18)"
         id="g14"><path
           id="path20"
           style="fill:none;fill-opacity:1;fill-rule:evenodd;stroke:none"
           d="M 0,6.1035e-5 H 960 V 540.00006 H 0 Z" /></g></g><path
       id="복수동"
       style="fill:#fbf7ff;fill-opacity:1;fill-rule:evenodd;stroke:none"
       d="m 523.56,346.58 3.48,-1.36 4.32,-2.46 -2.07,-1.97 -1.96,-2.01 -0.78,-2.6 v -0.86 l 0.04,-2.44 0.78,-1.56 0.13,-0.28 0.86,-1.73 0.53,-1.46 -0.21,-1.32 -0.04,-0.2 -0.63,-1.22 -2.16,-3.76 -0.17,-0.32 -0.81,-0.89 -3.69,-4.09 -0.2,-0.21 -6.45,0.34 -1.97,0.27 -0.31,0.26 -2.4,2.39 -2.18,4.7 0.33,1.69 0.41,1.51 0.74,4.97 -0.12,3.72 -0.42,2.74 -0.08,0.05 -1.41,0.82 1.7,3.68 1.69,1.83 7.94,1.63 0.07,0.01 1.16,0.22 0.48,0.06 0.51,0.05 0.66,0.02 1.12,-0.05 h 0.06 l 0.76,-0.1 z" /><path
       id="복수동"
       style="fill:none;stroke:#44546a;stroke-width:0.23999999;stroke-linecap:round;stroke-linejoin:round;stroke-miterlimit:10;stroke-dasharray:none;stroke-opacity:0.8"
       d="m 523.56,346.58 3.48,-1.36 4.32,-2.46 -2.07,-1.97 -1.96,-2.01 -0.78,-2.6 v -0.86 l 0.04,-2.44 0.78,-1.56 0.13,-0.28 0.86,-1.73 0.53,-1.46 -0.21,-1.32 -0.04,-0.2 -0.63,-1.22 -2.16,-3.76 -0.17,-0.32 -0.81,-0.89 -3.69,-4.09 -0.2,-0.21 -6.45,0.34 -1.97,0.27 -0.31,0.26 -2.4,2.39 -2.18,4.7 0.33,1.69 0.41,1.51 0.74,4.97 -0.12,3.72 -0.42,2.74 -0.08,0.05 -1.41,0.82 1.7,3.68 1.69,1.83 7.94,1.63 0.07,0.01 1.16,0.22 0.48,0.06 0.51,0.05 0.66,0.02 1.12,-0.05 h 0.06 l 0.76,-0.1 z" /><path
       id="도마1동"
       style="fill:#fbf7ff;fill-opacity:1;fill-rule:evenodd;stroke:none"
       d="m 534.16,363.54 -0.39,-0.69 -0.21,-0.46 -0.19,-0.59 -0.01,-0.06 -0.17,-0.82 -0.08,-0.62 0.04,-1.06 0.15,-0.56 0.45,-1.63 0.9,-2.6 0.43,-5.17 -3.71,-6.56 -4.33,2.46 -3.47,1.37 0.08,0.55 0.01,0.13 0.17,2.87 v 0.07 l -4.01,10.42 -1.55,0.02 -3.31,0.04 -2.13,0.01 -1.33,0.02 h -1.18 l -1.07,0.01 -2.13,4.51 0.19,4.56 0.04,0.83 0.01,0.19 0.08,1.54 0.33,3.13 0.05,0.15 4.09,-0.57 1.8,1.05 0.96,-0.36 0.06,-0.02 0.38,-0.94 -0.06,-1.43 0.36,-7.37 12.78,-1.58 z" /><path
       id="도마1동"
       style="fill:none;stroke:#44546a;stroke-width:0.23999999;stroke-linecap:round;stroke-linejoin:round;stroke-miterlimit:10;stroke-dasharray:none;stroke-opacity:0.8"
       d="m 534.16,363.54 -0.39,-0.69 -0.21,-0.46 -0.19,-0.59 -0.01,-0.06 -0.17,-0.82 -0.08,-0.62 0.04,-1.06 0.15,-0.56 0.45,-1.63 0.9,-2.6 0.43,-5.17 -3.71,-6.56 -4.33,2.46 -3.47,1.37 0.08,0.55 0.01,0.13 0.17,2.87 v 0.07 l -4.01,10.42 -1.55,0.02 -3.31,0.04 -2.13,0.01 -1.33,0.02 h -1.18 l -1.07,0.01 -2.13,4.51 0.19,4.56 0.04,0.83 0.01,0.19 0.08,1.54 0.33,3.13 0.05,0.15 4.09,-0.57 1.8,1.05 0.96,-0.36 0.06,-0.02 0.38,-0.94 -0.06,-1.43 0.36,-7.37 12.78,-1.58 z" /><path
       id="도마2동"
       style="fill:#fbf7ff;fill-opacity:1;fill-rule:evenodd;stroke:none"
       d="m 495.96,381.13 0.19,-1.34 0.3,-1.29 0.13,-0.34 0.21,-0.49 0.49,-0.85 0.1,-0.12 1.45,-1.56 0.15,-0.04 0.79,0.11 0.92,0.15 1.32,0.43 0.25,0.1 5.53,0.35 0.26,-0.05 0.07,-0.01 -0.35,-0.55 -0.05,-0.15 -0.33,-3.12 -0.07,-1.54 -0.02,-0.19 -0.04,-0.82 -0.19,-4.55 2.13,-4.5 1.08,-0.01 1.18,-0.01 1.33,-0.01 2.13,-0.01 3.31,-0.04 1.56,-0.02 4.01,-10.4 v -0.07 l -0.17,-2.87 -0.01,-0.12 -0.08,-0.56 -0.3,0.08 -0.75,0.1 h -0.07 l -1.11,0.05 -0.66,-0.02 -0.51,-0.05 -0.49,-0.06 -1.16,-0.22 -0.07,-0.01 -7.95,-1.63 -5.02,0.07 -0.52,5.17 0.15,0.6 -6.78,6.21 -0.59,0.4 -0.54,0.35 -4.14,2.54 -3.41,0.54 -1.9,0.3 -0.67,0.1 -0.45,0.43 2.22,3.26 0.16,2.59 0.08,2.88 -0.21,0.82 -0.02,0.21 -0.07,1.63 0.48,2.17 0.58,0.69 2.69,3.24 0.64,1.06 0.32,0.52 0.47,0.63 0.08,0.07 0.05,0.03 0.5,0.2 0.15,0.01 0.28,-0.07 0.11,-0.05 0.06,-0.05 0.05,-0.06 z" /><path
       id="도마2동"
       style="fill:none;stroke:#44546a;stroke-width:0.23999999;stroke-linecap:round;stroke-linejoin:round;stroke-miterlimit:10;stroke-dasharray:none;stroke-opacity:0.8"
       d="m 495.96,381.13 0.19,-1.34 0.3,-1.29 0.13,-0.34 0.21,-0.49 0.49,-0.85 0.1,-0.12 1.45,-1.56 0.15,-0.04 0.79,0.11 0.92,0.15 1.32,0.43 0.25,0.1 5.53,0.35 0.26,-0.05 0.07,-0.01 -0.35,-0.55 -0.05,-0.15 -0.33,-3.12 -0.07,-1.54 -0.02,-0.19 -0.04,-0.82 -0.19,-4.55 2.13,-4.5 1.08,-0.01 1.18,-0.01 1.33,-0.01 2.13,-0.01 3.31,-0.04 1.56,-0.02 4.01,-10.4 v -0.07 l -0.17,-2.87 -0.01,-0.12 -0.08,-0.56 -0.3,0.08 -0.75,0.1 h -0.07 l -1.11,0.05 -0.66,-0.02 -0.51,-0.05 -0.49,-0.06 -1.16,-0.22 -0.07,-0.01 -7.95,-1.63 -5.02,0.07 -0.52,5.17 0.15,0.6 -6.78,6.21 -0.59,0.4 -0.54,0.35 -4.14,2.54 -3.41,0.54 -1.9,0.3 -0.67,0.1 -0.45,0.43 2.22,3.26 0.16,2.59 0.08,2.88 -0.21,0.82 -0.02,0.21 -0.07,1.63 0.48,2.17 0.58,0.69 2.69,3.24 0.64,1.06 0.32,0.52 0.47,0.63 0.08,0.07 0.05,0.03 0.5,0.2 0.15,0.01 0.28,-0.07 0.11,-0.05 0.06,-0.05 0.05,-0.06 z" /><path
       id="정림동"
       style="fill:#fbf7ff;fill-opacity:1;fill-rule:evenodd;stroke:none"
       d="m 510.47,344.85 -1.69,-1.84 -1.71,-3.67 1.42,-0.83 0.08,-0.04 0.42,-2.74 0.12,-3.72 -0.74,-4.98 -0.41,-1.51 -0.34,-1.69 2.18,-4.7 2.41,-2.4 0.31,-0.26 -2.37,-3.33 -2.85,-4.94 -1.89,-9.2 0.09,-1.81 3.38,-7.57 2.46,-4.62 0.1,-0.38 -0.11,-1.39 -0.54,-2.52 -1.03,-2.54 -0.38,-0.53 -0.95,-0.74 -7.34,-2.01 -0.71,0.04 -2.08,0.8 -2.32,0.88 -0.58,-0.23 -1.09,-0.75 -1.5,-5.47 -1.38,-2.56 -1.77,1.23 -0.38,1.78 -1.28,3.56 -1.53,3.46 -2.71,1.9 -4,2.1 -4.26,1.27 -0.91,-0.53 -8.15,3 11.23,1.61 2.59,0.44 1.84,1.17 1.82,1.25 0.56,0.76 0.05,0.55 v 0.84 l -0.33,1.31 -0.09,1.59 0.13,1.95 0.24,1.86 0.46,3.71 0.8,6.32 0.37,2.96 0.06,0.46 0.94,2.68 1.71,3.36 1.79,3.44 0.99,1.4 0.74,1.05 0.99,3.18 0.22,1.83 -0.06,2.1 -0.54,2.74 -1.21,1.74 -2.09,1.94 -0.26,0.24 -0.21,0.2 -1.15,1.11 -2.99,2.88 -1.7,3.39 -2.56,6.29 3.6,4.83 1.8,1.08 0.42,3.93 0.45,-0.43 0.67,-0.1 1.91,-0.3 3.4,-0.54 4.15,-2.53 0.53,-0.36 0.59,-0.4 6.78,-6.21 -0.15,-0.6 0.52,-5.17 z" /><path
       id="정림동"
       style="fill:none;stroke:#44546a;stroke-width:0.23999999;stroke-linecap:round;stroke-linejoin:round;stroke-miterlimit:10;stroke-dasharray:none;stroke-opacity:0.8"
       d="m 510.47,344.85 -1.69,-1.84 -1.71,-3.67 1.42,-0.83 0.08,-0.04 0.42,-2.74 0.12,-3.72 -0.74,-4.98 -0.41,-1.51 -0.34,-1.69 2.18,-4.7 2.41,-2.4 0.31,-0.26 -2.37,-3.33 -2.85,-4.94 -1.89,-9.2 0.09,-1.81 3.38,-7.57 2.46,-4.62 0.1,-0.38 -0.11,-1.39 -0.54,-2.52 -1.03,-2.54 -0.38,-0.53 -0.95,-0.74 -7.34,-2.01 -0.71,0.04 -2.08,0.8 -2.32,0.88 -0.58,-0.23 -1.09,-0.75 -1.5,-5.47 -1.38,-2.56 -1.77,1.23 -0.38,1.78 -1.28,3.56 -1.53,3.46 -2.71,1.9 -4,2.1 -4.26,1.27 -0.91,-0.53 -8.15,3 11.23,1.61 2.59,0.44 1.84,1.17 1.82,1.25 0.56,0.76 0.05,0.55 v 0.84 l -0.33,1.31 -0.09,1.59 0.13,1.95 0.24,1.86 0.46,3.71 0.8,6.32 0.37,2.96 0.06,0.46 0.94,2.68 1.71,3.36 1.79,3.44 0.99,1.4 0.74,1.05 0.99,3.18 0.22,1.83 -0.06,2.1 -0.54,2.74 -1.21,1.74 -2.09,1.94 -0.26,0.24 -0.21,0.2 -1.15,1.11 -2.99,2.88 -1.7,3.39 -2.56,6.29 3.6,4.83 1.8,1.08 0.42,3.93 0.45,-0.43 0.67,-0.1 1.91,-0.3 3.4,-0.54 4.15,-2.53 0.53,-0.36 0.59,-0.4 6.78,-6.21 -0.15,-0.6 0.52,-5.17 z" /><path
       id="변동"
       style="fill:#fbf7ff;fill-opacity:1;fill-rule:evenodd;stroke:none"
       d="m 525.83,376.76 5.92,-0.73 0.69,-0.14 0.6,-0.14 0.59,-0.21 6.61,-2.59 -6.05,-9.35 -5.99,0.84 -12.81,1.57 -0.36,7.36 0.06,1.42 -0.38,0.94 -0.06,0.02 -0.96,0.36 -1.8,-1.05 -4.11,0.58 0.35,0.54 -0.07,0.01 -0.26,0.05 -5.54,-0.35 -0.25,-0.1 -1.32,-0.43 -0.92,-0.15 -0.78,-0.11 -0.16,0.04 -1.45,1.57 -0.1,0.11 -0.49,0.85 -0.21,0.49 -0.14,0.34 -0.29,1.29 -0.19,1.34 0.69,6.34 4.81,0.01 1.43,-1.15 0.85,-0.66 6.73,-4.82 6.21,-1.94 0.4,0.55 0.03,0.04 0.31,0.5 0.46,0.66 0.37,0.51 0.63,-0.33 1.65,-0.93 2.31,-1.35 2.64,-1.58 z" /><path
       id="변동"
       style="fill:none;stroke:#44546a;stroke-width:0.23999999;stroke-linecap:round;stroke-linejoin:round;stroke-miterlimit:10;stroke-dasharray:none;stroke-opacity:0.8"
       d="m 525.83,376.76 5.92,-0.73 0.69,-0.14 0.6,-0.14 0.59,-0.21 6.61,-2.59 -6.05,-9.35 -5.99,0.84 -12.81,1.57 -0.36,7.36 0.06,1.42 -0.38,0.94 -0.06,0.02 -0.96,0.36 -1.8,-1.05 -4.11,0.58 0.35,0.54 -0.07,0.01 -0.26,0.05 -5.54,-0.35 -0.25,-0.1 -1.32,-0.43 -0.92,-0.15 -0.78,-0.11 -0.16,0.04 -1.45,1.57 -0.1,0.11 -0.49,0.85 -0.21,0.49 -0.14,0.34 -0.29,1.29 -0.19,1.34 0.69,6.34 4.81,0.01 1.43,-1.15 0.85,-0.66 6.73,-4.82 6.21,-1.94 0.4,0.55 0.03,0.04 0.31,0.5 0.46,0.66 0.37,0.51 0.63,-0.33 1.65,-0.93 2.31,-1.35 2.64,-1.58 z" /><path
       id="용문동"
       style="fill:#fbf7ff;fill-opacity:1;fill-rule:evenodd;stroke:none"
       d="m 561.03,392.83 -7.28,-6.03 0.79,-0.66 -7.54,-5.98 -11.56,9.67 7.6,5.89 1.32,-1.07 0.8,-0.65 0.4,-0.33 0.82,-0.42 10.74,8.28 6.16,4.43 -1.99,-11.94 z" /><path
       id="용문동"
       style="fill:none;stroke:#44546a;stroke-width:0.23999999;stroke-linecap:round;stroke-linejoin:round;stroke-miterlimit:10;stroke-dasharray:none;stroke-opacity:0.8"
       d="m 561.03,392.83 -7.28,-6.03 0.79,-0.66 -7.54,-5.98 -11.56,9.67 7.6,5.89 1.32,-1.07 0.8,-0.65 0.4,-0.33 0.82,-0.42 10.74,8.28 6.16,4.43 -1.99,-11.94 z" /><path
       id="탄방동"
       style="fill:#fbf7ff;fill-opacity:1;fill-rule:evenodd;stroke:none"
       d="m 549.64,411.19 13.33,-0.04 0.31,-5.2 -6.16,-4.43 -10.76,-8.28 -0.82,0.42 -0.4,0.33 -0.8,0.65 -1.32,1.07 -3.04,2.48 -0.59,0.32 -0.1,0.05 -0.92,0.46 -0.1,0.02 -2.57,0.59 -0.5,0.11 -5.27,1.16 -1.42,0.31 -1.17,0.26 -1.76,-2.43 -1.36,-0.75 -1.56,-0.78 -0.64,0.04 -1.21,0.53 -0.73,0.33 3.53,5.71 1.15,0.69 3.9,2.47 0.04,2.06 0.04,2.02 z" /><path
       id="탄방동"
       style="fill:none;stroke:#44546a;stroke-width:0.23999999;stroke-linecap:round;stroke-linejoin:round;stroke-miterlimit:10;stroke-dasharray:none;stroke-opacity:0.8"
       d="m 549.64,411.19 13.33,-0.04 0.31,-5.2 -6.16,-4.43 -10.76,-8.28 -0.82,0.42 -0.4,0.33 -0.8,0.65 -1.32,1.07 -3.04,2.48 -0.59,0.32 -0.1,0.05 -0.92,0.46 -0.1,0.02 -2.57,0.59 -0.5,0.11 -5.27,1.16 -1.42,0.31 -1.17,0.26 -1.76,-2.43 -1.36,-0.75 -1.56,-0.78 -0.64,0.04 -1.21,0.53 -0.73,0.33 3.53,5.71 1.15,0.69 3.9,2.47 0.04,2.06 0.04,2.02 z" /><path
       id="둔산1동"
       style="fill:#fbf7ff;fill-opacity:1;fill-rule:evenodd;stroke:none"
       d="m 549.72,425.93 -0.01,-2.17 -0.03,-12.64 -20.96,0.17 0.05,3.77 2.81,-0.01 v 3.89 1.92 1.9 l 3.63,3.24 z" /><path
       id="둔산1동"
       style="fill:none;stroke:#44546a;stroke-width:0.23999999;stroke-linecap:round;stroke-linejoin:round;stroke-miterlimit:10;stroke-dasharray:none;stroke-opacity:0.8"
       d="m 549.72,425.93 -0.01,-2.17 -0.03,-12.64 -20.96,0.17 0.05,3.77 2.81,-0.01 v 3.89 1.92 1.9 l 3.63,3.24 z" /><path
       id="둔산2동"
       style="fill:#fbf7ff;fill-opacity:1;fill-rule:evenodd;stroke:none"
       d="m 548.92,438.02 1.37,0.03 0.81,-0.05 3.63,-3.51 3.64,-3.06 4.19,-6.11 -3.34,0.59 h -9.53 l -14.48,0.08 -3.62,-3.25 v -1.89 l -0.01,-1.92 v -3.89 l -2.8,0.01 -0.05,-3.77 -0.04,-2.02 -0.04,-2.05 -3.91,-2.48 -1.15,-0.69 -3.69,4.83 -1.87,1.93 -3.02,1.76 -2.85,1.22 0.1,0.17 0.27,0.54 1.36,2.81 0.14,0.3 0.02,7.74 -0.08,0.77 8.87,-0.03 0.05,12.04 22.03,-0.08 z" /><path
       id="둔산2동"
       style="fill:none;stroke:#44546a;stroke-width:0.23999999;stroke-linecap:round;stroke-linejoin:round;stroke-miterlimit:10;stroke-dasharray:none;stroke-opacity:0.8"
       d="m 548.92,438.02 1.37,0.03 0.81,-0.05 3.63,-3.51 3.64,-3.06 4.19,-6.11 -3.34,0.59 h -9.53 l -14.48,0.08 -3.62,-3.25 v -1.89 l -0.01,-1.92 v -3.89 l -2.8,0.01 -0.05,-3.77 -0.04,-2.02 -0.04,-2.05 -3.91,-2.48 -1.15,-0.69 -3.69,4.83 -1.87,1.93 -3.02,1.76 -2.85,1.22 0.1,0.17 0.27,0.54 1.36,2.81 0.14,0.3 0.02,7.74 -0.08,0.77 8.87,-0.03 0.05,12.04 22.03,-0.08 z" /><path
       id="괴정동"
       style="fill:#fbf7ff;fill-opacity:1;fill-rule:evenodd;stroke:none"
       d="m 543,395.65 -7.6,-5.88 -7.41,-5.89 -0.93,0.79 -4.57,3.87 -2.04,1.73 -0.94,0.79 -0.87,-0.62 -0.18,-0.16 -2.75,-2.4 -8.91,2.71 -1,0.53 -0.94,1.16 -0.27,0.33 -0.47,3.56 5.44,3.52 3.53,-3.14 5.05,0.28 1.23,0.29 0.72,1.23 0.72,-0.33 1.21,-0.54 0.65,-0.04 1.56,0.78 1.35,0.75 1.75,2.43 1.18,-0.26 1.42,-0.31 5.26,-1.15 0.5,-0.12 2.57,-0.58 0.09,-0.03 0.93,-0.46 0.1,-0.05 0.58,-0.32 z" /><path
       id="괴정동"
       style="fill:none;stroke:#44546a;stroke-width:0.23999999;stroke-linecap:round;stroke-linejoin:round;stroke-miterlimit:10;stroke-dasharray:none;stroke-opacity:0.8"
       d="m 543,395.65 -7.6,-5.88 -7.41,-5.89 -0.93,0.79 -4.57,3.87 -2.04,1.73 -0.94,0.79 -0.87,-0.62 -0.18,-0.16 -2.75,-2.4 -8.91,2.71 -1,0.53 -0.94,1.16 -0.27,0.33 -0.47,3.56 5.44,3.52 3.53,-3.14 5.05,0.28 1.23,0.29 0.72,1.23 0.72,-0.33 1.21,-0.54 0.65,-0.04 1.56,0.78 1.35,0.75 1.75,2.43 1.18,-0.26 1.42,-0.31 5.26,-1.15 0.5,-0.12 2.57,-0.58 0.09,-0.03 0.93,-0.46 0.1,-0.05 0.58,-0.32 z" /><path
       id="가장동"
       style="fill:#fbf7ff;fill-opacity:1;fill-rule:evenodd;stroke:none"
       d="m 546.96,380.16 -5.89,-5.98 -0.86,-1.22 -6.59,2.57 -0.59,0.21 -0.6,0.14 -0.68,0.14 -5.91,0.73 4.03,3.26 1.34,1.09 0.11,0.09 -0.12,0.1 -2.38,1.93 -0.84,0.68 7.42,5.86 z" /><path
       id="가장동"
       style="fill:none;stroke:#44546a;stroke-width:0.23999999;stroke-linecap:round;stroke-linejoin:round;stroke-miterlimit:10;stroke-dasharray:none;stroke-opacity:0.8"
       d="m 546.96,380.16 -5.89,-5.98 -0.86,-1.22 -6.59,2.57 -0.59,0.21 -0.6,0.14 -0.68,0.14 -5.91,0.73 4.03,3.26 1.34,1.09 0.11,0.09 -0.12,0.1 -2.38,1.93 -0.84,0.68 7.42,5.86 z" /><path
       id="내동"
       style="fill:#fbf7ff;fill-opacity:1;fill-rule:evenodd;stroke:none"
       d="m 528.01,383.9 0.84,-0.69 2.38,-1.95 0.13,-0.1 -0.11,-0.09 -1.35,-1.1 -4.04,-3.29 -0.34,0.23 -2.64,1.57 -2.32,1.36 -1.64,0.94 -0.64,0.33 -0.37,-0.52 -0.45,-0.65 -0.32,-0.51 -0.03,-0.04 -0.4,-0.55 -6.2,1.95 -6.73,4.84 -0.85,0.66 -1.43,1.15 h -4.81 l -2.3,2.23 -0.7,0.96 -1.21,2.73 0.05,0.95 0.35,0.74 2.76,-0.59 4.19,-0.1 h 1.09 l 2.29,0.89 0.5,0.58 0.29,0.34 0.07,0.07 0.47,-3.58 0.28,-0.33 0.94,-1.16 1,-0.53 8.94,-2.72 2.76,2.41 0.17,0.16 0.88,0.62 0.94,-0.79 2.05,-1.74 4.58,-3.88 z" /><path
       id="내동"
       style="fill:none;stroke:#44546a;stroke-width:0.23999999;stroke-linecap:round;stroke-linejoin:round;stroke-miterlimit:10;stroke-dasharray:none;stroke-opacity:0.8"
       d="m 528.01,383.9 0.84,-0.69 2.38,-1.95 0.13,-0.1 -0.11,-0.09 -1.35,-1.1 -4.04,-3.29 -0.34,0.23 -2.64,1.57 -2.32,1.36 -1.64,0.94 -0.64,0.33 -0.37,-0.52 -0.45,-0.65 -0.32,-0.51 -0.03,-0.04 -0.4,-0.55 -6.2,1.95 -6.73,4.84 -0.85,0.66 -1.43,1.15 h -4.81 l -2.3,2.23 -0.7,0.96 -1.21,2.73 0.05,0.95 0.35,0.74 2.76,-0.59 4.19,-0.1 h 1.09 l 2.29,0.89 0.5,0.58 0.29,0.34 0.07,0.07 0.47,-3.58 0.28,-0.33 0.94,-1.16 1,-0.53 8.94,-2.72 2.76,2.41 0.17,0.16 0.88,0.62 0.94,-0.79 2.05,-1.74 4.58,-3.88 z" /><path
       id="갈마1동"
       style="fill:#fbf7ff;fill-opacity:1;fill-rule:evenodd;stroke:none"
       d="m 514,426.15 0.08,-0.76 -0.02,-7.74 -0.14,-0.3 -1.35,-2.81 -0.27,-0.54 -0.1,-0.17 -5.56,3.21 -0.65,-0.67 -0.52,-0.75 -0.05,-0.68 -0.02,-0.34 0.53,-10.22 0.04,-0.63 0.03,-0.36 0.16,-0.64 0.45,-0.56 2.49,-2.09 0.38,-0.32 0.06,-0.05 -5.44,-3.53 -0.07,-0.07 -0.29,-0.34 -0.5,-0.58 -2.28,-0.88 -1.09,-0.01 -4.18,0.1 -2.76,0.59 0.37,1.06 -0.32,0.61 -0.76,0.82 -0.59,0.27 -0.23,0.28 0.04,0.68 0.44,3.6 0.37,0.86 2.31,3.85 -0.51,4.72 0.13,0.9 1.01,6.51 0.32,0.94 1.01,0.15 0.42,0.06 0.21,0.03 0.44,-0.04 1.11,-0.1 0.34,-0.02 1.68,-0.22 0.6,-0.07 0.1,-0.02 0.54,-0.22 1.2,-0.49 0.9,5.6 0.03,1.43 9.91,0.16 z" /><path
       id="갈마1동"
       style="fill:none;stroke:#44546a;stroke-width:0.23999999;stroke-linecap:round;stroke-linejoin:round;stroke-miterlimit:10;stroke-dasharray:none;stroke-opacity:0.8"
       d="m 514,426.15 0.08,-0.76 -0.02,-7.74 -0.14,-0.3 -1.35,-2.81 -0.27,-0.54 -0.1,-0.17 -5.56,3.21 -0.65,-0.67 -0.52,-0.75 -0.05,-0.68 -0.02,-0.34 0.53,-10.22 0.04,-0.63 0.03,-0.36 0.16,-0.64 0.45,-0.56 2.49,-2.09 0.38,-0.32 0.06,-0.05 -5.44,-3.53 -0.07,-0.07 -0.29,-0.34 -0.5,-0.58 -2.28,-0.88 -1.09,-0.01 -4.18,0.1 -2.76,0.59 0.37,1.06 -0.32,0.61 -0.76,0.82 -0.59,0.27 -0.23,0.28 0.04,0.68 0.44,3.6 0.37,0.86 2.31,3.85 -0.51,4.72 0.13,0.9 1.01,6.51 0.32,0.94 1.01,0.15 0.42,0.06 0.21,0.03 0.44,-0.04 1.11,-0.1 0.34,-0.02 1.68,-0.22 0.6,-0.07 0.1,-0.02 0.54,-0.22 1.2,-0.49 0.9,5.6 0.03,1.43 9.91,0.16 z" /><path
       id="갈마2동"
       style="fill:#fbf7ff;fill-opacity:1;fill-rule:evenodd;stroke:none"
       d="m 512.13,413.8 2.85,-1.22 3.02,-1.76 1.87,-1.92 3.69,-4.82 -3.53,-5.68 -0.72,-1.23 -1.24,-0.29 -5.05,-0.28 -3.55,3.13 -0.06,0.06 -0.39,0.32 -2.49,2.09 -0.44,0.55 -0.17,0.64 -0.02,0.36 -0.04,0.62 -0.54,10.2 0.03,0.34 0.04,0.68 0.52,0.74 0.65,0.67 z" /><path
       id="갈마2동"
       style="fill:none;stroke:#44546a;stroke-width:0.23999999;stroke-linecap:round;stroke-linejoin:round;stroke-miterlimit:10;stroke-dasharray:none;stroke-opacity:0.8"
       d="m 512.13,413.8 2.85,-1.22 3.02,-1.76 1.87,-1.92 3.69,-4.82 -3.53,-5.68 -0.72,-1.23 -1.24,-0.29 -5.05,-0.28 -3.55,3.13 -0.06,0.06 -0.39,0.32 -2.49,2.09 -0.44,0.55 -0.17,0.64 -0.02,0.36 -0.04,0.62 -0.54,10.2 0.03,0.34 0.04,0.68 0.52,0.74 0.65,0.67 z" /><path
       id="월평1동"
       style="fill:#fbf7ff;fill-opacity:1;fill-rule:evenodd;stroke:none"
       d="m 504,426.13 -0.03,-1.43 -0.9,-5.59 -1.2,0.5 -0.53,0.22 -0.1,0.01 -0.6,0.07 -1.68,0.22 -0.34,0.03 -1.1,0.1 -0.44,0.03 -0.21,-0.03 -0.42,-0.06 -1.01,-0.14 -0.32,-0.94 -1.01,-6.5 -0.12,-0.9 0.5,-4.7 -2.31,-3.85 -0.37,-0.85 -0.43,-3.6 -0.04,-0.68 0.23,-0.27 0.59,-0.27 0.76,-0.82 0.32,-0.62 -0.37,-1.05 -0.35,-0.74 -0.05,-0.94 1.21,-2.72 0.69,-0.95 2.29,-2.23 -0.68,-6.33 -0.75,0.23 -0.04,0.06 -0.06,0.06 -0.11,0.04 -0.28,0.07 -0.15,-0.01 -0.5,-0.2 -0.05,-0.03 -0.08,-0.07 -0.47,-0.62 -0.32,-0.53 -0.63,-1.06 -2.68,-3.23 -0.58,-0.69 -1.36,7.71 -8.96,-0.3 0.2,0.68 0.16,0.7 -1.4,7.19 -3.3,10.32 -2.86,9.08 -0.52,2.1 0.53,2.64 0.05,0.25 0.01,0.06 0.1,0.52 4.17,4.2 1.11,1.12 0.62,0.56 0.3,0.26 0.53,0.47 1.02,0.9 0.7,0.63 3.72,3.59 0.26,0.24 8.84,-0.58 z" /><path
       id="월평1동"
       style="fill:none;stroke:#44546a;stroke-width:0.23999999;stroke-linecap:round;stroke-linejoin:round;stroke-miterlimit:10;stroke-dasharray:none;stroke-opacity:0.8"
       d="m 504,426.13 -0.03,-1.43 -0.9,-5.59 -1.2,0.5 -0.53,0.22 -0.1,0.01 -0.6,0.07 -1.68,0.22 -0.34,0.03 -1.1,0.1 -0.44,0.03 -0.21,-0.03 -0.42,-0.06 -1.01,-0.14 -0.32,-0.94 -1.01,-6.5 -0.12,-0.9 0.5,-4.7 -2.31,-3.85 -0.37,-0.85 -0.43,-3.6 -0.04,-0.68 0.23,-0.27 0.59,-0.27 0.76,-0.82 0.32,-0.62 -0.37,-1.05 -0.35,-0.74 -0.05,-0.94 1.21,-2.72 0.69,-0.95 2.29,-2.23 -0.68,-6.33 -0.75,0.23 -0.04,0.06 -0.06,0.06 -0.11,0.04 -0.28,0.07 -0.15,-0.01 -0.5,-0.2 -0.05,-0.03 -0.08,-0.07 -0.47,-0.62 -0.32,-0.53 -0.63,-1.06 -2.68,-3.23 -0.58,-0.69 -1.36,7.71 -8.96,-0.3 0.2,0.68 0.16,0.7 -1.4,7.19 -3.3,10.32 -2.86,9.08 -0.52,2.1 0.53,2.64 0.05,0.25 0.01,0.06 0.1,0.52 4.17,4.2 1.11,1.12 0.62,0.56 0.3,0.26 0.53,0.47 1.02,0.9 0.7,0.63 3.72,3.59 0.26,0.24 8.84,-0.58 z" /><path
       id="월평2동"
       style="fill:#fbf7ff;fill-opacity:1;fill-rule:evenodd;stroke:none"
       d="m 522.84,438.12 -0.05,-12 -8.87,0.03 v 0.2 l 0.01,0.88 0.02,4.34 0.01,1.1 v 1.03 h -2.31 l -3.71,0.01 -1.53,0.01 h -0.72 -1.56 l -4.21,4.52 z" /><path
       id="월평2동"
       style="fill:none;stroke:#44546a;stroke-width:0.23999999;stroke-linecap:round;stroke-linejoin:round;stroke-miterlimit:10;stroke-dasharray:none;stroke-opacity:0.8"
       d="m 522.84,438.12 -0.05,-12 -8.87,0.03 v 0.2 l 0.01,0.88 0.02,4.34 0.01,1.1 v 1.03 h -2.31 l -3.71,0.01 -1.53,0.01 h -0.72 -1.56 l -4.21,4.52 z" /><path
       id="월평3동"
       style="fill:#fbf7ff;fill-opacity:1;fill-rule:evenodd;stroke:none"
       d="m 499.93,438.25 4.21,-4.5 1.56,-0.01 h 0.72 1.52 l 3.72,-0.01 2.3,-0.01 v -1.02 l -0.01,-1.1 -0.02,-4.33 v -0.87 l -9.92,-0.16 -10.83,1.32 -8.86,0.58 11.58,8.48 3.63,2.1 z" /><path
       id="월평3동"
       style="fill:none;stroke:#44546a;stroke-width:0.23999999;stroke-linecap:round;stroke-linejoin:round;stroke-miterlimit:10;stroke-dasharray:none;stroke-opacity:0.8"
       d="m 499.93,438.25 4.21,-4.5 1.56,-0.01 h 0.72 1.52 l 3.72,-0.01 2.3,-0.01 v -1.02 l -0.01,-1.1 -0.02,-4.33 v -0.87 l -9.92,-0.16 -10.83,1.32 -8.86,0.58 11.58,8.48 3.63,2.1 z" /><path
       id="만년동"
       style="fill:#fbf7ff;fill-opacity:1;fill-rule:evenodd;stroke:none"
       d="m 549.24,451.4 -0.58,-1.18 0.13,-10.66 0.15,-1.56 -4.01,0.02 -22.03,0.08 -22.94,0.12 -0.4,0.47 4.69,2.21 2.81,1.92 0.29,0.23 1.8,1.42 1.69,1.33 1.59,0.8 2.38,1.18 2.94,1.32 6.71,2.63 2.6,-0.1 1.51,-0.02 2.28,0.24 2.28,0.23 3.05,0.48 2.24,0.25 2.03,0.07 2.94,-0.42 2.54,-0.83 z" /><path
       id="만년동"
       style="fill:none;stroke:#44546a;stroke-width:0.23999999;stroke-linecap:round;stroke-linejoin:round;stroke-miterlimit:10;stroke-dasharray:none;stroke-opacity:0.8"
       d="m 549.24,451.4 -0.58,-1.18 0.13,-10.66 0.15,-1.56 -4.01,0.02 -22.03,0.08 -22.94,0.12 -0.4,0.47 4.69,2.21 2.81,1.92 0.29,0.23 1.8,1.42 1.69,1.33 1.59,0.8 2.38,1.18 2.94,1.32 6.71,2.63 2.6,-0.1 1.51,-0.02 2.28,0.24 2.28,0.23 3.05,0.48 2.24,0.25 2.03,0.07 2.94,-0.42 2.54,-0.83 z" /><path
       id="가수원동"
       style="fill:#fbf7ff;fill-opacity:1;fill-rule:evenodd;stroke:none"
       d="m 489.26,375.09 -0.48,-2.17 0.07,-1.63 0.02,-0.21 0.21,-0.82 -0.08,-2.88 -0.16,-2.59 -2.22,-3.26 -0.42,-3.93 -1.81,-1.08 -3.6,-4.83 2.56,-6.28 1.7,-3.39 3,-2.89 1.14,-1.11 0.21,-0.2 0.26,-0.24 2.1,-1.93 1.21,-1.75 0.53,-2.74 0.06,-2.09 -0.21,-1.83 -0.99,-3.18 -0.74,-1.05 -1,-1.4 -1.79,-3.44 -1.7,-3.36 -0.95,-2.68 -0.06,-0.46 -0.37,-2.96 -0.79,-6.31 -0.47,-3.72 -0.23,-1.85 -0.13,-1.96 0.09,-1.58 0.33,-1.32 v -0.84 l -0.05,-0.54 -0.57,-0.76 -1.81,-1.25 -1.85,-1.17 -2.59,-0.44 -11.23,-1.61 -0.71,0.35 -0.54,0.26 -0.78,0.38 -1.8,1.73 -1.81,1.73 -0.21,1.56 -7.55,2.29 -1.97,0.21 -1.99,0.21 -1.97,0.21 -3.67,2.91 -0.66,2.65 -0.95,1.21 2.85,1.4 4.74,1.94 6.12,2.07 1.22,0.07 2.17,-0.07 2.14,0.47 2.85,0.63 2.54,0.83 0.59,0.63 -0.14,0.09 -0.88,1.07 -0.45,0.61 -0.73,2.12 -0.05,0.14 v 0.15 l 0.16,0.23 0.78,1.14 0.94,1.6 1.02,1.77 1.64,6.85 0.05,1.36 -1.99,4.49 -2.93,3.13 -0.35,1.28 -0.14,1.08 -0.23,1.76 0.62,2.66 -0.16,2.86 -2.96,-0.02 -1.23,-1.3 -1.28,-0.69 -0.86,-0.18 -1.12,3.29 -0.28,0.89 -0.15,0.74 -0.12,0.89 0.12,0.64 -2.51,2.68 0.51,1.74 1.09,6.11 -3.34,0.06 -0.4,1.13 -1.47,7.43 -1.28,9.15 0.01,3.2 3.67,0.03 0.02,1.23 0.04,2.16 26.22,-0.09 8.99,0.29 z" /><path
       id="가수원동"
       style="fill:none;stroke:#44546a;stroke-width:0.23999999;stroke-linecap:round;stroke-linejoin:round;stroke-miterlimit:10;stroke-dasharray:none;stroke-opacity:0.8"
       d="m 489.26,375.09 -0.48,-2.17 0.07,-1.63 0.02,-0.21 0.21,-0.82 -0.08,-2.88 -0.16,-2.59 -2.22,-3.26 -0.42,-3.93 -1.81,-1.08 -3.6,-4.83 2.56,-6.28 1.7,-3.39 3,-2.89 1.14,-1.11 0.21,-0.2 0.26,-0.24 2.1,-1.93 1.21,-1.75 0.53,-2.74 0.06,-2.09 -0.21,-1.83 -0.99,-3.18 -0.74,-1.05 -1,-1.4 -1.79,-3.44 -1.7,-3.36 -0.95,-2.68 -0.06,-0.46 -0.37,-2.96 -0.79,-6.31 -0.47,-3.72 -0.23,-1.85 -0.13,-1.96 0.09,-1.58 0.33,-1.32 v -0.84 l -0.05,-0.54 -0.57,-0.76 -1.81,-1.25 -1.85,-1.17 -2.59,-0.44 -11.23,-1.61 -0.71,0.35 -0.54,0.26 -0.78,0.38 -1.8,1.73 -1.81,1.73 -0.21,1.56 -7.55,2.29 -1.97,0.21 -1.99,0.21 -1.97,0.21 -3.67,2.91 -0.66,2.65 -0.95,1.21 2.85,1.4 4.74,1.94 6.12,2.07 1.22,0.07 2.17,-0.07 2.14,0.47 2.85,0.63 2.54,0.83 0.59,0.63 -0.14,0.09 -0.88,1.07 -0.45,0.61 -0.73,2.12 -0.05,0.14 v 0.15 l 0.16,0.23 0.78,1.14 0.94,1.6 1.02,1.77 1.64,6.85 0.05,1.36 -1.99,4.49 -2.93,3.13 -0.35,1.28 -0.14,1.08 -0.23,1.76 0.62,2.66 -0.16,2.86 -2.96,-0.02 -1.23,-1.3 -1.28,-0.69 -0.86,-0.18 -1.12,3.29 -0.28,0.89 -0.15,0.74 -0.12,0.89 0.12,0.64 -2.51,2.68 0.51,1.74 1.09,6.11 -3.34,0.06 -0.4,1.13 -1.47,7.43 -1.28,9.15 0.01,3.2 3.67,0.03 0.02,1.23 0.04,2.16 26.22,-0.09 8.99,0.29 z" /><path
       id="기성동"
       style="fill:#fbf7ff;fill-opacity:1;fill-rule:evenodd;stroke:none"
       d="m 441.86,301.02 0.95,-1.21 0.66,-2.65 3.67,-2.91 1.98,-0.21 1.98,-0.21 1.98,-0.21 7.55,-2.29 0.21,-1.57 1.8,-1.72 1.8,-1.73 0.79,-0.39 0.53,-0.26 0.72,-0.35 8.15,-3 0.9,0.53 4.27,-1.27 4,-2.1 2.7,-1.9 1.54,-3.46 1.27,-3.57 0.38,-1.77 1.78,-1.23 -0.66,-0.25 -0.35,-0.24 -0.05,-0.06 -0.13,-0.15 -0.96,-1.95 -0.16,-0.4 0.08,-0.23 0.6,-0.28 0.42,-0.49 0.21,-1.31 0.41,-6.23 1.19,-6.9 3.15,-2.3 1.31,-0.98 1.01,-5.71 0.07,-1.25 -0.01,-4.28 -0.19,-2.64 -1.63,-6.42 -1.85,-7.06 -0.86,-2.56 1.85,-3.13 -1.69,-2.63 -3.4,-6.54 0.15,-1.2 0.29,-0.79 0.63,-0.56 1.35,-0.81 3.01,-2.28 0.58,-0.92 0.62,-1.15 1.3,-3.89 -0.83,-1.75 -1.26,-0.42 -3.59,-0.53 -0.39,0.17 -0.91,0.03 h -0.15 l -0.96,-1.98 -0.35,-1.37 -0.27,-2.13 -0.23,-2.29 -2.36,-0.43 -5.41,-1.48 -1.46,-0.78 -1.7,-0.89 -5.63,-6 -3.36,-5.51 -1.52,-2.96 -0.15,-1.34 0.18,-0.09 0.73,-0.05 0.62,-0.53 0.12,-6.14 -0.16,-0.48 -0.25,-0.76 -2.96,-0.97 -1.83,-0.24 -1.27,-0.56 -2.64,-4.44 -0.6,-1.12 -0.2,-0.39 -0.3,-0.74 -0.48,-2.01 -0.21,-0.92 -0.42,-1.76 -0.69,-1.56 -6.04,-6.02 -3.41,-3.32 -1,-0.3 -0.97,-0.29 -2.15,0.73 -1.62,0.64 -0.5,0.41 0.38,0.83 0.08,0.18 0.03,0.13 0.13,3.07 -0.02,1.99 -0.8,5.5 -1.04,3.8 -1.04,1.69 3.55,5.55 2.2,3.44 0.11,0.13 0.04,0.07 v 0.07 l -0.17,0.96 -0.5,0.59 -8.55,5.53 -0.09,0.03 -0.24,-0.04 -1.09,-0.27 -0.26,-0.08 -0.14,-0.12 -0.07,-0.05 -0.03,-0.04 -5.73,-1.02 -0.15,0.02 -0.18,0.13 -0.05,0.04 -0.36,0.33 -0.24,0.29 -0.17,0.33 -3.03,8.01 -0.65,1.97 -0.14,2.35 -0.06,1.87 1.12,1.07 0.16,0.33 0.07,0.14 0.11,0.49 0.01,0.15 0.01,0.16 -0.06,0.31 -0.15,0.21 -0.46,0.47 -0.13,0.12 -2.33,2.16 -6.59,8.9 -0.08,0.12 -0.16,0.25 -0.08,0.12 -0.16,0.21 -1.85,2.24 -0.14,0.07 -7.26,3.19 -0.21,0.08 -0.87,0.33 -0.33,0.06 -0.31,0.03 -0.11,0.01 -0.34,0.01 -0.18,0.07 -1.92,1.44 -2.51,2.13 -0.2,0.21 -0.1,0.1 -0.26,0.33 -1.18,1.75 -0.27,0.53 -0.26,0.51 -0.05,0.05 -0.14,0.02 -1.46,0.22 h -0.06 -0.13 l -0.09,-0.02 h -0.08 l -0.07,-0.03 -0.1,-0.04 -0.29,-0.2 -0.06,-0.05 -0.06,-0.05 -0.08,-0.13 -0.08,-0.2 -0.21,-1.02 -0.32,-1.67 v -0.31 l 0.12,-0.91 0.16,-0.61 0.34,-1.54 0.24,-1.11 0.4,-2.25 0.05,-0.6 -0.05,-0.37 -0.02,-0.17 -0.04,-0.16 -0.22,-0.41 -0.23,-0.27 -0.28,-0.22 -0.43,-0.23 -0.46,-0.18 -0.54,-0.18 -0.39,-0.1 -0.15,-0.03 -0.25,-0.05 -0.72,-0.11 -0.28,-0.01 -0.44,-0.01 -0.33,0.02 -0.47,0.02 -0.88,0.16 -4.51,1.18 -6.04,1.92 -0.19,0.18 -0.03,0.09 -0.84,3.49 -0.52,3.55 -2.9,4.83 -5,4.51 -8.83,6.29 0.03,0.09 0.02,0.11 v 0.13 l -0.2,3.1 -2.28,4.6 -1.79,3.13 -0.88,1.5 -3.25,-0.02 1.1,0.28 1.52,0.83 0.84,0.66 1.54,1.21 0.1,0.73 0.27,2.24 -0.48,1.07 -0.86,3.29 -0.72,3.74 1.55,2.28 0.9,0.08 0.47,0.16 0.23,0.21 1.1,3.68 0.05,0.32 -0.61,0.85 -0.53,0.73 0.05,0.48 0.12,0.23 0.12,0.25 0.62,0.79 1.7,1.65 1.26,0.89 3.05,1.69 1.78,0.82 1.79,0.81 2.4,1.05 2.4,1.05 1.5,1.85 0.01,0.26 1.15,-0.37 0.43,0.22 0.92,0.46 1.34,2.19 1.42,1.52 1.43,1.52 8.11,4.34 1.99,0.45 1.99,0.45 0.6,0.27 2.11,0.92 4.22,1.85 0.4,0.25 0.21,0.14 0.14,0.64 -0.39,2.43 0.4,1.2 0.31,0.93 1.68,0.98 1.67,0.97 1.66,2.3 -0.09,1.85 0.87,4.75 0.6,0.62 4.96,4.26 2.46,1.42 1.99,0.09 3.71,-2.89 0.78,-3.51 -0.04,-0.76 -0.13,-1.57 -0.1,-0.52 -0.16,-0.36 -0.51,-1.08 0.13,-0.38 12.89,4.26 0.46,0.15 z" /><path
       id="기성동"
       style="fill:none;stroke:#44546a;stroke-width:0.23999999;stroke-linecap:round;stroke-linejoin:round;stroke-miterlimit:10;stroke-dasharray:none;stroke-opacity:0.8"
       d="m 441.86,301.02 0.95,-1.21 0.66,-2.65 3.67,-2.91 1.98,-0.21 1.98,-0.21 1.98,-0.21 7.55,-2.29 0.21,-1.57 1.8,-1.72 1.8,-1.73 0.79,-0.39 0.53,-0.26 0.72,-0.35 8.15,-3 0.9,0.53 4.27,-1.27 4,-2.1 2.7,-1.9 1.54,-3.46 1.27,-3.57 0.38,-1.77 1.78,-1.23 -0.66,-0.25 -0.35,-0.24 -0.05,-0.06 -0.13,-0.15 -0.96,-1.95 -0.16,-0.4 0.08,-0.23 0.6,-0.28 0.42,-0.49 0.21,-1.31 0.41,-6.23 1.19,-6.9 3.15,-2.3 1.31,-0.98 1.01,-5.71 0.07,-1.25 -0.01,-4.28 -0.19,-2.64 -1.63,-6.42 -1.85,-7.06 -0.86,-2.56 1.85,-3.13 -1.69,-2.63 -3.4,-6.54 0.15,-1.2 0.29,-0.79 0.63,-0.56 1.35,-0.81 3.01,-2.28 0.58,-0.92 0.62,-1.15 1.3,-3.89 -0.83,-1.75 -1.26,-0.42 -3.59,-0.53 -0.39,0.17 -0.91,0.03 h -0.15 l -0.96,-1.98 -0.35,-1.37 -0.27,-2.13 -0.23,-2.29 -2.36,-0.43 -5.41,-1.48 -1.46,-0.78 -1.7,-0.89 -5.63,-6 -3.36,-5.51 -1.52,-2.96 -0.15,-1.34 0.18,-0.09 0.73,-0.05 0.62,-0.53 0.12,-6.14 -0.16,-0.48 -0.25,-0.76 -2.96,-0.97 -1.83,-0.24 -1.27,-0.56 -2.64,-4.44 -0.6,-1.12 -0.2,-0.39 -0.3,-0.74 -0.48,-2.01 -0.21,-0.92 -0.42,-1.76 -0.69,-1.56 -6.04,-6.02 -3.41,-3.32 -1,-0.3 -0.97,-0.29 -2.15,0.73 -1.62,0.64 -0.5,0.41 0.38,0.83 0.08,0.18 0.03,0.13 0.13,3.07 -0.02,1.99 -0.8,5.5 -1.04,3.8 -1.04,1.69 3.55,5.55 2.2,3.44 0.11,0.13 0.04,0.07 v 0.07 l -0.17,0.96 -0.5,0.59 -8.55,5.53 -0.09,0.03 -0.24,-0.04 -1.09,-0.27 -0.26,-0.08 -0.14,-0.12 -0.07,-0.05 -0.03,-0.04 -5.73,-1.02 -0.15,0.02 -0.18,0.13 -0.05,0.04 -0.36,0.33 -0.24,0.29 -0.17,0.33 -3.03,8.01 -0.65,1.97 -0.14,2.35 -0.06,1.87 1.12,1.07 0.16,0.33 0.07,0.14 0.11,0.49 0.01,0.15 0.01,0.16 -0.06,0.31 -0.15,0.21 -0.46,0.47 -0.13,0.12 -2.33,2.16 -6.59,8.9 -0.08,0.12 -0.16,0.25 -0.08,0.12 -0.16,0.21 -1.85,2.24 -0.14,0.07 -7.26,3.19 -0.21,0.08 -0.87,0.33 -0.33,0.06 -0.31,0.03 -0.11,0.01 -0.34,0.01 -0.18,0.07 -1.92,1.44 -2.51,2.13 -0.2,0.21 -0.1,0.1 -0.26,0.33 -1.18,1.75 -0.27,0.53 -0.26,0.51 -0.05,0.05 -0.14,0.02 -1.46,0.22 h -0.06 -0.13 l -0.09,-0.02 h -0.08 l -0.07,-0.03 -0.1,-0.04 -0.29,-0.2 -0.06,-0.05 -0.06,-0.05 -0.08,-0.13 -0.08,-0.2 -0.21,-1.02 -0.32,-1.67 v -0.31 l 0.12,-0.91 0.16,-0.61 0.34,-1.54 0.24,-1.11 0.4,-2.25 0.05,-0.6 -0.05,-0.37 -0.02,-0.17 -0.04,-0.16 -0.22,-0.41 -0.23,-0.27 -0.28,-0.22 -0.43,-0.23 -0.46,-0.18 -0.54,-0.18 -0.39,-0.1 -0.15,-0.03 -0.25,-0.05 -0.72,-0.11 -0.28,-0.01 -0.44,-0.01 -0.33,0.02 -0.47,0.02 -0.88,0.16 -4.51,1.18 -6.04,1.92 -0.19,0.18 -0.03,0.09 -0.84,3.49 -0.52,3.55 -2.9,4.83 -5,4.51 -8.83,6.29 0.03,0.09 0.02,0.11 v 0.13 l -0.2,3.1 -2.28,4.6 -1.79,3.13 -0.88,1.5 -3.25,-0.02 1.1,0.28 1.52,0.83 0.84,0.66 1.54,1.21 0.1,0.73 0.27,2.24 -0.48,1.07 -0.86,3.29 -0.72,3.74 1.55,2.28 0.9,0.08 0.47,0.16 0.23,0.21 1.1,3.68 0.05,0.32 -0.61,0.85 -0.53,0.73 0.05,0.48 0.12,0.23 0.12,0.25 0.62,0.79 1.7,1.65 1.26,0.89 3.05,1.69 1.78,0.82 1.79,0.81 2.4,1.05 2.4,1.05 1.5,1.85 0.01,0.26 1.15,-0.37 0.43,0.22 0.92,0.46 1.34,2.19 1.42,1.52 1.43,1.52 8.11,4.34 1.99,0.45 1.99,0.45 0.6,0.27 2.11,0.92 4.22,1.85 0.4,0.25 0.21,0.14 0.14,0.64 -0.39,2.43 0.4,1.2 0.31,0.93 1.68,0.98 1.67,0.97 1.66,2.3 -0.09,1.85 0.87,4.75 0.6,0.62 4.96,4.26 2.46,1.42 1.99,0.09 3.71,-2.89 0.78,-3.51 -0.04,-0.76 -0.13,-1.57 -0.1,-0.52 -0.16,-0.36 -0.51,-1.08 0.13,-0.38 12.89,4.26 0.46,0.15 z" /><path
       id="관저1동"
       style="fill:#fbf7ff;fill-opacity:1;fill-rule:evenodd;stroke:none"
       d="m 464.52,333.77 -2.49,-0.32 -0.55,-0.09 -1.07,-0.19 -0.04,-0.01 -0.98,-0.22 -0.21,-0.05 -0.8,-0.19 -2.36,-0.56 -0.2,-0.04 -0.74,-0.26 -0.56,-0.2 -0.38,-0.13 -0.16,-0.05 -1.29,-0.39 -0.35,-0.07 -0.77,-0.16 -0.9,-0.19 -0.67,-0.13 -0.65,-0.02 -0.41,-0.02 -1.92,0.02 -3.51,0.07 0.02,5.18 -0.48,0.03 -0.01,5.61 1.49,2.64 1.79,1.57 5.19,4.08 2.35,0.72 2.51,-2.68 -0.12,-0.65 0.12,-0.89 0.15,-0.75 0.29,-0.89 1.11,-3.3 0.86,0.18 1.29,0.69 1.22,1.31 2.97,0.02 0.16,-2.87 -0.62,-2.67 0.23,-1.76 0.14,-1.09 z" /><path
       id="관저1동"
       style="fill:none;stroke:#44546a;stroke-width:0.23999999;stroke-linecap:round;stroke-linejoin:round;stroke-miterlimit:10;stroke-dasharray:none;stroke-opacity:0.8"
       d="m 464.52,333.77 -2.49,-0.32 -0.55,-0.09 -1.07,-0.19 -0.04,-0.01 -0.98,-0.22 -0.21,-0.05 -0.8,-0.19 -2.36,-0.56 -0.2,-0.04 -0.74,-0.26 -0.56,-0.2 -0.38,-0.13 -0.16,-0.05 -1.29,-0.39 -0.35,-0.07 -0.77,-0.16 -0.9,-0.19 -0.67,-0.13 -0.65,-0.02 -0.41,-0.02 -1.92,0.02 -3.51,0.07 0.02,5.18 -0.48,0.03 -0.01,5.61 1.49,2.64 1.79,1.57 5.19,4.08 2.35,0.72 2.51,-2.68 -0.12,-0.65 0.12,-0.89 0.15,-0.75 0.29,-0.89 1.11,-3.3 0.86,0.18 1.29,0.69 1.22,1.31 2.97,0.02 0.16,-2.87 -0.62,-2.67 0.23,-1.76 0.14,-1.09 z" /><path
       id="관저2동"
       style="fill:#fbf7ff;fill-opacity:1;fill-rule:evenodd;stroke:none"
       d="m 441.89,301.06 -8.46,-3.97 -0.46,-0.15 -12.89,-4.26 -0.13,0.38 0.51,1.08 0.16,0.37 0.1,0.51 0.13,1.57 0.04,0.77 -0.78,3.51 -3.71,2.89 0.48,0.15 1.28,0.47 1.27,0.73 1,0.82 0.81,0.95 0.26,0.57 0.21,0.7 0.11,1.31 -0.03,1.08 -0.04,3.41 0.18,0.83 1.13,2.8 2.31,5.58 0.65,0.77 0.74,0.87 3.1,2.92 3.69,1.23 2.05,0.66 1.19,0.39 1.45,0.45 1.89,0.23 2.49,-0.02 h 0.32 l 0.59,-0.01 3.51,-0.07 1.92,-0.02 0.41,0.02 0.65,0.02 0.67,0.13 0.9,0.19 0.77,0.15 0.35,0.08 1.29,0.39 0.16,0.04 0.37,0.14 0.57,0.19 0.74,0.26 0.19,0.05 2.36,0.55 0.8,0.2 0.22,0.04 0.97,0.22 0.04,0.01 1.07,0.19 0.55,0.09 2.49,0.32 2.93,-3.14 1.98,-4.5 -0.05,-1.36 -1.64,-6.86 -1.01,-1.77 -0.95,-1.6 -0.78,-1.14 -0.15,-0.24 v -0.14 l 0.05,-0.15 0.72,-2.12 0.45,-0.61 0.88,-1.07 0.14,-0.1 -0.58,-0.62 -2.54,-0.84 -2.86,-0.63 -2.13,-0.47 -2.17,0.08 -1.23,-0.08 -6.11,-2.07 -4.74,-1.95 z" /><path
       id="관저2동"
       style="fill:none;stroke:#44546a;stroke-width:0.23999999;stroke-linecap:round;stroke-linejoin:round;stroke-miterlimit:10;stroke-dasharray:none;stroke-opacity:0.8"
       d="m 441.89,301.06 -8.46,-3.97 -0.46,-0.15 -12.89,-4.26 -0.13,0.38 0.51,1.08 0.16,0.37 0.1,0.51 0.13,1.57 0.04,0.77 -0.78,3.51 -3.71,2.89 0.48,0.15 1.28,0.47 1.27,0.73 1,0.82 0.81,0.95 0.26,0.57 0.21,0.7 0.11,1.31 -0.03,1.08 -0.04,3.41 0.18,0.83 1.13,2.8 2.31,5.58 0.65,0.77 0.74,0.87 3.1,2.92 3.69,1.23 2.05,0.66 1.19,0.39 1.45,0.45 1.89,0.23 2.49,-0.02 h 0.32 l 0.59,-0.01 3.51,-0.07 1.92,-0.02 0.41,0.02 0.65,0.02 0.67,0.13 0.9,0.19 0.77,0.15 0.35,0.08 1.29,0.39 0.16,0.04 0.37,0.14 0.57,0.19 0.74,0.26 0.19,0.05 2.36,0.55 0.8,0.2 0.22,0.04 0.97,0.22 0.04,0.01 1.07,0.19 0.55,0.09 2.49,0.32 2.93,-3.14 1.98,-4.5 -0.05,-1.36 -1.64,-6.86 -1.01,-1.77 -0.95,-1.6 -0.78,-1.14 -0.15,-0.24 v -0.14 l 0.05,-0.15 0.72,-2.12 0.45,-0.61 0.88,-1.07 0.14,-0.1 -0.58,-0.62 -2.54,-0.84 -2.86,-0.63 -2.13,-0.47 -2.17,0.08 -1.23,-0.08 -6.11,-2.07 -4.74,-1.95 z" /><path
       id="둔산3동"
       style="fill:#fbf7ff;fill-opacity:1;fill-rule:evenodd;stroke:none"
       d="m 562.55,425.4 0.54,-1.78 0.05,-0.81 0.14,-2.31 -0.01,-1.91 -0.01,-1.84 -0.01,-1.32 -0.59,-2.39 0.33,-1.92 -13.39,0.03 0.03,12.68 0.01,2.17 h 9.56 z" /><path
       id="둔산3동"
       style="fill:none;stroke:#44546a;stroke-width:0.23999999;stroke-linecap:round;stroke-linejoin:round;stroke-miterlimit:10;stroke-dasharray:none;stroke-opacity:0.8"
       d="m 562.55,425.4 0.54,-1.78 0.05,-0.81 0.14,-2.31 -0.01,-1.91 -0.01,-1.84 -0.01,-1.32 -0.59,-2.39 0.33,-1.92 -13.39,0.03 0.03,12.68 0.01,2.17 h 9.56 z" /></g></svg>