<?xml version="1.0" encoding="UTF-8" standalone="no"?>
<svg
   xmlns:dc="http://purl.org/dc/elements/1.1/"
   xmlns:cc="http://creativecommons.org/ns#"
   xmlns:rdf="http://www.w3.org/1999/02/22-rdf-syntax-ns#"
   xmlns:svg="http://www.w3.org/2000/svg"
   xmlns="http://www.w3.org/2000/svg"
   viewBox="0 0 1280 720"
   height="720"
   width="1280"
   xml:space="preserve"
   id="svg2"
   version="1.1"><metadata
     id="metadata8"><rdf:RDF><cc:Work
         rdf:about=""><dc:format>image/svg+xml</dc:format><dc:type
           rdf:resource="http://purl.org/dc/dcmitype/StillImage" /></cc:Work></rdf:RDF></metadata><defs
     id="defs6"><clipPath
       id="clipPath18"
       clipPathUnits="userSpaceOnUse"><path
         style="clip-rule:evenodd"
         id="path16"
         d="M 0,1.2207e-4 H 960 V 540.00012 H 0 Z" /></clipPath></defs><g
     transform="matrix(1.3333333,0,0,-1.3333333,0,720)"
     id="g10"><g
       id="g12"><g
         clip-path="url(#clipPath18)"
         id="g14"><path
           id="path20"
           style="fill:none;fill-opacity:1;fill-rule:evenodd;stroke:none"
           d="M 0,6.1035e-5 H 960 V 540.00006 H 0 Z" /></g></g><path
       id="온천2동"
       style="fill:#ebb4e7;fill-opacity:1;fill-rule:evenodd;stroke:none"
       d="m 537.6,269.72 -6.7,-2.63 -2.93,-1.32 -2.37,-1.18 -1.6,-0.8 -1.68,-1.33 -1.8,-1.42 -0.29,-0.22 -2.8,-1.92 -4.68,-2.22 -3.63,-2.11 -3.5,-1.37 -1.73,-0.89 -3.65,-1.87 -0.36,-0.22 -0.06,-0.05 -3.26,-1.36 -8.24,-2.26 -0.11,-0.01 -2.21,-0.05 -0.8,-0.01 -0.84,-0.02 -0.93,0.11 -2.92,0.36 -3.78,0.47 -0.99,0.12 -0.31,-0.02 -0.44,-0.02 -1.26,-0.42 -0.53,-0.18 -0.72,-0.73 -0.31,-0.32 -0.23,-0.23 -0.17,-0.18 -0.32,-0.31 -0.16,-0.16 -0.39,-0.38 -0.86,-0.86 -1.45,-0.43 -1.82,-0.55 -1.04,-0.25 -0.7,-0.17 -1.88,-0.22 -0.39,-0.05 -0.34,0.01 -0.83,0.01 -0.34,0.01 -0.9,0.16 -0.72,0.12 -1.15,0.21 -1.29,0.22 -5.11,1.99 -9.95,2.3 -4.49,1.74 -2.76,1.07 1.66,0.77 5.58,2.04 4.57,2.15 7.36,4.49 0.49,7.7 0.13,0.82 0.39,1.26 0.33,0.86 1.44,3.11 2.17,4.98 0.73,1.66 0.97,2.28 1.4,3.24 0.37,-0.07 7.58,-3.73 4.1,-2.26 0.95,-1.49 4.74,-1.37 3.37,-2.33 0.23,-3.96 2.02,-2.08 0.78,-0.89 1.6,0.24 -0.14,2.45 0.48,3.71 3.03,2.7 0.15,0.39 -0.66,1.57 0.43,0.96 4.41,4.19 1.34,-1.56 1.34,-1.56 0.11,-0.05 1.06,-0.51 8.02,-3.82 2.56,-0.51 3.67,-0.75 6.09,0.31 3.79,1.89 1.88,0.95 2.01,-0.17 2.01,-0.16 1.87,-1.1 1.89,-2.35 1.5,-1.68 1.11,-1.25 z" /><path
       id="온천2동"
       style="fill:none;stroke:#44546a;stroke-width:0.23999999;stroke-linecap:round;stroke-linejoin:round;stroke-miterlimit:10;stroke-dasharray:none;stroke-opacity:0.8"
       d="m 537.6,269.72 -6.7,-2.63 -2.93,-1.32 -2.37,-1.18 -1.6,-0.8 -1.68,-1.33 -1.8,-1.42 -0.29,-0.22 -2.8,-1.92 -4.68,-2.22 -3.63,-2.11 -3.5,-1.37 -1.73,-0.89 -3.65,-1.87 -0.36,-0.22 -0.06,-0.05 -3.26,-1.36 -8.24,-2.26 -0.11,-0.01 -2.21,-0.05 -0.8,-0.01 -0.84,-0.02 -0.93,0.11 -2.92,0.36 -3.78,0.47 -0.99,0.12 -0.31,-0.02 -0.44,-0.02 -1.26,-0.42 -0.53,-0.18 -0.72,-0.73 -0.31,-0.32 -0.23,-0.23 -0.17,-0.18 -0.32,-0.31 -0.16,-0.16 -0.39,-0.38 -0.86,-0.86 -1.45,-0.43 -1.82,-0.55 -1.04,-0.25 -0.7,-0.17 -1.88,-0.22 -0.39,-0.05 -0.34,0.01 -0.83,0.01 -0.34,0.01 -0.9,0.16 -0.72,0.12 -1.15,0.21 -1.29,0.22 -5.11,1.99 -9.95,2.3 -4.49,1.74 -2.76,1.07 1.66,0.77 5.58,2.04 4.57,2.15 7.36,4.49 0.49,7.7 0.13,0.82 0.39,1.26 0.33,0.86 1.44,3.11 2.17,4.98 0.73,1.66 0.97,2.28 1.4,3.24 0.37,-0.07 7.58,-3.73 4.1,-2.26 0.95,-1.49 4.74,-1.37 3.37,-2.33 0.23,-3.96 2.02,-2.08 0.78,-0.89 1.6,0.24 -0.14,2.45 0.48,3.71 3.03,2.7 0.15,0.39 -0.66,1.57 0.43,0.96 4.41,4.19 1.34,-1.56 1.34,-1.56 0.11,-0.05 1.06,-0.51 8.02,-3.82 2.56,-0.51 3.67,-0.75 6.09,0.31 3.79,1.89 1.88,0.95 2.01,-0.17 2.01,-0.16 1.87,-1.1 1.89,-2.35 1.5,-1.68 1.11,-1.25 z" /><path
       id="신성동"
       style="fill:#ebb4e7;fill-opacity:1;fill-rule:evenodd;stroke:none"
       d="m 539.7,352.05 -0.6,-0.5 -4.68,-5.04 0.44,-1.59 1.63,-1.02 4.56,-3.34 0.35,-0.28 0.7,-0.54 2.9,-3 3.96,-0.04 0.64,-0.68 2.93,-5.12 0.05,-0.22 -0.05,-0.41 -0.19,-0.5 -0.72,-1.75 -5.44,-5.84 -2.72,-0.07 -2.73,-0.06 -1.33,-0.15 -0.79,-1.2 -1.4,-2.78 -0.17,-0.62 -0.03,-1.31 0.45,-1.98 0.65,-2.49 -0.58,-5.49 -0.55,-0.9 -0.03,-0.51 0.85,-1.06 6.4,-8.01 0.62,-1.94 3.98,-7.29 1.26,-1.29 0.6,-0.37 0.94,-0.04 4.53,-0.9 1.72,-0.45 1.62,-0.51 0.85,-0.68 0.18,-0.39 2.34,-2.23 3.72,-3 2.89,-1.37 2.71,-1.76 -9.75,-3.89 -3.31,0.23 -2.54,0.82 -2.94,0.43 -2.03,-0.08 -2.23,-0.24 -3.05,-0.48 -2.28,-0.23 -2.28,-0.23 -1.51,0.02 -2.6,0.09 -1.81,1.23 -1.11,1.24 -1.5,1.68 -1.9,2.35 -1.87,1.1 -2.01,0.16 -2.01,0.16 -1.89,-0.94 -3.79,-1.89 -6.11,-0.3 -3.67,0.73 -2.56,0.52 -8.03,3.81 -1.06,0.5 -0.12,0.05 -1.34,1.56 -1.34,1.56 -4.42,-4.18 -0.43,-0.96 0.66,-1.56 -0.15,-0.39 -3.03,-2.7 -0.48,-3.7 0.14,-2.44 -1.6,-0.24 -0.78,0.89 -2.02,2.07 -0.24,3.95 -3.37,2.33 -4.74,1.36 -0.96,1.48 -4.1,2.26 -7.6,3.72 -0.37,0.07 -9.53,3.1 1.57,2.48 2.66,3.71 1.49,6.59 -0.74,0.99 -1.35,0.68 -5.9,1.24 -0.31,0.07 -0.03,0.38 0.09,1.15 0.04,0.09 0.09,0.11 0.41,0.52 0.86,0.35 1.88,1.05 0.73,2.63 0.16,1.2 -0.53,1.37 -2.08,1.49 -1.91,0.61 -2.21,0.86 -1.48,3.03 -3.55,8.83 -0.07,2.85 0.37,2.03 2.04,0.94 1.76,-0.45 0.71,1.11 1.03,4.52 0.01,2.21 -0.93,0.76 -0.87,1.7 -0.86,1.69 0.33,6.55 0.89,1.55 0.75,0.37 0.82,0.42 1.9,1.06 9.44,6.66 7.44,4.62 3,2.04 2.53,-0.42 1.87,-1.1 4.66,-1.47 5.51,-1.22 2.91,-0.01 0.48,0.4 1.08,1.11 0.13,3.48 0.14,3.48 0.81,1.79 3.68,2.47 2.24,-1.44 0.76,-1.55 2.69,-2.89 4.72,-3.81 1.14,-1.35 0.57,-0.23 0.43,0.28 1.15,1.73 1.31,2.62 -0.24,1.68 3.06,3.41 1.88,1.36 1.99,-1.54 1.98,-1.54 2.24,-1.31 4.06,0.35 2.44,-3.05 -0.15,-0.96 0.99,-1.35 3.5,-4.17 1.89,-1.38 1.79,-0.34 2.12,-0.98 0.34,-2.47 -0.14,-1.59 0.12,-1.15 1.29,-1.51 z" /><path
       id="신성동"
       style="fill:none;stroke:#44546a;stroke-width:0.23999999;stroke-linecap:round;stroke-linejoin:round;stroke-miterlimit:10;stroke-dasharray:none;stroke-opacity:0.8"
       d="m 539.7,352.05 -0.6,-0.5 -4.68,-5.04 0.44,-1.59 1.63,-1.02 4.56,-3.34 0.35,-0.28 0.7,-0.54 2.9,-3 3.96,-0.04 0.64,-0.68 2.93,-5.12 0.05,-0.22 -0.05,-0.41 -0.19,-0.5 -0.72,-1.75 -5.44,-5.84 -2.72,-0.07 -2.73,-0.06 -1.33,-0.15 -0.79,-1.2 -1.4,-2.78 -0.17,-0.62 -0.03,-1.31 0.45,-1.98 0.65,-2.49 -0.58,-5.49 -0.55,-0.9 -0.03,-0.51 0.85,-1.06 6.4,-8.01 0.62,-1.94 3.98,-7.29 1.26,-1.29 0.6,-0.37 0.94,-0.04 4.53,-0.9 1.72,-0.45 1.62,-0.51 0.85,-0.68 0.18,-0.39 2.34,-2.23 3.72,-3 2.89,-1.37 2.71,-1.76 -9.75,-3.89 -3.31,0.23 -2.54,0.82 -2.94,0.43 -2.03,-0.08 -2.23,-0.24 -3.05,-0.48 -2.28,-0.23 -2.28,-0.23 -1.51,0.02 -2.6,0.09 -1.81,1.23 -1.11,1.24 -1.5,1.68 -1.9,2.35 -1.87,1.1 -2.01,0.16 -2.01,0.16 -1.89,-0.94 -3.79,-1.89 -6.11,-0.3 -3.67,0.73 -2.56,0.52 -8.03,3.81 -1.06,0.5 -0.12,0.05 -1.34,1.56 -1.34,1.56 -4.42,-4.18 -0.43,-0.96 0.66,-1.56 -0.15,-0.39 -3.03,-2.7 -0.48,-3.7 0.14,-2.44 -1.6,-0.24 -0.78,0.89 -2.02,2.07 -0.24,3.95 -3.37,2.33 -4.74,1.36 -0.96,1.48 -4.1,2.26 -7.6,3.72 -0.37,0.07 -9.53,3.1 1.57,2.48 2.66,3.71 1.49,6.59 -0.74,0.99 -1.35,0.68 -5.9,1.24 -0.31,0.07 -0.03,0.38 0.09,1.15 0.04,0.09 0.09,0.11 0.41,0.52 0.86,0.35 1.88,1.05 0.73,2.63 0.16,1.2 -0.53,1.37 -2.08,1.49 -1.91,0.61 -2.21,0.86 -1.48,3.03 -3.55,8.83 -0.07,2.85 0.37,2.03 2.04,0.94 1.76,-0.45 0.71,1.11 1.03,4.52 0.01,2.21 -0.93,0.76 -0.87,1.7 -0.86,1.69 0.33,6.55 0.89,1.55 0.75,0.37 0.82,0.42 1.9,1.06 9.44,6.66 7.44,4.62 3,2.04 2.53,-0.42 1.87,-1.1 4.66,-1.47 5.51,-1.22 2.91,-0.01 0.48,0.4 1.08,1.11 0.13,3.48 0.14,3.48 0.81,1.79 3.68,2.47 2.24,-1.44 0.76,-1.55 2.69,-2.89 4.72,-3.81 1.14,-1.35 0.57,-0.23 0.43,0.28 1.15,1.73 1.31,2.62 -0.24,1.68 3.06,3.41 1.88,1.36 1.99,-1.54 1.98,-1.54 2.24,-1.31 4.06,0.35 2.44,-3.05 -0.15,-0.96 0.99,-1.35 3.5,-4.17 1.89,-1.38 1.79,-0.34 2.12,-0.98 0.34,-2.47 -0.14,-1.59 0.12,-1.15 1.29,-1.51 z" /><path
       id="전민동"
       style="fill:#ebb4e7;fill-opacity:1;fill-rule:evenodd;stroke:none"
       d="m 596.4,333.49 -0.19,-2.23 -1.36,-7.19 -0.35,-5.91 -0.84,-3.33 -0.63,-2.09 -1.25,-1.57 -0.16,-0.2 -1.37,-3.5 -1.11,-8.88 v -2.29 l 0.41,-4.26 0.23,-1.85 0.22,-1.86 -0.06,-2.44 -0.14,-1.25 -0.42,-0.91 -0.65,-1.41 -1.1,-1.55 -0.73,-1.02 -0.07,-0.09 -0.3,-0.42 -1.72,-1.17 -3.75,-2.15 -0.21,-0.11 -0.96,-0.5 -1.18,-0.4 -2.5,-0.39 -4.03,-1.28 -2.7,1.77 -2.89,1.37 -3.72,3 -2.34,2.24 -0.18,0.39 -0.85,0.68 -1.61,0.5 -1.72,0.46 -4.53,0.9 -0.94,0.04 -0.6,0.38 -1.26,1.28 -3.98,7.3 -0.61,1.95 -6.4,8.03 -0.85,1.06 0.03,0.51 0.55,0.9 0.58,5.5 -0.65,2.49 -0.45,1.99 0.03,1.31 0.17,0.62 1.4,2.78 0.79,1.21 1.33,0.14 2.72,0.07 2.72,0.06 5.44,5.85 0.72,1.76 0.19,0.5 0.04,0.41 -0.04,0.22 -2.93,5.13 -0.64,0.68 11.93,-2.92 -1.76,-0.27 -0.14,-0.02 -0.05,-0.03 -0.04,-0.04 -0.02,-0.06 0.01,-0.07 0.05,-0.08 0.61,-0.92 0.51,-0.53 0.31,-0.26 1.92,-1.5 3.58,-0.46 1.62,-0.02 5.39,0.1 1.87,0.47 1.85,0.47 6.9,0.62 6.58,0.38 0.57,0.61 0.39,0.97 0.07,0.93 2.65,0.47 z" /><path
       id="전민동"
       style="fill:none;stroke:#44546a;stroke-width:0.23999999;stroke-linecap:round;stroke-linejoin:round;stroke-miterlimit:10;stroke-dasharray:none;stroke-opacity:0.8"
       d="m 596.4,333.49 -0.19,-2.23 -1.36,-7.19 -0.35,-5.91 -0.84,-3.33 -0.63,-2.09 -1.25,-1.57 -0.16,-0.2 -1.37,-3.5 -1.11,-8.88 v -2.29 l 0.41,-4.26 0.23,-1.85 0.22,-1.86 -0.06,-2.44 -0.14,-1.25 -0.42,-0.91 -0.65,-1.41 -1.1,-1.55 -0.73,-1.02 -0.07,-0.09 -0.3,-0.42 -1.72,-1.17 -3.75,-2.15 -0.21,-0.11 -0.96,-0.5 -1.18,-0.4 -2.5,-0.39 -4.03,-1.28 -2.7,1.77 -2.89,1.37 -3.72,3 -2.34,2.24 -0.18,0.39 -0.85,0.68 -1.61,0.5 -1.72,0.46 -4.53,0.9 -0.94,0.04 -0.6,0.38 -1.26,1.28 -3.98,7.3 -0.61,1.95 -6.4,8.03 -0.85,1.06 0.03,0.51 0.55,0.9 0.58,5.5 -0.65,2.49 -0.45,1.99 0.03,1.31 0.17,0.62 1.4,2.78 0.79,1.21 1.33,0.14 2.72,0.07 2.72,0.06 5.44,5.85 0.72,1.76 0.19,0.5 0.04,0.41 -0.04,0.22 -2.93,5.13 -0.64,0.68 11.93,-2.92 -1.76,-0.27 -0.14,-0.02 -0.05,-0.03 -0.04,-0.04 -0.02,-0.06 0.01,-0.07 0.05,-0.08 0.61,-0.92 0.51,-0.53 0.31,-0.26 1.92,-1.5 3.58,-0.46 1.62,-0.02 5.39,0.1 1.87,0.47 1.85,0.47 6.9,0.62 6.58,0.38 0.57,0.61 0.39,0.97 0.07,0.93 2.65,0.47 z" /><path
       id="노은1동"
       style="fill:#ebb4e7;fill-opacity:1;fill-rule:evenodd;stroke:none"
       d="m 462.12,285.26 -1.39,-3.23 -0.98,-2.29 -0.73,-1.65 -2.18,-4.97 -1.43,-3.12 -0.33,-0.86 -0.4,-1.25 -0.12,-0.82 -0.5,-7.69 -7.37,-4.49 -4.57,-2.14 -5.59,-2.04 -1.66,-0.77 -3.93,0.85 -4.24,1.21 -7.51,-0.02 -2.8,-0.21 -2.79,-0.2 -0.23,2.09 -0.23,2.08 -1.82,2.16 -2.32,0.06 -1.92,-1.86 -0.15,-1.17 0.64,-1.81 0.31,-3.02 -0.74,0.44 -3.85,0.55 -1.01,-0.39 -1.95,-1.31 -0.66,-0.29 -1.37,-0.6 -1.5,-0.67 -1.76,-0.74 -0.77,-2.28 -4.62,-2.12 -4.36,-1.91 -10.22,-2.97 -2.02,-0.31 -3.77,-2.49 -2.14,-3.32 -3.67,-2.61 -1.54,1.9 -1.51,1.64 -4.1,3.53 -0.77,0.38 -1.66,1.56 -1.87,5.21 -0.42,2.39 -0.06,3.27 -0.06,0.35 v 0.22 l 0.07,0.19 0.21,0.33 1.31,1.25 0.47,0.43 0.04,0.04 0.27,0.22 1.21,0.95 0.53,0.12 0.28,0.06 0.76,0.25 0.67,0.23 0.26,0.1 0.57,0.24 1.36,0.58 0.51,0.26 0.46,0.25 0.33,0.2 0.95,0.64 0.74,0.57 0.18,0.15 0.18,0.16 0.06,0.08 -0.02,0.15 0.06,5.73 2.84,3.27 2.92,6.97 0.03,0.13 -1.12,6.21 -0.05,0.1 -0.08,0.15 -0.19,0.26 -0.18,0.16 -0.34,0.17 -0.46,0.24 -0.29,0.13 -0.21,0.1 -0.23,0.14 -0.05,0.04 -0.09,0.06 -0.14,0.13 -0.04,0.04 -0.1,0.32 -0.08,0.37 -0.03,0.52 0.05,0.49 0.2,1.83 1.66,0.16 1.19,0.19 0.25,0.08 2.45,0.92 1.49,0.71 1.23,-0.06 4.65,-0.68 6.95,-1.57 6.74,-0.67 6.81,-0.06 1.2,0.75 0.94,0.19 0.67,-0.11 0.46,-0.55 0.71,-1.84 0.36,-1.81 0.36,-2.44 0.19,-1.5 0.43,-1.72 0.37,-0.62 7.06,-5.75 1.13,-0.7 0.52,-0.06 6.77,0.15 7.31,1.32 0.19,0.06 0.21,0.23 -0.76,5.87 4.58,-0.01 2.52,0.02 h 0.41 l 4,0.01 1.2,0.01 3.12,1.18 0.94,0.55 5.13,6.29 1.95,2.67 1.9,2.61 z" /><path
       id="노은1동"
       style="fill:none;stroke:#44546a;stroke-width:0.23999999;stroke-linecap:round;stroke-linejoin:round;stroke-miterlimit:10;stroke-dasharray:none;stroke-opacity:0.8"
       d="m 462.12,285.26 -1.39,-3.23 -0.98,-2.29 -0.73,-1.65 -2.18,-4.97 -1.43,-3.12 -0.33,-0.86 -0.4,-1.25 -0.12,-0.82 -0.5,-7.69 -7.37,-4.49 -4.57,-2.14 -5.59,-2.04 -1.66,-0.77 -3.93,0.85 -4.24,1.21 -7.51,-0.02 -2.8,-0.21 -2.79,-0.2 -0.23,2.09 -0.23,2.08 -1.82,2.16 -2.32,0.06 -1.92,-1.86 -0.15,-1.17 0.64,-1.81 0.31,-3.02 -0.74,0.44 -3.85,0.55 -1.01,-0.39 -1.95,-1.31 -0.66,-0.29 -1.37,-0.6 -1.5,-0.67 -1.76,-0.74 -0.77,-2.28 -4.62,-2.12 -4.36,-1.91 -10.22,-2.97 -2.02,-0.31 -3.77,-2.49 -2.14,-3.32 -3.67,-2.61 -1.54,1.9 -1.51,1.64 -4.1,3.53 -0.77,0.38 -1.66,1.56 -1.87,5.21 -0.42,2.39 -0.06,3.27 -0.06,0.35 v 0.22 l 0.07,0.19 0.21,0.33 1.31,1.25 0.47,0.43 0.04,0.04 0.27,0.22 1.21,0.95 0.53,0.12 0.28,0.06 0.76,0.25 0.67,0.23 0.26,0.1 0.57,0.24 1.36,0.58 0.51,0.26 0.46,0.25 0.33,0.2 0.95,0.64 0.74,0.57 0.18,0.15 0.18,0.16 0.06,0.08 -0.02,0.15 0.06,5.73 2.84,3.27 2.92,6.97 0.03,0.13 -1.12,6.21 -0.05,0.1 -0.08,0.15 -0.19,0.26 -0.18,0.16 -0.34,0.17 -0.46,0.24 -0.29,0.13 -0.21,0.1 -0.23,0.14 -0.05,0.04 -0.09,0.06 -0.14,0.13 -0.04,0.04 -0.1,0.32 -0.08,0.37 -0.03,0.52 0.05,0.49 0.2,1.83 1.66,0.16 1.19,0.19 0.25,0.08 2.45,0.92 1.49,0.71 1.23,-0.06 4.65,-0.68 6.95,-1.57 6.74,-0.67 6.81,-0.06 1.2,0.75 0.94,0.19 0.67,-0.11 0.46,-0.55 0.71,-1.84 0.36,-1.81 0.36,-2.44 0.19,-1.5 0.43,-1.72 0.37,-0.62 7.06,-5.75 1.13,-0.7 0.52,-0.06 6.77,0.15 7.31,1.32 0.19,0.06 0.21,0.23 -0.76,5.87 4.58,-0.01 2.52,0.02 h 0.41 l 4,0.01 1.2,0.01 3.12,1.18 0.94,0.55 5.13,6.29 1.95,2.67 1.9,2.61 z" /><path
       id="구즉동"
       style="fill:#ebb4e7;fill-opacity:1;fill-rule:evenodd;stroke:none"
       d="m 575.41,410.45 0.34,-1.96 -0.24,-1.52 -0.24,-1.52 -6.99,-2.73 -1.82,-0.2 -0.59,0.01 -2.57,-0.15 -3.4,-0.64 -1.78,-1.28 -0.92,-0.91 -1.74,-3.73 -0.29,-0.81 0.66,-7.07 0.14,-0.94 0.58,-1.12 0.39,-0.46 1.06,-1.25 0.55,-0.55 1.47,-1.48 1.52,-1.35 -4.89,-3.47 -4.59,-3.25 -0.2,-0.23 -0.12,-0.13 -0.2,-0.22 -0.1,-0.23 -3.29,-6.85 -1.02,-2.13 -0.16,-0.33 -0.08,-0.16 -2.15,-4.59 -0.32,-0.72 -0.65,-1.47 -0.08,-0.18 -0.97,-1.58 -0.51,-0.55 -1,-1.06 -1.46,-1.56 -1.58,1.69 -1.29,1.52 -0.11,1.15 0.13,1.59 -0.34,2.46 -2.11,0.98 -1.8,0.34 -1.89,1.39 -3.49,4.17 -0.99,1.35 0.15,0.97 -2.45,3.04 -4.06,-0.34 -2.23,1.31 -1.98,1.54 -1.98,1.54 -1.89,-1.36 -3.06,-3.41 0.24,-1.68 -1.3,-2.63 -1.16,-1.73 -0.42,-0.28 -0.58,0.23 -1.13,1.35 -4.72,3.81 -2.69,2.89 -0.76,1.56 -2.24,1.44 -3.68,-2.47 -0.81,-1.79 -0.13,-3.49 -0.14,-3.48 -1.08,-1.12 -0.48,-0.39 -2.91,0.01 -5.51,1.22 -4.66,1.47 -1.86,1.1 -2.53,0.43 -0.6,1.46 -0.79,7.03 2.82,3.41 0.85,0.12 0.84,0.12 0.24,0.84 0.06,0.17 0.05,0.22 0.24,1.83 1.79,4.77 1.27,2.94 7.18,4.68 6.09,0.99 0.98,0.18 0.93,0.9 3.24,3.58 0.57,0.65 4.81,8.67 -0.17,0.57 -1.29,2.68 -1.52,4.65 -1.7,5.67 1.27,1.17 3.03,0.81 3.97,4.83 4.76,3.92 1.34,2.32 0.15,1.24 0.01,3.38 -0.64,1.16 -0.4,0.18 -1.36,0.6 -1.3,0.67 -0.57,0.83 -1.19,1.91 -2.13,6.84 -1.51,6.45 0.09,1.17 0.14,1.95 1.81,5.09 1.66,1.44 3.05,-0.49 0.53,-0.09 1.84,-0.5 1.83,-0.51 1.84,-0.5 4.61,-0.42 3.29,1.24 1.68,1.27 3.05,2.32 1.25,1.21 1.25,1.2 0.42,0.63 1.77,2.6 3.04,3.66 2.63,2.35 1.63,1.23 2.72,0.73 2.84,-0.46 0.42,-0.07 3.06,-1.2 2.51,-1.56 1.04,-1.38 1.5,-1.99 3.28,-4.3 2.1,-0.74 2.08,-0.74 3.08,-2.57 4.23,-3.55 4.74,-3.54 1.47,-1.58 1.47,-1.58 2.61,-3.83 0.17,-3.15 -0.86,-5.63 -0.59,-3.41 -0.92,-2.27 -0.68,-1.69 -1.01,-1.69 -1.02,-1.69 -1.23,-2.82 -0.25,-9.61 -0.02,-3.62 V 420 l 0.26,-1.64 0.27,-1.63 0.26,-1.63 0.61,-1.78 0.95,-1.24 1.18,-1.41 z" /><path
       id="구즉동"
       style="fill:none;stroke:#44546a;stroke-width:0.23999999;stroke-linecap:round;stroke-linejoin:round;stroke-miterlimit:10;stroke-dasharray:none;stroke-opacity:0.8"
       d="m 575.41,410.45 0.34,-1.96 -0.24,-1.52 -0.24,-1.52 -6.99,-2.73 -1.82,-0.2 -0.59,0.01 -2.57,-0.15 -3.4,-0.64 -1.78,-1.28 -0.92,-0.91 -1.74,-3.73 -0.29,-0.81 0.66,-7.07 0.14,-0.94 0.58,-1.12 0.39,-0.46 1.06,-1.25 0.55,-0.55 1.47,-1.48 1.52,-1.35 -4.89,-3.47 -4.59,-3.25 -0.2,-0.23 -0.12,-0.13 -0.2,-0.22 -0.1,-0.23 -3.29,-6.85 -1.02,-2.13 -0.16,-0.33 -0.08,-0.16 -2.15,-4.59 -0.32,-0.72 -0.65,-1.47 -0.08,-0.18 -0.97,-1.58 -0.51,-0.55 -1,-1.06 -1.46,-1.56 -1.58,1.69 -1.29,1.52 -0.11,1.15 0.13,1.59 -0.34,2.46 -2.11,0.98 -1.8,0.34 -1.89,1.39 -3.49,4.17 -0.99,1.35 0.15,0.97 -2.45,3.04 -4.06,-0.34 -2.23,1.31 -1.98,1.54 -1.98,1.54 -1.89,-1.36 -3.06,-3.41 0.24,-1.68 -1.3,-2.63 -1.16,-1.73 -0.42,-0.28 -0.58,0.23 -1.13,1.35 -4.72,3.81 -2.69,2.89 -0.76,1.56 -2.24,1.44 -3.68,-2.47 -0.81,-1.79 -0.13,-3.49 -0.14,-3.48 -1.08,-1.12 -0.48,-0.39 -2.91,0.01 -5.51,1.22 -4.66,1.47 -1.86,1.1 -2.53,0.43 -0.6,1.46 -0.79,7.03 2.82,3.41 0.85,0.12 0.84,0.12 0.24,0.84 0.06,0.17 0.05,0.22 0.24,1.83 1.79,4.77 1.27,2.94 7.18,4.68 6.09,0.99 0.98,0.18 0.93,0.9 3.24,3.58 0.57,0.65 4.81,8.67 -0.17,0.57 -1.29,2.68 -1.52,4.65 -1.7,5.67 1.27,1.17 3.03,0.81 3.97,4.83 4.76,3.92 1.34,2.32 0.15,1.24 0.01,3.38 -0.64,1.16 -0.4,0.18 -1.36,0.6 -1.3,0.67 -0.57,0.83 -1.19,1.91 -2.13,6.84 -1.51,6.45 0.09,1.17 0.14,1.95 1.81,5.09 1.66,1.44 3.05,-0.49 0.53,-0.09 1.84,-0.5 1.83,-0.51 1.84,-0.5 4.61,-0.42 3.29,1.24 1.68,1.27 3.05,2.32 1.25,1.21 1.25,1.2 0.42,0.63 1.77,2.6 3.04,3.66 2.63,2.35 1.63,1.23 2.72,0.73 2.84,-0.46 0.42,-0.07 3.06,-1.2 2.51,-1.56 1.04,-1.38 1.5,-1.99 3.28,-4.3 2.1,-0.74 2.08,-0.74 3.08,-2.57 4.23,-3.55 4.74,-3.54 1.47,-1.58 1.47,-1.58 2.61,-3.83 0.17,-3.15 -0.86,-5.63 -0.59,-3.41 -0.92,-2.27 -0.68,-1.69 -1.01,-1.69 -1.02,-1.69 -1.23,-2.82 -0.25,-9.61 -0.02,-3.62 V 420 l 0.26,-1.64 0.27,-1.63 0.26,-1.63 0.61,-1.78 0.95,-1.24 1.18,-1.41 z" /><path
       id="관평동"
       style="fill:#ebb4e7;fill-opacity:1;fill-rule:evenodd;stroke:none"
       d="m 593.83,353.65 0.51,-0.06 1.32,-0.48 1.12,-0.82 0.14,-0.12 2.69,-2.53 0.56,-0.94 0.49,-1 0.74,-1.49 0.74,-1.5 0.31,-0.75 0.19,-2.64 -0.4,-1.73 -1.52,-1.54 -2.46,-2.03 -1.81,-2.55 -2.6,1.07 -2.66,-0.47 -0.07,-0.93 -0.39,-0.97 -0.57,-0.61 -6.58,-0.38 -6.91,-0.62 -1.85,-0.47 -1.86,-0.46 -5.4,-0.11 -1.62,0.03 -3.59,0.45 -1.91,1.5 -0.32,0.26 -0.5,0.53 -0.62,0.92 -0.05,0.08 -0.01,0.07 0.03,0.06 0.04,0.04 0.04,0.02 0.14,0.03 1.76,0.27 -11.93,2.91 -3.96,0.04 -2.9,3 -0.7,0.55 -0.35,0.28 -4.56,3.34 -1.63,1.02 -0.44,1.59 4.68,5.04 0.6,0.5 1.46,1.56 0.99,1.06 0.52,0.55 0.97,1.58 0.08,0.18 0.65,1.47 0.32,0.72 2.15,4.59 0.08,0.16 0.16,0.33 1.02,2.13 3.29,6.85 0.11,0.22 0.19,0.23 0.12,0.12 0.2,0.23 4.59,3.26 4.89,3.47 2.96,-3.32 2.56,-2.32 8.48,-7.02 1.51,-1.06 1.51,-1.05 0.52,-0.37 8.6,-7.32 1.2,-1.57 0.77,-0.86 0.54,-0.56 1.64,-1.42 z" /><path
       id="관평동"
       style="fill:none;stroke:#44546a;stroke-width:0.23999999;stroke-linecap:round;stroke-linejoin:round;stroke-miterlimit:10;stroke-dasharray:none;stroke-opacity:0.8"
       d="m 593.83,353.65 0.51,-0.06 1.32,-0.48 1.12,-0.82 0.14,-0.12 2.69,-2.53 0.56,-0.94 0.49,-1 0.74,-1.49 0.74,-1.5 0.31,-0.75 0.19,-2.64 -0.4,-1.73 -1.52,-1.54 -2.46,-2.03 -1.81,-2.55 -2.6,1.07 -2.66,-0.47 -0.07,-0.93 -0.39,-0.97 -0.57,-0.61 -6.58,-0.38 -6.91,-0.62 -1.85,-0.47 -1.86,-0.46 -5.4,-0.11 -1.62,0.03 -3.59,0.45 -1.91,1.5 -0.32,0.26 -0.5,0.53 -0.62,0.92 -0.05,0.08 -0.01,0.07 0.03,0.06 0.04,0.04 0.04,0.02 0.14,0.03 1.76,0.27 -11.93,2.91 -3.96,0.04 -2.9,3 -0.7,0.55 -0.35,0.28 -4.56,3.34 -1.63,1.02 -0.44,1.59 4.68,5.04 0.6,0.5 1.46,1.56 0.99,1.06 0.52,0.55 0.97,1.58 0.08,0.18 0.65,1.47 0.32,0.72 2.15,4.59 0.08,0.16 0.16,0.33 1.02,2.13 3.29,6.85 0.11,0.22 0.19,0.23 0.12,0.12 0.2,0.23 4.59,3.26 4.89,3.47 2.96,-3.32 2.56,-2.32 8.48,-7.02 1.51,-1.06 1.51,-1.05 0.52,-0.37 8.6,-7.32 1.2,-1.57 0.77,-0.86 0.54,-0.56 1.64,-1.42 z" /><path
       id="온천1동"
       style="fill:#ebb4e7;fill-opacity:1;fill-rule:evenodd;stroke:none"
       d="m 443.09,225.36 -2.99,1.41 -2.02,0.32 -2.35,0.89 -1.82,0.52 -3.39,0.1 -1.89,0.89 -1.83,0.79 -2.22,2.26 -4.3,1.57 -4.04,0.83 -0.91,1.32 0.96,3.05 0.46,1.06 h 1.82 l 0.78,2.69 v 0.62 l -5.81,1.36 -3.06,1.53 -1.5,1.67 -1.11,1.79 -0.31,3.02 -0.64,1.8 0.15,1.18 1.92,1.85 2.31,-0.07 1.83,-2.15 0.23,-2.08 0.23,-2.08 2.79,0.2 2.79,0.21 7.51,0.02 4.25,-1.21 3.92,-0.85 2.76,-1.07 4.5,-1.73 9.96,-2.29 5.11,-1.98 1.29,-0.23 1.16,-0.2 0.71,-0.13 0.9,-0.15 0.35,-0.01 0.83,-0.01 0.34,-0.01 0.39,0.05 1.88,0.22 0.7,0.16 1.04,0.26 1.82,0.54 1.46,0.44 0.86,0.85 0.39,0.38 0.16,0.16 0.32,0.31 0.17,0.18 0.22,0.22 0.32,0.33 0.72,0.72 0.53,0.18 1.26,0.42 0.44,0.02 0.32,0.02 0.98,-0.11 3.78,-0.47 2.93,-0.37 0.93,-0.11 0.84,0.02 0.8,0.01 2.21,0.06 h 0.12 l 8.25,2.25 3.25,1.36 0.07,0.05 0.36,0.22 3.65,1.87 1.73,0.88 3.5,1.37 -11.59,-8.51 -0.25,-0.25 -3.73,-3.58 -0.71,-0.63 -1.02,-0.9 -0.53,-0.47 -0.3,-0.26 -0.63,-0.56 -1.11,-1.12 -4.18,-4.2 -0.11,-0.52 v -0.06 l -11.81,3.13 -0.5,0.14 -1.51,-0.01 -0.86,-2.5 -0.7,-2.02 -0.27,-0.78 0.01,-0.58 0.03,-1.2 0.03,-1.23 -7.83,-0.08 h -2.13 l -13.66,-0.12 z" /><path
       id="온천1동"
       style="fill:none;stroke:#44546a;stroke-width:0.23999999;stroke-linecap:round;stroke-linejoin:round;stroke-miterlimit:10;stroke-dasharray:none;stroke-opacity:0.8"
       d="m 443.09,225.36 -2.99,1.41 -2.02,0.32 -2.35,0.89 -1.82,0.52 -3.39,0.1 -1.89,0.89 -1.83,0.79 -2.22,2.26 -4.3,1.57 -4.04,0.83 -0.91,1.32 0.96,3.05 0.46,1.06 h 1.82 l 0.78,2.69 v 0.62 l -5.81,1.36 -3.06,1.53 -1.5,1.67 -1.11,1.79 -0.31,3.02 -0.64,1.8 0.15,1.18 1.92,1.85 2.31,-0.07 1.83,-2.15 0.23,-2.08 0.23,-2.08 2.79,0.2 2.79,0.21 7.51,0.02 4.25,-1.21 3.92,-0.85 2.76,-1.07 4.5,-1.73 9.96,-2.29 5.11,-1.98 1.29,-0.23 1.16,-0.2 0.71,-0.13 0.9,-0.15 0.35,-0.01 0.83,-0.01 0.34,-0.01 0.39,0.05 1.88,0.22 0.7,0.16 1.04,0.26 1.82,0.54 1.46,0.44 0.86,0.85 0.39,0.38 0.16,0.16 0.32,0.31 0.17,0.18 0.22,0.22 0.32,0.33 0.72,0.72 0.53,0.18 1.26,0.42 0.44,0.02 0.32,0.02 0.98,-0.11 3.78,-0.47 2.93,-0.37 0.93,-0.11 0.84,0.02 0.8,0.01 2.21,0.06 h 0.12 l 8.25,2.25 3.25,1.36 0.07,0.05 0.36,0.22 3.65,1.87 1.73,0.88 3.5,1.37 -11.59,-8.51 -0.25,-0.25 -3.73,-3.58 -0.71,-0.63 -1.02,-0.9 -0.53,-0.47 -0.3,-0.26 -0.63,-0.56 -1.11,-1.12 -4.18,-4.2 -0.11,-0.52 v -0.06 l -11.81,3.13 -0.5,0.14 -1.51,-0.01 -0.86,-2.5 -0.7,-2.02 -0.27,-0.78 0.01,-0.58 0.03,-1.2 0.03,-1.23 -7.83,-0.08 h -2.13 l -13.66,-0.12 z" /><path
       id="노은2동"
       style="fill:#ebb4e7;fill-opacity:1;fill-rule:evenodd;stroke:none"
       d="m 446.87,353.25 -0.89,-1.55 -0.33,-6.55 0.86,-1.69 0.86,-1.7 0.93,-0.76 v -2.21 l -1.03,-4.52 -0.72,-1.11 -1.75,0.45 -2.04,-0.94 -0.37,-2.03 0.07,-2.85 3.54,-8.83 1.49,-3.03 2.2,-0.86 1.91,-0.61 2.08,-1.49 0.53,-1.37 -0.16,-1.2 -0.73,-2.63 -1.88,-1.05 -0.86,-0.35 -0.41,-0.53 -0.08,-0.1 -0.05,-0.09 -0.08,-1.15 0.03,-0.39 0.31,-0.06 5.89,-1.24 1.35,-0.68 0.74,-0.99 -1.49,-6.59 -2.66,-3.71 -1.57,-2.48 -1.9,-2.61 -1.95,-2.67 -5.12,-6.28 -0.94,-0.55 -3.12,-1.18 h -1.2 l -3.99,-0.02 h -0.41 l -2.53,-0.01 -4.58,0.01 -0.5,0.38 -0.22,1.66 -0.04,2 0.07,1.45 1.32,-0.23 0.11,-0.02 1.41,1.9 0.21,0.29 3.15,6.63 -0.32,5.02 -0.07,0.09 -2.13,2.89 -2.81,3.95 -6.78,9.66 -1.36,2.82 -0.51,0.38 -3.8,0.63 -11.04,1.72 -1.61,0.25 -1.68,0.07 -17.81,-2.08 -5.21,-1.08 -8.5,-2.57 -3.58,-1.4 -0.39,0.77 -0.05,0.19 0.01,0.36 0.04,0.46 0.42,2.52 0.07,0.21 0.18,0.44 1.39,2.89 1.42,3.28 0.17,0.86 1.86,10.03 0.77,9.05 0.09,0.06 0.4,0.16 1.06,0.38 0.3,0.11 0.27,0.05 1.9,0.26 0.25,0.04 h 0.32 l 0.35,-0.02 0.62,-0.02 0.4,-0.02 0.38,0.05 0.19,0.02 1.41,0.27 2.6,0.65 0.28,0.1 0.53,0.19 0.21,0.11 0.13,0.12 0.08,0.12 0.04,0.27 -0.01,0.81 -0.06,0.4 -0.03,0.13 -0.1,0.51 -0.07,0.38 -0.02,0.32 -0.04,0.51 v 0.05 0.1 l 0.04,0.24 0.27,1.84 6.72,0.18 1.73,4.64 1.11,0.35 0.84,0.27 1.05,0.31 0.47,0.1 2.2,0.44 1.22,0.12 1.75,-0.34 0.69,-0.92 1.65,-0.74 1.3,0.03 0.64,1.73 1.55,2.84 2.19,0.72 2.07,-1.23 1.5,-0.06 3.53,0.23 1.19,0.15 2.39,0.34 0.4,0.05 0.07,0.01 5.95,-3.34 0.65,-0.44 0.79,-0.53 1.07,-1.26 1.07,-1.27 0.76,-1.09 0.65,-0.18 2.88,1.22 1,0.42 0.5,1.07 0.5,1 2.03,2.22 0.66,0.19 h 0.18 l 1.06,-0.06 0.13,-0.1 1.56,-1.74 1.97,-0.68 2.91,-0.24 0.39,-0.03 0.69,-0.05 z" /><path
       id="노은2동"
       style="fill:none;stroke:#44546a;stroke-width:0.23999999;stroke-linecap:round;stroke-linejoin:round;stroke-miterlimit:10;stroke-dasharray:none;stroke-opacity:0.8"
       d="m 446.87,353.25 -0.89,-1.55 -0.33,-6.55 0.86,-1.69 0.86,-1.7 0.93,-0.76 v -2.21 l -1.03,-4.52 -0.72,-1.11 -1.75,0.45 -2.04,-0.94 -0.37,-2.03 0.07,-2.85 3.54,-8.83 1.49,-3.03 2.2,-0.86 1.91,-0.61 2.08,-1.49 0.53,-1.37 -0.16,-1.2 -0.73,-2.63 -1.88,-1.05 -0.86,-0.35 -0.41,-0.53 -0.08,-0.1 -0.05,-0.09 -0.08,-1.15 0.03,-0.39 0.31,-0.06 5.89,-1.24 1.35,-0.68 0.74,-0.99 -1.49,-6.59 -2.66,-3.71 -1.57,-2.48 -1.9,-2.61 -1.95,-2.67 -5.12,-6.28 -0.94,-0.55 -3.12,-1.18 h -1.2 l -3.99,-0.02 h -0.41 l -2.53,-0.01 -4.58,0.01 -0.5,0.38 -0.22,1.66 -0.04,2 0.07,1.45 1.32,-0.23 0.11,-0.02 1.41,1.9 0.21,0.29 3.15,6.63 -0.32,5.02 -0.07,0.09 -2.13,2.89 -2.81,3.95 -6.78,9.66 -1.36,2.82 -0.51,0.38 -3.8,0.63 -11.04,1.72 -1.61,0.25 -1.68,0.07 -17.81,-2.08 -5.21,-1.08 -8.5,-2.57 -3.58,-1.4 -0.39,0.77 -0.05,0.19 0.01,0.36 0.04,0.46 0.42,2.52 0.07,0.21 0.18,0.44 1.39,2.89 1.42,3.28 0.17,0.86 1.86,10.03 0.77,9.05 0.09,0.06 0.4,0.16 1.06,0.38 0.3,0.11 0.27,0.05 1.9,0.26 0.25,0.04 h 0.32 l 0.35,-0.02 0.62,-0.02 0.4,-0.02 0.38,0.05 0.19,0.02 1.41,0.27 2.6,0.65 0.28,0.1 0.53,0.19 0.21,0.11 0.13,0.12 0.08,0.12 0.04,0.27 -0.01,0.81 -0.06,0.4 -0.03,0.13 -0.1,0.51 -0.07,0.38 -0.02,0.32 -0.04,0.51 v 0.05 0.1 l 0.04,0.24 0.27,1.84 6.72,0.18 1.73,4.64 1.11,0.35 0.84,0.27 1.05,0.31 0.47,0.1 2.2,0.44 1.22,0.12 1.75,-0.34 0.69,-0.92 1.65,-0.74 1.3,0.03 0.64,1.73 1.55,2.84 2.19,0.72 2.07,-1.23 1.5,-0.06 3.53,0.23 1.19,0.15 2.39,0.34 0.4,0.05 0.07,0.01 5.95,-3.34 0.65,-0.44 0.79,-0.53 1.07,-1.26 1.07,-1.27 0.76,-1.09 0.65,-0.18 2.88,1.22 1,0.42 0.5,1.07 0.5,1 2.03,2.22 0.66,0.19 h 0.18 l 1.06,-0.06 0.13,-0.1 1.56,-1.74 1.97,-0.68 2.91,-0.24 0.39,-0.03 0.69,-0.05 z" /><path
       id="노은3동"
       style="fill:#ebb4e7;fill-opacity:1;fill-rule:evenodd;stroke:none"
       d="m 426.85,274.99 0.77,-5.87 -0.22,-0.23 -0.19,-0.06 -7.31,-1.32 -6.78,-0.15 -0.51,0.07 -1.14,0.69 -7.06,5.75 -0.37,0.62 -0.43,1.72 -0.19,1.5 -0.36,2.43 -0.37,1.81 -0.71,1.84 -0.46,0.55 -0.67,0.12 -0.93,-0.2 -1.21,-0.75 -6.82,0.06 -6.74,0.67 -6.95,1.57 -4.65,0.68 -1.24,0.06 -1.49,-0.71 -2.45,-0.91 -0.25,-0.09 -1.2,-0.19 -1.65,-0.15 0.1,2.95 0.26,14.16 -0.04,0.09 -0.04,0.11 -0.05,0.23 -0.19,1.57 -0.49,3.92 -0.02,0.31 0.01,0.4 0.25,1.19 3.58,1.39 8.52,2.58 5.22,1.08 17.83,2.08 1.68,-0.07 1.61,-0.25 11.06,-1.72 3.8,-0.63 0.51,-0.38 1.37,-2.82 6.78,-9.67 2.82,-3.95 2.14,-2.89 0.06,-0.1 0.32,-5.02 -3.15,-6.63 -0.22,-0.29 -1.4,-1.91 -0.11,0.02 -1.33,0.23 -0.06,-1.45 0.03,-2 0.23,-1.66 z" /><path
       id="노은3동"
       style="fill:none;stroke:#44546a;stroke-width:0.23999999;stroke-linecap:round;stroke-linejoin:round;stroke-miterlimit:10;stroke-dasharray:none;stroke-opacity:0.8"
       d="m 426.85,274.99 0.77,-5.87 -0.22,-0.23 -0.19,-0.06 -7.31,-1.32 -6.78,-0.15 -0.51,0.07 -1.14,0.69 -7.06,5.75 -0.37,0.62 -0.43,1.72 -0.19,1.5 -0.36,2.43 -0.37,1.81 -0.71,1.84 -0.46,0.55 -0.67,0.12 -0.93,-0.2 -1.21,-0.75 -6.82,0.06 -6.74,0.67 -6.95,1.57 -4.65,0.68 -1.24,0.06 -1.49,-0.71 -2.45,-0.91 -0.25,-0.09 -1.2,-0.19 -1.65,-0.15 0.1,2.95 0.26,14.16 -0.04,0.09 -0.04,0.11 -0.05,0.23 -0.19,1.57 -0.49,3.92 -0.02,0.31 0.01,0.4 0.25,1.19 3.58,1.39 8.52,2.58 5.22,1.08 17.83,2.08 1.68,-0.07 1.61,-0.25 11.06,-1.72 3.8,-0.63 0.51,-0.38 1.37,-2.82 6.78,-9.67 2.82,-3.95 2.14,-2.89 0.06,-0.1 0.32,-5.02 -3.15,-6.63 -0.22,-0.29 -1.4,-1.91 -0.11,0.02 -1.33,0.23 -0.06,-1.45 0.03,-2 0.23,-1.66 z" /><path
       id="진잠동"
       style="fill:#ebb4e7;fill-opacity:1;fill-rule:evenodd;stroke:none"
       d="m 346.68,199.59 2.81,-1.03 3.71,-0.25 4.11,-0.1 2.79,1.17 3.33,-2 1.11,-1.37 4.63,-1.25 0.84,2.53 5.99,1.22 4.29,1.27 4.82,1.43 2.88,-5.16 1.57,-3.15 2.1,-5.48 2.67,-0.78 1.23,1.42 1.96,-0.99 6.39,-2.52 4.23,0.74 1.76,-0.47 5.99,-1.89 2.93,1.12 2.47,2.85 -0.92,4.63 0.77,4.11 -0.4,4.63 0.77,2.53 2.75,-2.42 3.39,-1.78 2.87,-2.74 0.65,-1.79 4.3,-0.31 3.39,-1.04 0.91,0.41 3.91,-1.46 1.82,1.79 0.39,3.8 1.81,2.53 1.32,0.72 3.56,-0.1 4.58,-0.04 3.71,0.16 4.6,0.07 h 0.51 l -0.04,-2.15 -0.03,-1.23 -3.67,-0.04 -0.01,-3.19 1.29,-9.16 1.46,-7.43 0.4,-1.13 3.34,-0.07 -1.09,-6.11 -0.51,-1.74 -2.34,-0.71 -5.19,-4.08 -1.79,-1.56 -1.49,-2.63 0.01,-5.59 0.48,-0.03 -0.02,-5.17 -0.59,0.01 h -0.33 l -2.48,0.02 -1.89,-0.22 -1.46,-0.46 -1.19,-0.38 -2.05,-0.66 -3.68,-1.23 -3.11,-2.92 -0.73,-0.86 -0.66,-0.78 -2.3,-5.57 -1.13,-2.79 -0.18,-0.83 0.04,-3.41 0.02,-1.08 -0.11,-1.3 -0.2,-0.7 -0.27,-0.57 -0.8,-0.95 -1.01,-0.82 -1.26,-0.73 -1.29,-0.47 -0.48,-0.14 -1.99,-0.09 -2.46,-1.42 -4.95,-4.26 -0.61,-0.62 -0.87,-4.75 0.09,-1.85 -1.66,-2.3 -1.67,-0.97 -1.68,-0.98 -0.31,-0.93 -0.4,-1.2 0.4,-2.432 -0.15,-0.641 -0.2,-0.133 -0.41,-0.257 -4.22,-1.844 -2.11,-0.925 -0.6,-0.264 -1.99,-0.45 -1.99,-0.456 -8.11,-4.334 -1.43,-1.527 -1.42,-1.519 -1.34,-2.187 -0.92,-0.463 -0.43,-0.218 -1.15,0.377 -0.51,1.942 -1.53,0.707 -2.98,0.152 -2.56,-0.185 -1.38,-0.383 -1.94,-0.542 -1.94,-0.535 -2.07,0.073 -0.16,0.039 -3.22,0.8 -11.21,5.352 -5.07,2.716 -2.29,1.183 -0.53,0.277 -3.52,3.291 -1.71,1.616 -0.04,0.03 -0.37,0.35 -2.68,1.06 -2.45,0.88 -2.46,0.87 -1.54,0.11 -1.4,0.11 -2.65,1.34 -4.16,2.21 -0.57,0.64 -0.56,0.62 -0.64,0.64 -0.68,0.66 -1.9,1.87 -0.92,0.9 -1.86,1.84 -1.81,0.69 -2.17,1.13 -0.42,0.23 -0.94,2.17 -0.39,2.03 -0.27,1.34 -0.1,0.53 -0.62,2.37 -0.81,2.14 -1.35,1.33 1.36,2.04 5.33,5.92 0.24,0.26 0.25,0.25 0.26,0.25 0.27,0.22 0.28,0.19 0.27,0.18 0.28,0.15 0.28,0.14 0.28,0.12 0.27,0.1 0.16,0.05 0.12,0.05 0.27,0.09 0.26,0.08 0.09,0.04 0.17,0.04 0.23,0.06 0.27,0.06 0.25,0.04 0.11,0.01 0.15,0.02 h 0.25 l 0.19,-0.02 h 0.08 l 0.26,-0.04 0.27,-0.07 0.28,-0.07 0.27,-0.09 0.28,-0.09 0.27,-0.09 0.26,-0.09 0.26,-0.07 0.25,-0.07 0.25,-0.04 0.24,-0.04 0.25,-0.04 2.4,-0.31 0.33,-0.04 0.33,-0.03 0.31,-0.03 0.28,-0.01 0.26,0.01 0.24,0.01 0.21,0.03 0.19,0.03 0.19,0.05 0.15,0.04 0.47,0.11 0.15,0.06 0.14,0.07 0.15,0.13 0.13,0.17 0.09,0.16 0.04,0.1 0.04,0.09 0.09,0.26 0.12,0.45 0.11,0.57 1.15,7.21 0.05,0.36 v 0.32 l -0.05,0.28 -0.13,0.31 -0.21,0.3 -0.25,0.31 -0.08,0.08 -0.23,0.25 -0.33,0.37 -0.35,0.42 -0.18,0.25 -0.16,0.22 -0.33,0.55 -0.27,0.62 -0.23,0.72 -0.18,0.78 -0.12,0.82 -0.07,0.64 -0.02,0.2 -1.21,11.97 -0.05,0.53 -0.04,0.55 -0.04,0.58 -0.03,0.59 -0.02,0.58 v 0.12 l -0.01,0.45 v 0.47 0.07 l 0.01,0.33 v 0.19 l 0.01,0.49 0.02,0.45 0.03,0.43 0.02,0.4 0.04,0.36 0.04,0.33 0.04,0.29 0.04,0.27 0.05,0.23 0.05,0.21 0.06,0.19 0.07,0.19 0.08,0.17 0.08,0.17 0.1,0.16 0.11,0.17 0.11,0.17 0.12,0.16 0.13,0.17 0.13,0.16 0.13,0.15 0.09,0.1 0.07,0.07 0.14,0.15 0.12,0.13 0.16,0.16 0.15,0.14 0.07,0.06 0.08,0.07 0.14,0.12 0.15,0.11 0.15,0.1 0.09,0.06 0.06,0.04 0.14,0.08 0.15,0.1 0.14,0.11 0.15,0.12 0.14,0.15 0.13,0.18 0.14,0.22 0.14,0.27 0.12,0.31 0.09,0.24 0.03,0.09 0.12,0.34 0.11,0.34 0.09,0.35 0.04,0.15 0.04,0.17 0.08,0.29 0.05,0.25 0.05,0.22 0.03,0.19 0.02,0.16 0.02,0.15 0.01,0.14 v 0.15 0.12 0.14 l -0.01,0.15 -0.01,0.16 v 0.08 l -0.01,0.08 -0.01,0.18 -0.02,0.19 v 0.11 l -0.01,0.09 -0.02,0.22 -0.02,0.23 -0.02,0.14 -0.01,0.1 -0.04,0.26 -0.02,0.13 -0.02,0.14 -0.92,5.63 0.71,-0.06 0.54,-0.03 0.91,-0.01 h 0.11 l 3.08,0.21 0.53,0.08 0.2,0.03 0.43,0.11 0.32,0.13 3.27,1.36 0.35,0.19 0.17,0.09 0.04,0.06 0.03,0.04 3.12,4.57 0.06,0.12 0.1,0.26 0.04,0.18 z" /><path
       id="진잠동"
       style="fill:none;stroke:#44546a;stroke-width:0.23999999;stroke-linecap:round;stroke-linejoin:round;stroke-miterlimit:10;stroke-dasharray:none;stroke-opacity:0.8"
       d="m 346.68,199.59 2.81,-1.03 3.71,-0.25 4.11,-0.1 2.79,1.17 3.33,-2 1.11,-1.37 4.63,-1.25 0.84,2.53 5.99,1.22 4.29,1.27 4.82,1.43 2.88,-5.16 1.57,-3.15 2.1,-5.48 2.67,-0.78 1.23,1.42 1.96,-0.99 6.39,-2.52 4.23,0.74 1.76,-0.47 5.99,-1.89 2.93,1.12 2.47,2.85 -0.92,4.63 0.77,4.11 -0.4,4.63 0.77,2.53 2.75,-2.42 3.39,-1.78 2.87,-2.74 0.65,-1.79 4.3,-0.31 3.39,-1.04 0.91,0.41 3.91,-1.46 1.82,1.79 0.39,3.8 1.81,2.53 1.32,0.72 3.56,-0.1 4.58,-0.04 3.71,0.16 4.6,0.07 h 0.51 l -0.04,-2.15 -0.03,-1.23 -3.67,-0.04 -0.01,-3.19 1.29,-9.16 1.46,-7.43 0.4,-1.13 3.34,-0.07 -1.09,-6.11 -0.51,-1.74 -2.34,-0.71 -5.19,-4.08 -1.79,-1.56 -1.49,-2.63 0.01,-5.59 0.48,-0.03 -0.02,-5.17 -0.59,0.01 h -0.33 l -2.48,0.02 -1.89,-0.22 -1.46,-0.46 -1.19,-0.38 -2.05,-0.66 -3.68,-1.23 -3.11,-2.92 -0.73,-0.86 -0.66,-0.78 -2.3,-5.57 -1.13,-2.79 -0.18,-0.83 0.04,-3.41 0.02,-1.08 -0.11,-1.3 -0.2,-0.7 -0.27,-0.57 -0.8,-0.95 -1.01,-0.82 -1.26,-0.73 -1.29,-0.47 -0.48,-0.14 -1.99,-0.09 -2.46,-1.42 -4.95,-4.26 -0.61,-0.62 -0.87,-4.75 0.09,-1.85 -1.66,-2.3 -1.67,-0.97 -1.68,-0.98 -0.31,-0.93 -0.4,-1.2 0.4,-2.432 -0.15,-0.641 -0.2,-0.133 -0.41,-0.257 -4.22,-1.844 -2.11,-0.925 -0.6,-0.264 -1.99,-0.45 -1.99,-0.456 -8.11,-4.334 -1.43,-1.527 -1.42,-1.519 -1.34,-2.187 -0.92,-0.463 -0.43,-0.218 -1.15,0.377 -0.51,1.942 -1.53,0.707 -2.98,0.152 -2.56,-0.185 -1.38,-0.383 -1.94,-0.542 -1.94,-0.535 -2.07,0.073 -0.16,0.039 -3.22,0.8 -11.21,5.352 -5.07,2.716 -2.29,1.183 -0.53,0.277 -3.52,3.291 -1.71,1.616 -0.04,0.03 -0.37,0.35 -2.68,1.06 -2.45,0.88 -2.46,0.87 -1.54,0.11 -1.4,0.11 -2.65,1.34 -4.16,2.21 -0.57,0.64 -0.56,0.62 -0.64,0.64 -0.68,0.66 -1.9,1.87 -0.92,0.9 -1.86,1.84 -1.81,0.69 -2.17,1.13 -0.42,0.23 -0.94,2.17 -0.39,2.03 -0.27,1.34 -0.1,0.53 -0.62,2.37 -0.81,2.14 -1.35,1.33 1.36,2.04 5.33,5.92 0.24,0.26 0.25,0.25 0.26,0.25 0.27,0.22 0.28,0.19 0.27,0.18 0.28,0.15 0.28,0.14 0.28,0.12 0.27,0.1 0.16,0.05 0.12,0.05 0.27,0.09 0.26,0.08 0.09,0.04 0.17,0.04 0.23,0.06 0.27,0.06 0.25,0.04 0.11,0.01 0.15,0.02 h 0.25 l 0.19,-0.02 h 0.08 l 0.26,-0.04 0.27,-0.07 0.28,-0.07 0.27,-0.09 0.28,-0.09 0.27,-0.09 0.26,-0.09 0.26,-0.07 0.25,-0.07 0.25,-0.04 0.24,-0.04 0.25,-0.04 2.4,-0.31 0.33,-0.04 0.33,-0.03 0.31,-0.03 0.28,-0.01 0.26,0.01 0.24,0.01 0.21,0.03 0.19,0.03 0.19,0.05 0.15,0.04 0.47,0.11 0.15,0.06 0.14,0.07 0.15,0.13 0.13,0.17 0.09,0.16 0.04,0.1 0.04,0.09 0.09,0.26 0.12,0.45 0.11,0.57 1.15,7.21 0.05,0.36 v 0.32 l -0.05,0.28 -0.13,0.31 -0.21,0.3 -0.25,0.31 -0.08,0.08 -0.23,0.25 -0.33,0.37 -0.35,0.42 -0.18,0.25 -0.16,0.22 -0.33,0.55 -0.27,0.62 -0.23,0.72 -0.18,0.78 -0.12,0.82 -0.07,0.64 -0.02,0.2 -1.21,11.97 -0.05,0.53 -0.04,0.55 -0.04,0.58 -0.03,0.59 -0.02,0.58 v 0.12 l -0.01,0.45 v 0.47 0.07 l 0.01,0.33 v 0.19 l 0.01,0.49 0.02,0.45 0.03,0.43 0.02,0.4 0.04,0.36 0.04,0.33 0.04,0.29 0.04,0.27 0.05,0.23 0.05,0.21 0.06,0.19 0.07,0.19 0.08,0.17 0.08,0.17 0.1,0.16 0.11,0.17 0.11,0.17 0.12,0.16 0.13,0.17 0.13,0.16 0.13,0.15 0.09,0.1 0.07,0.07 0.14,0.15 0.12,0.13 0.16,0.16 0.15,0.14 0.07,0.06 0.08,0.07 0.14,0.12 0.15,0.11 0.15,0.1 0.09,0.06 0.06,0.04 0.14,0.08 0.15,0.1 0.14,0.11 0.15,0.12 0.14,0.15 0.13,0.18 0.14,0.22 0.14,0.27 0.12,0.31 0.09,0.24 0.03,0.09 0.12,0.34 0.11,0.34 0.09,0.35 0.04,0.15 0.04,0.17 0.08,0.29 0.05,0.25 0.05,0.22 0.03,0.19 0.02,0.16 0.02,0.15 0.01,0.14 v 0.15 0.12 0.14 l -0.01,0.15 -0.01,0.16 v 0.08 l -0.01,0.08 -0.01,0.18 -0.02,0.19 v 0.11 l -0.01,0.09 -0.02,0.22 -0.02,0.23 -0.02,0.14 -0.01,0.1 -0.04,0.26 -0.02,0.13 -0.02,0.14 -0.92,5.63 0.71,-0.06 0.54,-0.03 0.91,-0.01 h 0.11 l 3.08,0.21 0.53,0.08 0.2,0.03 0.43,0.11 0.32,0.13 3.27,1.36 0.35,0.19 0.17,0.09 0.04,0.06 0.03,0.04 3.12,4.57 0.06,0.12 0.1,0.26 0.04,0.18 z" /><path
       id="학하동"
       style="fill:#ebb4e7;fill-opacity:1;fill-rule:evenodd;stroke:none"
       d="m 407.83,250.05 1.11,-1.79 1.49,-1.68 3.07,-1.52 5.8,-1.37 v -0.63 l -0.78,-2.69 h -1.82 l -0.45,-1.05 -0.97,-3.07 0.91,-1.31 4.04,-0.84 4.3,-1.57 2.22,-2.27 1.82,-0.78 1.89,-0.9 3.38,-0.1 1.83,-0.52 2.34,-0.89 2.02,-0.32 2.99,-1.41 -7.52,-8.71 -3.93,-6.4 3.84,-1.16 7.83,-4.08 4.67,-3.88 1.01,-0.63 -1.31,-0.73 -1.82,-2.53 -0.38,-3.8 -1.82,-1.8 -3.91,1.47 -0.91,-0.42 -3.38,1.05 -4.3,0.31 -0.65,1.79 -2.87,2.74 -3.39,1.78 -2.74,2.43 -0.77,-2.54 0.4,-4.63 -0.77,-4.12 0.93,-4.63 -2.47,-2.85 -2.93,-1.12 -5.99,1.89 -1.76,0.47 -4.22,-0.74 -6.38,2.52 -1.96,1 -1.23,-1.43 -2.67,0.79 -2.09,5.47 -1.57,3.16 -2.88,5.17 -4.81,-1.44 -4.29,-1.27 -5.98,-1.22 -0.84,-2.53 -4.63,1.25 -1.11,1.37 -3.32,2 -2.79,-1.16 -4.1,0.09 -3.71,0.26 -2.81,1.02 -0.02,0.4 -0.06,0.41 -0.07,0.39 -0.05,0.23 -0.68,1.83 -0.02,0.05 -0.13,0.55 -0.18,0.98 -0.04,0.2 v 0.06 l -0.32,6.02 v 0.32 l 0.02,0.27 0.05,0.24 0.07,0.21 0.07,0.11 0.08,0.08 0.15,0.06 1.49,0.49 1.33,0.41 0.34,0.12 0.14,0.06 0.16,0.07 0.41,0.23 0.5,0.38 0.15,0.16 2.03,2.44 0.07,0.17 0.05,0.14 v 0.12 l 0.24,0.93 0.36,1.36 0.06,0.13 0.07,0.13 0.17,0.28 0.16,0.18 1.19,1.01 0.08,0.06 0.04,0.04 0.11,0.03 0.06,0.02 0.2,0.05 0.42,0.05 0.26,0.02 0.26,0.02 1.62,0.19 1.7,0.53 0.23,0.09 2.91,3.83 0.08,0.12 0.97,2.67 0.06,0.24 v 0.2 l -0.02,0.1 3.68,2.61 2.14,3.32 3.76,2.49 2.02,0.32 10.21,2.97 4.35,1.9 4.62,2.12 0.76,2.29 1.76,0.74 1.5,0.66 1.37,0.61 0.66,0.29 1.94,1.31 1.01,0.38 3.85,-0.54 z" /><path
       id="학하동"
       style="fill:none;stroke:#44546a;stroke-width:0.23999999;stroke-linecap:round;stroke-linejoin:round;stroke-miterlimit:10;stroke-dasharray:none;stroke-opacity:0.8"
       d="m 407.83,250.05 1.11,-1.79 1.49,-1.68 3.07,-1.52 5.8,-1.37 v -0.63 l -0.78,-2.69 h -1.82 l -0.45,-1.05 -0.97,-3.07 0.91,-1.31 4.04,-0.84 4.3,-1.57 2.22,-2.27 1.82,-0.78 1.89,-0.9 3.38,-0.1 1.83,-0.52 2.34,-0.89 2.02,-0.32 2.99,-1.41 -7.52,-8.71 -3.93,-6.4 3.84,-1.16 7.83,-4.08 4.67,-3.88 1.01,-0.63 -1.31,-0.73 -1.82,-2.53 -0.38,-3.8 -1.82,-1.8 -3.91,1.47 -0.91,-0.42 -3.38,1.05 -4.3,0.31 -0.65,1.79 -2.87,2.74 -3.39,1.78 -2.74,2.43 -0.77,-2.54 0.4,-4.63 -0.77,-4.12 0.93,-4.63 -2.47,-2.85 -2.93,-1.12 -5.99,1.89 -1.76,0.47 -4.22,-0.74 -6.38,2.52 -1.96,1 -1.23,-1.43 -2.67,0.79 -2.09,5.47 -1.57,3.16 -2.88,5.17 -4.81,-1.44 -4.29,-1.27 -5.98,-1.22 -0.84,-2.53 -4.63,1.25 -1.11,1.37 -3.32,2 -2.79,-1.16 -4.1,0.09 -3.71,0.26 -2.81,1.02 -0.02,0.4 -0.06,0.41 -0.07,0.39 -0.05,0.23 -0.68,1.83 -0.02,0.05 -0.13,0.55 -0.18,0.98 -0.04,0.2 v 0.06 l -0.32,6.02 v 0.32 l 0.02,0.27 0.05,0.24 0.07,0.21 0.07,0.11 0.08,0.08 0.15,0.06 1.49,0.49 1.33,0.41 0.34,0.12 0.14,0.06 0.16,0.07 0.41,0.23 0.5,0.38 0.15,0.16 2.03,2.44 0.07,0.17 0.05,0.14 v 0.12 l 0.24,0.93 0.36,1.36 0.06,0.13 0.07,0.13 0.17,0.28 0.16,0.18 1.19,1.01 0.08,0.06 0.04,0.04 0.11,0.03 0.06,0.02 0.2,0.05 0.42,0.05 0.26,0.02 0.26,0.02 1.62,0.19 1.7,0.53 0.23,0.09 2.91,3.83 0.08,0.12 0.97,2.67 0.06,0.24 v 0.2 l -0.02,0.1 3.68,2.61 2.14,3.32 3.76,2.49 2.02,0.32 10.21,2.97 4.35,1.9 4.62,2.12 0.76,2.29 1.76,0.74 1.5,0.66 1.37,0.61 0.66,0.29 1.94,1.31 1.01,0.38 3.85,-0.54 z" /><path
       id="상대동"
       style="fill:#ebb4e7;fill-opacity:1;fill-rule:evenodd;stroke:none"
       d="m 443.1,225.39 2.71,2.89 13.65,0.11 h 2.13 l 7.83,0.09 -0.03,-5.12 -1.43,-4.44 3.52,-1.16 -5.01,-2.37 -2.99,-4.18 -1.81,-4.75 -3.25,-2.64 -5.86,-3.42 -3.56,0.11 -1.01,0.63 -4.67,3.88 -7.84,4.08 -3.84,1.17 3.93,6.4 z" /><path
       id="상대동"
       style="fill:none;stroke:#44546a;stroke-width:0.23999999;stroke-linecap:round;stroke-linejoin:round;stroke-miterlimit:10;stroke-dasharray:none;stroke-opacity:0.8"
       d="m 443.1,225.39 2.71,2.89 13.65,0.11 h 2.13 l 7.83,0.09 -0.03,-5.12 -1.43,-4.44 3.52,-1.16 -5.01,-2.37 -2.99,-4.18 -1.81,-4.75 -3.25,-2.64 -5.86,-3.42 -3.56,0.11 -1.01,0.63 -4.67,3.88 -7.84,4.08 -3.84,1.17 3.93,6.4 z" /><path
       id="원신흥동"
       style="fill:#ebb4e7;fill-opacity:1;fill-rule:evenodd;stroke:none"
       d="m 452.52,200.44 5.86,3.41 3.25,2.64 1.81,4.73 2.99,4.16 5.01,2.37 -3.52,1.16 1.42,4.42 0.04,5.11 -0.03,1.23 -0.03,1.2 -0.02,0.58 0.28,0.78 0.7,2.02 0.86,2.5 1.51,0.01 0.49,-0.14 11.81,-3.13 -0.05,-0.24 -0.53,-2.65 0.52,-2.1 2.87,-9.07 3.31,-10.32 1.41,-7.19 -0.17,-0.69 -0.19,-0.68 -26.21,0.08 h -0.5 l -4.6,-0.06 -3.72,-0.17 z" /><path
       id="원신흥동"
       style="fill:none;stroke:#44546a;stroke-width:0.23999999;stroke-linecap:round;stroke-linejoin:round;stroke-miterlimit:10;stroke-dasharray:none;stroke-opacity:0.8"
       d="m 452.52,200.44 5.86,3.41 3.25,2.64 1.81,4.73 2.99,4.16 5.01,2.37 -3.52,1.16 1.42,4.42 0.04,5.11 -0.03,1.23 -0.03,1.2 -0.02,0.58 0.28,0.78 0.7,2.02 0.86,2.5 1.51,0.01 0.49,-0.14 11.81,-3.13 -0.05,-0.24 -0.53,-2.65 0.52,-2.1 2.87,-9.07 3.31,-10.32 1.41,-7.19 -0.17,-0.69 -0.19,-0.68 -26.21,0.08 h -0.5 l -4.6,-0.06 -3.72,-0.17 z" /></g></svg>