<?xml version="1.0" encoding="UTF-8" standalone="no"?>
<svg
   xmlns:dc="http://purl.org/dc/elements/1.1/"
   xmlns:cc="http://creativecommons.org/ns#"
   xmlns:rdf="http://www.w3.org/1999/02/22-rdf-syntax-ns#"
   xmlns:svg="http://www.w3.org/2000/svg"
   xmlns="http://www.w3.org/2000/svg"
   viewBox="0 0 1280 720"
   height="720"
   width="1280"
   xml:space="preserve"
   id="svg2"
   version="1.1"><metadata
     id="metadata8"><rdf:RDF><cc:Work
         rdf:about=""><dc:format>image/svg+xml</dc:format><dc:type
           rdf:resource="http://purl.org/dc/dcmitype/StillImage" /></cc:Work></rdf:RDF></metadata><defs
     id="defs6"><clipPath
       id="clipPath18"
       clipPathUnits="userSpaceOnUse"><path
         style="clip-rule:evenodd"
         id="path16"
         d="M 0,1.2207e-4 H 960 V 540.00012 H 0 Z" /></clipPath></defs><g
     transform="matrix(1.3333333,0,0,-1.3333333,0,720)"
     id="g10"><g
       id="g12"><g
         clip-path="url(#clipPath18)"
         id="g14"><path
           id="path20"
           style="fill:none;fill-opacity:1;fill-rule:evenodd;stroke:none"
           d="M 0,6.1035e-5 H 960 V 540.00006 H 0 Z" /></g></g><path
       id="은행선화동"
       style="fill:#86c69a;fill-opacity:1;fill-rule:evenodd;stroke:none"
       d="m 485.19,386.49 2.98,-2.27 3.49,-2.79 2.74,-3.42 -7.43,-0.92 -1.11,1.87 -0.18,0.07 -0.12,0.04 -2.46,-0.87 -1.32,-0.49 -2.29,-0.85 -0.12,-0.27 -0.22,-0.51 -0.85,-0.87 -5.4,-4.07 -2.5,-1.12 -3.01,-0.42 0.76,1.66 -3.12,3.13 -0.89,0.64 -0.24,0.3 -0.1,0.32 0.07,0.39 0.19,0.2 1.31,1.31 -0.6,2.84 -0.01,0.24 -0.02,0.6 0.31,1.92 0.59,1.72 0.24,0.64 0.25,0.65 0.1,0.14 0.03,0.04 0.59,0.52 0.52,0.42 0.09,0.19 -2.21,1.55 -0.74,0.52 9,6.82 2.82,-1.33 1.78,-0.96 1.18,-1.14 0.22,-0.21 0.38,-0.62 2.63,-3.17 z" /><path
       id="은행선화동"
       style="fill:none;stroke:#44546a;stroke-width:0.23999999;stroke-linecap:round;stroke-linejoin:round;stroke-miterlimit:10;stroke-dasharray:none;stroke-opacity:0.8"
       d="m 485.19,386.49 2.98,-2.27 3.49,-2.79 2.74,-3.42 -7.43,-0.92 -1.11,1.87 -0.18,0.07 -0.12,0.04 -2.46,-0.87 -1.32,-0.49 -2.29,-0.85 -0.12,-0.27 -0.22,-0.51 -0.85,-0.87 -5.4,-4.07 -2.5,-1.12 -3.01,-0.42 0.76,1.66 -3.12,3.13 -0.89,0.64 -0.24,0.3 -0.1,0.32 0.07,0.39 0.19,0.2 1.31,1.31 -0.6,2.84 -0.01,0.24 -0.02,0.6 0.31,1.92 0.59,1.72 0.24,0.64 0.25,0.65 0.1,0.14 0.03,0.04 0.59,0.52 0.52,0.42 0.09,0.19 -2.21,1.55 -0.74,0.52 9,6.82 2.82,-1.33 1.78,-0.96 1.18,-1.14 0.22,-0.21 0.38,-0.62 2.63,-3.17 z" /><path
       id="목동"
       style="fill:#86c69a;fill-opacity:1;fill-rule:evenodd;stroke:none"
       d="m 464.46,389.59 0.74,-0.53 2.2,-1.55 -0.09,-0.2 -0.52,-0.42 -0.58,-0.53 -0.03,-0.03 -0.11,-0.15 -0.24,-0.65 -0.24,-0.64 -0.59,-1.74 -0.31,-1.92 0.02,-0.61 0.01,-0.24 0.6,-2.86 -4.01,1.32 -1.7,0.56 -0.67,0.23 -4.55,3.89 -7.12,6.31 -0.5,0.75 -0.25,0.55 -0.12,0.66 2.64,2.86 0.5,0.47 7.29,0.4 z" /><path
       id="목동"
       style="fill:none;stroke:#44546a;stroke-width:0.23999999;stroke-linecap:round;stroke-linejoin:round;stroke-miterlimit:10;stroke-dasharray:none;stroke-opacity:0.8"
       d="m 464.46,389.59 0.74,-0.53 2.2,-1.55 -0.09,-0.2 -0.52,-0.42 -0.58,-0.53 -0.03,-0.03 -0.11,-0.15 -0.24,-0.65 -0.24,-0.64 -0.59,-1.74 -0.31,-1.92 0.02,-0.61 0.01,-0.24 0.6,-2.86 -4.01,1.32 -1.7,0.56 -0.67,0.23 -4.55,3.89 -7.12,6.31 -0.5,0.75 -0.25,0.55 -0.12,0.66 2.64,2.86 0.5,0.47 7.29,0.4 z" /><path
       id="중촌동"
       style="fill:#86c69a;fill-opacity:1;fill-rule:evenodd;stroke:none"
       d="m 463.63,405.06 0.77,-1.72 0.65,-1.15 0.49,-0.88 0.8,-0.72 1.38,-1.25 0.89,-0.8 0.58,-0.53 1.69,-0.64 0.83,-0.29 1.81,-0.61 -9.03,-6.83 -7.69,5.9 -7.35,-0.39 -2.87,0.1 -1.38,0.44 0.27,1.19 1.99,11.93 -0.31,5.2 -0.33,1.91 1.55,-0.38 1.72,-0.43 0.58,-0.15 4.05,-1.06 1.17,-0.44 0.66,-0.24 1.98,-1.19 1.34,-1.1 0.53,-0.46 1.29,-1.62 0.1,-0.11 0.77,-1.33 0.26,-0.45 z" /><path
       id="중촌동"
       style="fill:none;stroke:#44546a;stroke-width:0.23999999;stroke-linecap:round;stroke-linejoin:round;stroke-miterlimit:10;stroke-dasharray:none;stroke-opacity:0.8"
       d="m 463.63,405.06 0.77,-1.72 0.65,-1.15 0.49,-0.88 0.8,-0.72 1.38,-1.25 0.89,-0.8 0.58,-0.53 1.69,-0.64 0.83,-0.29 1.81,-0.61 -9.03,-6.83 -7.69,5.9 -7.35,-0.39 -2.87,0.1 -1.38,0.44 0.27,1.19 1.99,11.93 -0.31,5.2 -0.33,1.91 1.55,-0.38 1.72,-0.43 0.58,-0.15 4.05,-1.06 1.17,-0.44 0.66,-0.24 1.98,-1.19 1.34,-1.1 0.53,-0.46 1.29,-1.62 0.1,-0.11 0.77,-1.33 0.26,-0.45 z" /><path
       id="대흥동"
       style="fill:#86c69a;fill-opacity:1;fill-rule:evenodd;stroke:none"
       d="m 494.37,378.02 2.83,-3.48 1.52,-1.87 -4.35,-1.03 -0.3,-0.08 -0.19,-0.12 0.08,-0.4 0.01,-0.05 0.28,-0.92 0.07,-0.21 0.47,-0.81 0.43,-3.95 -0.81,-0.89 -2.47,-0.92 -0.52,-0.2 -0.99,-0.37 -2.52,-0.93 -2.22,-0.45 -10.52,-1.1 -1.43,0.45 -1,0.46 -0.55,0.54 -0.19,0.37 0.75,4.66 -2.32,1.84 -0.03,1.47 2.5,1.12 5.39,4.07 0.85,0.87 0.22,0.51 0.12,0.27 2.28,0.85 1.32,0.49 2.46,0.87 0.12,-0.03 0.19,-0.08 1.1,-1.87 z" /><path
       id="대흥동"
       style="fill:none;stroke:#44546a;stroke-width:0.23999999;stroke-linecap:round;stroke-linejoin:round;stroke-miterlimit:10;stroke-dasharray:none;stroke-opacity:0.8"
       d="m 494.37,378.02 2.83,-3.48 1.52,-1.87 -4.35,-1.03 -0.3,-0.08 -0.19,-0.12 0.08,-0.4 0.01,-0.05 0.28,-0.92 0.07,-0.21 0.47,-0.81 0.43,-3.95 -0.81,-0.89 -2.47,-0.92 -0.52,-0.2 -0.99,-0.37 -2.52,-0.93 -2.22,-0.45 -10.52,-1.1 -1.43,0.45 -1,0.46 -0.55,0.54 -0.19,0.37 0.75,4.66 -2.32,1.84 -0.03,1.47 2.5,1.12 5.39,4.07 0.85,0.87 0.22,0.51 0.12,0.27 2.28,0.85 1.32,0.49 2.46,0.87 0.12,-0.03 0.19,-0.08 1.1,-1.87 z" /><path
       id="문창동"
       style="fill:#86c69a;fill-opacity:1;fill-rule:evenodd;stroke:none"
       d="m 506.54,362.01 3.7,-9.22 -2.29,-2.99 -1.68,0.8 -4.99,2.4 -0.07,0.05 1.24,0.48 0.23,0.09 1.41,0.57 -1.68,3 -4.87,8.57 -0.66,-0.17 -1.62,-0.46 -0.43,3.97 -0.47,0.81 -0.06,0.21 -0.29,0.92 v 0.05 l -0.09,0.4 0.2,0.12 0.29,0.08 4.35,1.03 1.89,-2.44 z" /><path
       id="문창동"
       style="fill:none;stroke:#44546a;stroke-width:0.23999999;stroke-linecap:round;stroke-linejoin:round;stroke-miterlimit:10;stroke-dasharray:none;stroke-opacity:0.8"
       d="m 506.54,362.01 3.7,-9.22 -2.29,-2.99 -1.68,0.8 -4.99,2.4 -0.07,0.05 1.24,0.48 0.23,0.09 1.41,0.57 -1.68,3 -4.87,8.57 -0.66,-0.17 -1.62,-0.46 -0.43,3.97 -0.47,0.81 -0.06,0.21 -0.29,0.92 v 0.05 l -0.09,0.4 0.2,0.12 0.29,0.08 4.35,1.03 1.89,-2.44 z" /><path
       id="석교동"
       style="fill:#86c69a;fill-opacity:1;fill-rule:evenodd;stroke:none"
       d="m 536.87,331.93 0.55,-2.88 1.8,-7.59 0.48,-0.66 0.54,-0.18 -2.84,-2.01 -4.91,0.84 -1.3,0.23 -2.15,0.66 -4.42,1.65 -2.4,1.87 -1.7,0.96 -5.14,-0.14 -2.29,-0.39 -1.59,-0.59 -0.86,-1.32 -4.59,-4 -8.57,-2.78 -2.78,0.73 -1.41,-0.29 -3.45,0.4 -2.62,1.02 -0.49,0.26 -1.01,0.99 -0.95,1.17 0.34,0.86 -0.08,0.39 -1.24,0.89 -0.57,0.38 -2.86,1.7 -0.48,0.09 3.35,2.46 6.45,-0.03 2.46,-0.43 1.67,4.61 -3.56,1.82 -0.8,2.31 2.8,2.52 1.66,0.88 2.83,1.88 5.45,3.68 3.46,2.87 1.67,2.13 0.67,0.88 0.03,0.05 2.29,2.98 4.84,-2.93 3.04,0.14 2.19,-0.78 0.84,-0.62 0.31,-0.47 0.21,-0.3 0.7,-1.05 0.06,-0.08 1.78,-2.48 4.09,-5.11 1.52,-1.59 5.68,-4.85 z" /><path
       id="석교동"
       style="fill:none;stroke:#44546a;stroke-width:0.23999999;stroke-linecap:round;stroke-linejoin:round;stroke-miterlimit:10;stroke-dasharray:none;stroke-opacity:0.8"
       d="m 536.87,331.93 0.55,-2.88 1.8,-7.59 0.48,-0.66 0.54,-0.18 -2.84,-2.01 -4.91,0.84 -1.3,0.23 -2.15,0.66 -4.42,1.65 -2.4,1.87 -1.7,0.96 -5.14,-0.14 -2.29,-0.39 -1.59,-0.59 -0.86,-1.32 -4.59,-4 -8.57,-2.78 -2.78,0.73 -1.41,-0.29 -3.45,0.4 -2.62,1.02 -0.49,0.26 -1.01,0.99 -0.95,1.17 0.34,0.86 -0.08,0.39 -1.24,0.89 -0.57,0.38 -2.86,1.7 -0.48,0.09 3.35,2.46 6.45,-0.03 2.46,-0.43 1.67,4.61 -3.56,1.82 -0.8,2.31 2.8,2.52 1.66,0.88 2.83,1.88 5.45,3.68 3.46,2.87 1.67,2.13 0.67,0.88 0.03,0.05 2.29,2.98 4.84,-2.93 3.04,0.14 2.19,-0.78 0.84,-0.62 0.31,-0.47 0.21,-0.3 0.7,-1.05 0.06,-0.08 1.78,-2.48 4.09,-5.11 1.52,-1.59 5.68,-4.85 z" /><path
       id="대사동"
       style="fill:#86c69a;fill-opacity:1;fill-rule:evenodd;stroke:none"
       d="m 494.47,364.17 0.16,-0.12 0.85,-0.76 -0.19,-0.59 -1.28,-3.31 -3.7,-5.42 -0.14,-2.77 -1.97,-4.43 -2.09,-1.84 1.98,-6.12 1.34,-3.92 0.8,-2.31 3.57,-1.82 -1.68,-4.61 -2.46,0.43 -6.46,0.02 -3.36,-2.45 -1.06,-0.03 0.86,2.76 2.53,1.87 -2.33,3.27 -4.01,2.4 -5.27,1.95 -0.32,0.92 -1.33,10.23 1.47,2.87 0.9,1.55 0.5,0.76 -3.59,3.97 -0.26,0.03 -0.73,0.14 -1.36,0.55 0.41,3.66 0.61,1.52 2.05,5 1.48,0.95 2.33,-1.84 -0.75,-4.66 0.19,-0.37 0.55,-0.54 1.01,-0.46 1.43,-0.45 10.57,1.1 2.22,0.45 2.53,0.93 0.99,0.37 0.52,0.2 z" /><path
       id="대사동"
       style="fill:none;stroke:#44546a;stroke-width:0.23999999;stroke-linecap:round;stroke-linejoin:round;stroke-miterlimit:10;stroke-dasharray:none;stroke-opacity:0.8"
       d="m 494.47,364.17 0.16,-0.12 0.85,-0.76 -0.19,-0.59 -1.28,-3.31 -3.7,-5.42 -0.14,-2.77 -1.97,-4.43 -2.09,-1.84 1.98,-6.12 1.34,-3.92 0.8,-2.31 3.57,-1.82 -1.68,-4.61 -2.46,0.43 -6.46,0.02 -3.36,-2.45 -1.06,-0.03 0.86,2.76 2.53,1.87 -2.33,3.27 -4.01,2.4 -5.27,1.95 -0.32,0.92 -1.33,10.23 1.47,2.87 0.9,1.55 0.5,0.76 -3.59,3.97 -0.26,0.03 -0.73,0.14 -1.36,0.55 0.41,3.66 0.61,1.52 2.05,5 1.48,0.95 2.33,-1.84 -0.75,-4.66 0.19,-0.37 0.55,-0.54 1.01,-0.46 1.43,-0.45 10.57,1.1 2.22,0.45 2.53,0.93 0.99,0.37 0.52,0.2 z" /><path
       id="부사동"
       style="fill:#86c69a;fill-opacity:1;fill-rule:evenodd;stroke:none"
       d="m 507.96,349.82 -0.03,-0.05 -0.67,-0.88 -1.66,-2.13 -3.46,-2.87 -5.44,-3.69 -2.83,-1.88 -1.65,-0.88 -2.8,-2.52 -1.33,3.92 -1.97,6.14 2.08,1.84 1.96,4.43 0.14,2.77 3.69,5.43 1.28,3.32 0.18,0.58 -0.84,0.76 -0.17,0.13 0.81,0.88 1.62,0.47 0.66,0.17 4.87,-8.56 1.69,-3 -1.41,-0.56 -0.24,-0.09 -1.24,-0.49 0.08,-0.04 5,-2.4 z" /><path
       id="부사동"
       style="fill:none;stroke:#44546a;stroke-width:0.23999999;stroke-linecap:round;stroke-linejoin:round;stroke-miterlimit:10;stroke-dasharray:none;stroke-opacity:0.8"
       d="m 507.96,349.82 -0.03,-0.05 -0.67,-0.88 -1.66,-2.13 -3.46,-2.87 -5.44,-3.69 -2.83,-1.88 -1.65,-0.88 -2.8,-2.52 -1.33,3.92 -1.97,6.14 2.08,1.84 1.96,4.43 0.14,2.77 3.69,5.43 1.28,3.32 0.18,0.58 -0.84,0.76 -0.17,0.13 0.81,0.88 1.62,0.47 0.66,0.17 4.87,-8.56 1.69,-3 -1.41,-0.56 -0.24,-0.09 -1.24,-0.49 0.08,-0.04 5,-2.4 z" /><path
       id="용두동"
       style="fill:#86c69a;fill-opacity:1;fill-rule:evenodd;stroke:none"
       d="m 449.5,395.1 -0.5,-0.47 -2.64,-2.86 0.12,-0.65 0.25,-0.55 0.51,-0.75 7.13,-6.29 4.57,-3.87 0.67,-0.23 1.71,-0.56 4.02,-1.32 -1.3,-1.31 -0.19,-0.2 -0.08,-0.39 0.1,-0.32 0.25,-0.3 0.88,-0.65 3.12,-3.14 -0.77,-1.66 -5.12,-0.94 0.09,0.52 -0.04,0.4 -0.29,0.25 -0.77,0.64 -4.8,4.06 -1.31,1.07 -5.95,4.86 -7.83,6.42 -1.76,1.46 -0.78,0.63 -0.79,0.66 7.28,6.03 1.37,-0.44 z" /><path
       id="용두동"
       style="fill:none;stroke:#44546a;stroke-width:0.23999999;stroke-linecap:round;stroke-linejoin:round;stroke-miterlimit:10;stroke-dasharray:none;stroke-opacity:0.8"
       d="m 449.5,395.1 -0.5,-0.47 -2.64,-2.86 0.12,-0.65 0.25,-0.55 0.51,-0.75 7.13,-6.29 4.57,-3.87 0.67,-0.23 1.71,-0.56 4.02,-1.32 -1.3,-1.31 -0.19,-0.2 -0.08,-0.39 0.1,-0.32 0.25,-0.3 0.88,-0.65 3.12,-3.14 -0.77,-1.66 -5.12,-0.94 0.09,0.52 -0.04,0.4 -0.29,0.25 -0.77,0.64 -4.8,4.06 -1.31,1.07 -5.95,4.86 -7.83,6.42 -1.76,1.46 -0.78,0.63 -0.79,0.66 7.28,6.03 1.37,-0.44 z" /><path
       id="오류동"
       style="fill:#86c69a;fill-opacity:1;fill-rule:evenodd;stroke:none"
       d="m 462.27,368.7 -14.1,-4.14 -2.07,5.64 -0.03,0.39 -0.41,1.46 -0.83,2.64 -1.27,3.61 -0.99,2.82 -0.59,1.63 -0.62,4.13 7.84,-6.4 5.95,-4.85 1.31,-1.07 4.8,-4.05 0.77,-0.64 0.29,-0.25 0.04,-0.4 z" /><path
       id="오류동"
       style="fill:none;stroke:#44546a;stroke-width:0.23999999;stroke-linecap:round;stroke-linejoin:round;stroke-miterlimit:10;stroke-dasharray:none;stroke-opacity:0.8"
       d="m 462.27,368.7 -14.1,-4.14 -2.07,5.64 -0.03,0.39 -0.41,1.46 -0.83,2.64 -1.27,3.61 -0.99,2.82 -0.59,1.63 -0.62,4.13 7.84,-6.4 5.95,-4.85 1.31,-1.07 4.8,-4.05 0.77,-0.64 0.29,-0.25 0.04,-0.4 z" /><path
       id="태평1동"
       style="fill:#86c69a;fill-opacity:1;fill-rule:evenodd;stroke:none"
       d="m 441.28,386.86 0.62,-4.13 0.6,-1.63 0.99,-2.84 1.28,-3.61 0.83,-2.65 0.41,-1.46 0.03,-0.39 -1.98,-0.12 -8.78,-1.75 -1.76,5.01 -0.44,1.3 5.45,11.78 0.14,0.28 0.84,1.67 z" /><path
       id="태평1동"
       style="fill:none;stroke:#44546a;stroke-width:0.23999999;stroke-linecap:round;stroke-linejoin:round;stroke-miterlimit:10;stroke-dasharray:none;stroke-opacity:0.8"
       d="m 441.28,386.86 0.62,-4.13 0.6,-1.63 0.99,-2.84 1.28,-3.61 0.83,-2.65 0.41,-1.46 0.03,-0.39 -1.98,-0.12 -8.78,-1.75 -1.76,5.01 -0.44,1.3 5.45,11.78 0.14,0.28 0.84,1.67 z" /><path
       id="태평2동"
       style="fill:#86c69a;fill-opacity:1;fill-rule:evenodd;stroke:none"
       d="m 439.56,388.29 -0.83,-1.67 -0.14,-0.27 -5.44,-11.74 0.45,-1.3 1.74,-4.98 -2.55,-0.65 -2.47,-0.67 -0.21,-0.55 -1.49,-3.81 -0.68,-1.76 -0.54,-1.39 -0.25,-0.08 -4.27,-1.06 -2.45,-0.62 -0.99,-0.25 -0.53,-0.13 -0.9,2.58 -0.45,1.63 -0.15,0.56 -0.05,1.05 0.09,0.62 0.16,0.82 0.01,0.06 0.2,0.58 0.2,0.46 0.4,0.69 6.04,9.33 0.87,1.22 5.9,6 7.55,5.96 z" /><path
       id="태평2동"
       style="fill:none;stroke:#44546a;stroke-width:0.23999999;stroke-linecap:round;stroke-linejoin:round;stroke-miterlimit:10;stroke-dasharray:none;stroke-opacity:0.8"
       d="m 439.56,388.29 -0.83,-1.67 -0.14,-0.27 -5.44,-11.74 0.45,-1.3 1.74,-4.98 -2.55,-0.65 -2.47,-0.67 -0.21,-0.55 -1.49,-3.81 -0.68,-1.76 -0.54,-1.39 -0.25,-0.08 -4.27,-1.06 -2.45,-0.62 -0.99,-0.25 -0.53,-0.13 -0.9,2.58 -0.45,1.63 -0.15,0.56 -0.05,1.05 0.09,0.62 0.16,0.82 0.01,0.06 0.2,0.58 0.2,0.46 0.4,0.69 6.04,9.33 0.87,1.22 5.9,6 7.55,5.96 z" /><path
       id="유천1동"
       style="fill:#86c69a;fill-opacity:1;fill-rule:evenodd;stroke:none"
       d="m 438.48,351.78 -3.14,-0.81 -2.97,-0.77 -2.95,-0.76 -1.4,4.08 -0.27,0.79 -1.51,-0.55 -0.18,-0.07 -2.18,-0.77 -1.07,-0.71 -3.46,-0.1 -0.43,5.18 0.53,0.13 0.99,0.26 2.44,0.61 4.27,1.08 0.25,0.08 0.54,1.39 0.68,1.78 1.49,3.83 0.21,0.55 2.47,0.68 4.5,-12.53 z" /><path
       id="유천1동"
       style="fill:none;stroke:#44546a;stroke-width:0.23999999;stroke-linecap:round;stroke-linejoin:round;stroke-miterlimit:10;stroke-dasharray:none;stroke-opacity:0.8"
       d="m 438.48,351.78 -3.14,-0.81 -2.97,-0.77 -2.95,-0.76 -1.4,4.08 -0.27,0.79 -1.51,-0.55 -0.18,-0.07 -2.18,-0.77 -1.07,-0.71 -3.46,-0.1 -0.43,5.18 0.53,0.13 0.99,0.26 2.44,0.61 4.27,1.08 0.25,0.08 0.54,1.39 0.68,1.78 1.49,3.83 0.21,0.55 2.47,0.68 4.5,-12.53 z" /><path
       id="유천2동"
       style="fill:#86c69a;fill-opacity:1;fill-rule:evenodd;stroke:none"
       d="m 448.08,364.56 -2.14,-10.48 -7.45,-2.24 -1.18,3.36 -4.47,12.48 2.53,0.65 8.69,1.75 1.96,0.12 z" /><path
       id="유천2동"
       style="fill:none;stroke:#44546a;stroke-width:0.23999999;stroke-linecap:round;stroke-linejoin:round;stroke-miterlimit:10;stroke-dasharray:none;stroke-opacity:0.8"
       d="m 448.08,364.56 -2.14,-10.48 -7.45,-2.24 -1.18,3.36 -4.47,12.48 2.53,0.65 8.69,1.75 1.96,0.12 z" /><path
       id="문화1동"
       style="fill:#86c69a;fill-opacity:1;fill-rule:evenodd;stroke:none"
       d="m 470.39,368.6 -1.48,-0.95 -2.04,-5.01 -0.61,-1.53 -0.41,-3.66 1.35,-0.55 0.74,-0.14 0.26,-0.03 3.58,-3.98 -0.5,-0.76 -0.9,-1.55 -1.47,-2.88 1.34,-10.24 0.32,-0.93 5.25,-1.95 4.01,-2.4 2.33,-3.28 -2.53,-1.87 -0.86,-2.77 -3.4,3.93 -1.19,0.76 -11.88,4.88 -4.26,1.5 -0.06,5.77 1.81,1.15 -1.32,2.58 -3.18,2.09 -5.08,3.48 -0.96,2.02 0.39,1.23 0.2,0.65 -1.72,0.59 -2.2,-0.67 2.16,10.48 14.13,4.16 5.14,0.94 3.02,0.42 z" /><path
       id="문화1동"
       style="fill:none;stroke:#44546a;stroke-width:0.23999999;stroke-linecap:round;stroke-linejoin:round;stroke-miterlimit:10;stroke-dasharray:none;stroke-opacity:0.8"
       d="m 470.39,368.6 -1.48,-0.95 -2.04,-5.01 -0.61,-1.53 -0.41,-3.66 1.35,-0.55 0.74,-0.14 0.26,-0.03 3.58,-3.98 -0.5,-0.76 -0.9,-1.55 -1.47,-2.88 1.34,-10.24 0.32,-0.93 5.25,-1.95 4.01,-2.4 2.33,-3.28 -2.53,-1.87 -0.86,-2.77 -3.4,3.93 -1.19,0.76 -11.88,4.88 -4.26,1.5 -0.06,5.77 1.81,1.15 -1.32,2.58 -3.18,2.09 -5.08,3.48 -0.96,2.02 0.39,1.23 0.2,0.65 -1.72,0.59 -2.2,-0.67 2.16,10.48 14.13,4.16 5.14,0.94 3.02,0.42 z" /><path
       id="문화2동"
       style="fill:#86c69a;fill-opacity:1;fill-rule:evenodd;stroke:none"
       d="m 458.09,335.24 -2.39,-0.88 -8.32,-0.88 -2.95,0.2 -1.71,0.39 -1.01,0.87 -0.6,0.52 -5.94,5.77 -2.33,2.86 0.95,1.4 2.57,2.43 -1.05,3.08 3.15,0.81 7.5,2.24 2.21,0.67 1.72,-0.59 -0.21,-0.65 -0.38,-1.22 0.95,-2.01 5.09,-3.47 3.18,-2.08 1.32,-2.57 -1.81,-1.15 z" /><path
       id="문화2동"
       style="fill:none;stroke:#44546a;stroke-width:0.23999999;stroke-linecap:round;stroke-linejoin:round;stroke-miterlimit:10;stroke-dasharray:none;stroke-opacity:0.8"
       d="m 458.09,335.24 -2.39,-0.88 -8.32,-0.88 -2.95,0.2 -1.71,0.39 -1.01,0.87 -0.6,0.52 -5.94,5.77 -2.33,2.86 0.95,1.4 2.57,2.43 -1.05,3.08 3.15,0.81 7.5,2.24 2.21,0.67 1.72,-0.59 -0.21,-0.65 -0.38,-1.22 0.95,-2.01 5.09,-3.47 3.18,-2.08 1.32,-2.57 -1.81,-1.15 z" /><path
       id="산성동"
       style="fill:#86c69a;fill-opacity:1;fill-rule:evenodd;stroke:none"
       d="m 435.28,351.04 1.05,-3.09 -2.56,-2.43 -0.95,-1.41 2.32,-2.86 5.94,-5.8 0.59,-0.51 1.02,-0.88 1.71,-0.39 2.94,-0.2 8.31,0.88 2.38,0.89 4.26,-1.5 11.87,-4.87 1.2,-0.77 3.39,-3.92 1.06,0.04 0.48,-0.1 2.86,-1.69 0.57,-0.39 1.24,-0.89 0.08,-0.39 -0.34,-0.86 0.95,-1.17 1.01,-0.98 0.49,-0.26 2.62,-1.03 3.44,-0.39 1.42,0.29 -0.72,-2.42 0.32,-9.03 3.32,-3.12 1.89,-0.82 1.03,-0.44 1.11,-0.08 0.23,-1.38 -1.77,-1.41 -1.76,-1.42 -1.77,-1.41 2.73,-5.76 2.5,-0.53 2.5,-0.53 4.14,-8.33 -0.42,-1.59 -0.42,-1.59 -6.87,-5.3 -8.4,-6.81 0.23,-1.52 0.71,-4.59 -1.3,-1.16 -1.31,-1.17 -1.31,-1.16 -1.3,-1.16 0.1,-0.01 2.3,-0.22 4.61,-0.43 2.3,-0.21 1.57,0.01 5.41,-1.95 -2.07,-2.04 -0.86,-0.4 -0.36,-0.32 0.04,-0.58 0.87,-1.7 6.22,-7.01 0.36,-0.38 1.05,-0.86 0.94,-0.51 1.05,-0.31 1.78,-1.26 0.55,-2.1 0.15,-0.61 0.8,-6.12 -4.06,-1.69 -2.45,-0.79 -1.3,-0.46 -1.28,-0.67 -0.21,-2.14 0.18,-2.48 0.17,-2.18 0.02,-0.54 -1.51,-1.92 -4.46,-5.54 -0.81,-0.41 -0.54,-0.19 -0.38,-0.13 -2.44,-0.25 -1.07,0.02 -2.48,1.25 -0.47,0.31 -0.49,0.52 -1.56,0.86 -0.83,0.26 -5.05,-0.44 -1.13,-1.76 -0.28,-1.13 -0.16,-0.7 0.09,-0.57 0.24,-0.72 0.33,-0.58 1.16,-0.37 0.88,-0.65 0.66,-0.57 0.24,-2.82 0.33,-9.21 v -2.19 l -1.02,-2.21 -0.13,-3.63 1.05,-1.96 0.15,-0.71 -0.43,-0.67 -0.85,-0.62 -1.71,-0.98 -2.5,-1.94 -0.8,-1.08 -2.16,-0.25 -1.67,-0.37 -0.63,-0.83 -0.16,-0.38 -0.18,-0.05 -0.06,-0.02 -0.27,0.11 -4.04,1.89 -3.02,1.57 -1.32,1.07 -2.22,1.53 -1.64,1.03 -0.47,0.15 -0.84,0.15 -0.63,0.09 -0.16,0.02 -0.95,0.11 -0.39,0.13 -0.42,0.23 -2.71,1.91 1.34,2.82 0.16,0.3 0.63,0.91 0.66,0.45 0.48,0.49 0.67,0.87 0.24,0.36 0.29,0.41 v 0.12 l -0.02,0.61 -0.03,0.23 -1.86,2.57 -2.23,2.46 -1.7,1.67 -0.4,0.18 -4.54,1.97 -3.94,7.22 -1.5,4.27 -1.1,3.21 -0.23,0.77 -5.63,1.83 -4.95,0.96 -9.83,1.52 -1.16,0.2 -0.02,0.05 -0.16,0.29 -0.12,1.98 0.22,2.7 0.29,0.4 0.84,0.56 3.24,2.29 0.07,0.11 0.17,0.25 0.13,0.39 0.84,5.03 -0.01,0.14 -0.01,0.1 -0.74,0.7 -0.71,0.6 -0.76,0.33 -0.33,0.24 -0.25,0.19 -1.15,1.15 -0.92,0.94 -0.7,1.05 -2.44,8.19 0.25,3.35 0.69,1.11 0.85,0.7 0.5,0.28 0.66,0.46 0.63,1.1 0.03,0.04 0.17,0.42 2.3,7.04 0.75,2.54 -0.07,2.07 -1.14,3.76 -0.55,1.09 -0.49,0.67 -0.15,0.12 -0.33,0.3 -0.93,0.64 -5.8,3.8 -0.78,0.46 -2.48,0.82 -2.16,0.53 -2.92,1.23 -1.91,1.25 -0.45,0.43 -0.74,0.49 -0.92,0.47 -1.5,-0.18 -7.27,1.4 0.53,2.52 0.11,1.4 -0.1,0.37 -2.46,4.63 -3.38,7.58 -0.09,1.81 1.9,9.2 2.85,4.94 2.36,3.34 1.97,-0.27 6.47,-0.34 0.19,0.21 3.7,4.09 0.8,0.89 0.18,0.32 2.16,3.77 0.63,1.21 0.04,0.21 0.21,1.32 -0.53,1.46 -0.85,1.73 -0.14,0.28 -0.78,1.56 -0.04,2.45 v 0.86 l 0.78,2.6 1.96,2.01 2.07,1.97 3.72,6.55 3.46,0.11 1.07,0.7 2.18,0.77 0.18,0.07 1.52,0.54 0.26,-0.78 1.4,-4.07 2.96,0.76 z" /><path
       id="산성동"
       style="fill:none;stroke:#44546a;stroke-width:0.23999999;stroke-linecap:round;stroke-linejoin:round;stroke-miterlimit:10;stroke-dasharray:none;stroke-opacity:0.8"
       d="m 435.28,351.04 1.05,-3.09 -2.56,-2.43 -0.95,-1.41 2.32,-2.86 5.94,-5.8 0.59,-0.51 1.02,-0.88 1.71,-0.39 2.94,-0.2 8.31,0.88 2.38,0.89 4.26,-1.5 11.87,-4.87 1.2,-0.77 3.39,-3.92 1.06,0.04 0.48,-0.1 2.86,-1.69 0.57,-0.39 1.24,-0.89 0.08,-0.39 -0.34,-0.86 0.95,-1.17 1.01,-0.98 0.49,-0.26 2.62,-1.03 3.44,-0.39 1.42,0.29 -0.72,-2.42 0.32,-9.03 3.32,-3.12 1.89,-0.82 1.03,-0.44 1.11,-0.08 0.23,-1.38 -1.77,-1.41 -1.76,-1.42 -1.77,-1.41 2.73,-5.76 2.5,-0.53 2.5,-0.53 4.14,-8.33 -0.42,-1.59 -0.42,-1.59 -6.87,-5.3 -8.4,-6.81 0.23,-1.52 0.71,-4.59 -1.3,-1.16 -1.31,-1.17 -1.31,-1.16 -1.3,-1.16 0.1,-0.01 2.3,-0.22 4.61,-0.43 2.3,-0.21 1.57,0.01 5.41,-1.95 -2.07,-2.04 -0.86,-0.4 -0.36,-0.32 0.04,-0.58 0.87,-1.7 6.22,-7.01 0.36,-0.38 1.05,-0.86 0.94,-0.51 1.05,-0.31 1.78,-1.26 0.55,-2.1 0.15,-0.61 0.8,-6.12 -4.06,-1.69 -2.45,-0.79 -1.3,-0.46 -1.28,-0.67 -0.21,-2.14 0.18,-2.48 0.17,-2.18 0.02,-0.54 -1.51,-1.92 -4.46,-5.54 -0.81,-0.41 -0.54,-0.19 -0.38,-0.13 -2.44,-0.25 -1.07,0.02 -2.48,1.25 -0.47,0.31 -0.49,0.52 -1.56,0.86 -0.83,0.26 -5.05,-0.44 -1.13,-1.76 -0.28,-1.13 -0.16,-0.7 0.09,-0.57 0.24,-0.72 0.33,-0.58 1.16,-0.37 0.88,-0.65 0.66,-0.57 0.24,-2.82 0.33,-9.21 v -2.19 l -1.02,-2.21 -0.13,-3.63 1.05,-1.96 0.15,-0.71 -0.43,-0.67 -0.85,-0.62 -1.71,-0.98 -2.5,-1.94 -0.8,-1.08 -2.16,-0.25 -1.67,-0.37 -0.63,-0.83 -0.16,-0.38 -0.18,-0.05 -0.06,-0.02 -0.27,0.11 -4.04,1.89 -3.02,1.57 -1.32,1.07 -2.22,1.53 -1.64,1.03 -0.47,0.15 -0.84,0.15 -0.63,0.09 -0.16,0.02 -0.95,0.11 -0.39,0.13 -0.42,0.23 -2.71,1.91 1.34,2.82 0.16,0.3 0.63,0.91 0.66,0.45 0.48,0.49 0.67,0.87 0.24,0.36 0.29,0.41 v 0.12 l -0.02,0.61 -0.03,0.23 -1.86,2.57 -2.23,2.46 -1.7,1.67 -0.4,0.18 -4.54,1.97 -3.94,7.22 -1.5,4.27 -1.1,3.21 -0.23,0.77 -5.63,1.83 -4.95,0.96 -9.83,1.52 -1.16,0.2 -0.02,0.05 -0.16,0.29 -0.12,1.98 0.22,2.7 0.29,0.4 0.84,0.56 3.24,2.29 0.07,0.11 0.17,0.25 0.13,0.39 0.84,5.03 -0.01,0.14 -0.01,0.1 -0.74,0.7 -0.71,0.6 -0.76,0.33 -0.33,0.24 -0.25,0.19 -1.15,1.15 -0.92,0.94 -0.7,1.05 -2.44,8.19 0.25,3.35 0.69,1.11 0.85,0.7 0.5,0.28 0.66,0.46 0.63,1.1 0.03,0.04 0.17,0.42 2.3,7.04 0.75,2.54 -0.07,2.07 -1.14,3.76 -0.55,1.09 -0.49,0.67 -0.15,0.12 -0.33,0.3 -0.93,0.64 -5.8,3.8 -0.78,0.46 -2.48,0.82 -2.16,0.53 -2.92,1.23 -1.91,1.25 -0.45,0.43 -0.74,0.49 -0.92,0.47 -1.5,-0.18 -7.27,1.4 0.53,2.52 0.11,1.4 -0.1,0.37 -2.46,4.63 -3.38,7.58 -0.09,1.81 1.9,9.2 2.85,4.94 2.36,3.34 1.97,-0.27 6.47,-0.34 0.19,0.21 3.7,4.09 0.8,0.89 0.18,0.32 2.16,3.77 0.63,1.21 0.04,0.21 0.21,1.32 -0.53,1.46 -0.85,1.73 -0.14,0.28 -0.78,1.56 -0.04,2.45 v 0.86 l 0.78,2.6 1.96,2.01 2.07,1.97 3.72,6.55 3.46,0.11 1.07,0.7 2.18,0.77 0.18,0.07 1.52,0.54 0.26,-0.78 1.4,-4.07 2.96,0.76 z" /></g></svg>